<svg id="SvgjsSvg1518" width="657.2625122070312" height="336.8874969482422" xmlns="http://www.w3.org/2000/svg" version="1.1" xmlns:xlink="http://www.w3.org/1999/xlink" xmlns:svgjs="http://svgjs.com/svgjs"><defs id="SvgjsDefs1519"><marker id="SvgjsMarker1555" markerWidth="14" markerHeight="10" refX="10" refY="5" viewBox="0 0 14 10" orient="auto" markerUnits="userSpaceOnUse" stroke-dasharray="0,0"><path id="SvgjsPath1556" d="M0,0 L14,5 L0,10 L0,0" fill="#323232" stroke="#323232" stroke-width="1"></path></marker><marker id="SvgjsMarker1593" markerWidth="14" markerHeight="10" refX="10" refY="5" viewBox="0 0 14 10" orient="auto" markerUnits="userSpaceOnUse" stroke-dasharray="0,0"><path id="SvgjsPath1594" d="M0,0 L14,5 L0,10 L0,0" fill="#323232" stroke="#323232" stroke-width="1"></path></marker><marker id="SvgjsMarker1603" markerWidth="14" markerHeight="10" refX="10" refY="5" viewBox="0 0 14 10" orient="auto" markerUnits="userSpaceOnUse" stroke-dasharray="0,0"><path id="SvgjsPath1604" d="M0,0 L14,5 L0,10 L0,0" fill="#323232" stroke="#323232" stroke-width="1"></path></marker><marker id="SvgjsMarker1607" markerWidth="14" markerHeight="10" refX="10" refY="5" viewBox="0 0 14 10" orient="auto" markerUnits="userSpaceOnUse" stroke-dasharray="0,0"><path id="SvgjsPath1608" d="M0,0 L14,5 L0,10 L0,0" fill="#323232" stroke="#323232" stroke-width="1"></path></marker><marker id="SvgjsMarker1623" markerWidth="14" markerHeight="10" refX="10" refY="5" viewBox="0 0 14 10" orient="auto" markerUnits="userSpaceOnUse" stroke-dasharray="0,0"><path id="SvgjsPath1624" d="M0,0 L14,5 L0,10 L0,0" fill="#323232" stroke="#323232" stroke-width="1"></path></marker></defs><g id="SvgjsG1520" transform="translate(25.01249885559082,103.78574710422026)"><path id="SvgjsPath1521" d="M 115.49999237060547 0Q 106.49999237060547 0 106.49999237060547 9L 106.49999237060547 86.93055174085862Q 106.49999237060547 95.93055174085862 93.49999237060547 95.93055174085862Q 106.49999237060547 95.93055174085862 106.49999237060547 104.93055174085862L 106.49999237060547 182.86110348171724Q 106.49999237060547 191.86110348171724 115.49999237060547 191.86110348171724" stroke="rgba(50,50,50,1)" stroke-width="2" fill="none"></path><path id="SvgjsPath1522" d="M 0 0L 115.49999237060547 0L 115.49999237060547 191.86110348171724L 0 191.86110348171724Z" stroke="none" fill="none"></path><g id="SvgjsG1523"><text id="SvgjsText1524" font-family="微软雅黑" text-anchor="end" font-size="13px" width="89px" fill="#323232" font-weight="400" align="middle" lineHeight="125%" anchor="end" family="微软雅黑" size="13px" weight="400" font-style="" opacity="1" y="86.30555174085862" transform="rotate(0)"><tspan id="SvgjsTspan1525" dy="16" x="89"><tspan id="SvgjsTspan1526" style="text-decoration:;">进程继续执行</tspan></tspan></text></g></g><g id="SvgjsG1527" transform="translate(152.26249504089355,87.89685821533203)"><path id="SvgjsPath1528" d="M 0 0L 77 0L 77 36L 0 36Z" stroke="none" fill="none"></path><g id="SvgjsG1529"><text id="SvgjsText1530" font-family="微软雅黑" text-anchor="middle" font-size="14px" width="77px" fill="#323232" font-weight="400" align="middle" lineHeight="125%" anchor="middle" family="微软雅黑" size="14px" weight="400" font-style="" opacity="1" y="7.25" transform="rotate(0)"><tspan id="SvgjsTspan1531" dy="17" x="38.5"><tspan id="SvgjsTspan1532" style="text-decoration:;">aio_read</tspan></tspan></text></g></g><g id="SvgjsG1533" transform="translate(493.87361293368986,101.89685821533203)"><path id="SvgjsPath1534" d="M 0 93Q 8.4 93 8.4 84L 8.4 55.5Q 8.4 46.5 22 46.5Q 8.4 46.5 8.4 37.5L 8.4 9Q 8.4 0 0 0" stroke="rgba(50,50,50,1)" stroke-width="2" fill="none"></path><path id="SvgjsPath1535" d="M 0 0L 84 0L 84 93L 0 93Z" stroke="none" fill="none"></path><g id="SvgjsG1536"><text id="SvgjsText1537" font-family="微软雅黑" text-anchor="start" font-size="13px" width="57px" fill="#323232" font-weight="400" align="middle" lineHeight="125%" anchor="start" family="微软雅黑" size="13px" weight="400" font-style="" opacity="1" y="36.875" transform="rotate(0)"><tspan id="SvgjsTspan1538" dy="16" x="27"><tspan id="SvgjsTspan1539" style="text-decoration:;">等待数据</tspan></tspan></text></g></g><g id="SvgjsG1540" transform="translate(246.76249504089355,78.78574710422026)"><path id="SvgjsPath1541" d="M 0 0L 100 0L 100 27L 0 27Z" stroke="none" fill="none"></path><g id="SvgjsG1542"><text id="SvgjsText1543" font-family="微软雅黑" text-anchor="middle" font-size="13px" width="100px" fill="#323232" font-weight="400" align="middle" lineHeight="125%" anchor="middle" family="微软雅黑" size="13px" weight="400" font-style="" opacity="1" y="3.875" transform="rotate(0)"><tspan id="SvgjsTspan1544" dy="16" x="50"><tspan id="SvgjsTspan1545" style="text-decoration:;">系统调用</tspan></tspan></text></g></g><g id="SvgjsG1546" transform="translate(379.76249504089355,92.39685821533203)"><path id="SvgjsPath1547" d="M 0 0L 122 0L 122 27L 0 27Z" stroke="none" fill="none"></path><g id="SvgjsG1548"><text id="SvgjsText1549" font-family="微软雅黑" text-anchor="middle" font-size="13px" width="122px" fill="#323232" font-weight="400" align="middle" lineHeight="125%" anchor="middle" family="微软雅黑" size="13px" weight="400" font-style="" opacity="1" y="3.875" transform="rotate(0)"><tspan id="SvgjsTspan1550" dy="16" x="61"><tspan id="SvgjsTspan1551" style="text-decoration:;">无数据报</tspan><tspan id="SvgjsTspan1552" style="text-decoration:;font-size: inherit;">准备好</tspan></tspan></text></g></g><g id="SvgjsG1553"><path id="SvgjsPath1554" d="M230.26249504089355 105.89685821533203L305.0958283742282 105.89685821533203L305.0958283742282 105.89685821533203L376.16249504089353 105.89685821533203" stroke="#323232" stroke-width="2" fill="none" marker-end="url(#SvgjsMarker1555)"></path></g><g id="SvgjsG1557" transform="translate(402.26249504089355,279.39685821533203)"><path id="SvgjsPath1558" d="M 0 0L 77 0L 77 27L 0 27Z" stroke="none" fill="none"></path><g id="SvgjsG1559"><text id="SvgjsText1560" font-family="微软雅黑" text-anchor="middle" font-size="13px" width="77px" fill="#323232" font-weight="400" align="middle" lineHeight="125%" anchor="middle" family="微软雅黑" size="13px" weight="400" font-style="" opacity="1" y="3.875" transform="rotate(0)"><tspan id="SvgjsTspan1561" dy="16" x="38.5"><tspan id="SvgjsTspan1562" style="text-decoration:;">复制完成</tspan></tspan></text></g></g><g id="SvgjsG1563" transform="translate(139.59582837422795,274.89685821533203)"><path id="SvgjsPath1564" d="M 0 0L 122 0L 122 36L 0 36Z" stroke="none" fill="none"></path><g id="SvgjsG1565"><text id="SvgjsText1566" font-family="微软雅黑" text-anchor="middle" font-size="13px" width="122px" fill="#323232" font-weight="400" align="middle" lineHeight="125%" anchor="middle" family="微软雅黑" size="13px" weight="400" font-style="" opacity="1" y="-0.125" transform="rotate(0)"><tspan id="SvgjsTspan1567" dy="16" x="61"><tspan id="SvgjsTspan1568" style="text-decoration:;">信号处理</tspan></tspan><tspan id="SvgjsTspan1569" dy="16" x="61"><tspan id="SvgjsTspan1570" style="text-decoration:;">程序处理数据报文</tspan></tspan></text></g></g><g id="SvgjsG1571" transform="translate(266.26249504089355,229.89685821533203)"><path id="SvgjsPath1572" d="M 0 0L 131 0L 131 81L 0 81Z" stroke="none" fill="none"></path><g id="SvgjsG1573"><text id="SvgjsText1574" font-family="微软雅黑" text-anchor="middle" font-size="13px" width="131px" fill="#323232" font-weight="400" align="middle" lineHeight="125%" anchor="middle" family="微软雅黑" size="13px" weight="400" font-style="" opacity="1" y="22.375" transform="rotate(0)"><tspan id="SvgjsTspan1575" dy="16" x="65.5"><tspan id="SvgjsTspan1576" style="text-decoration:;">递交在aio_read中</tspan></tspan><tspan id="SvgjsTspan1577" dy="16" x="65.5"><tspan id="SvgjsTspan1578" style="text-decoration:;">指定的信号</tspan></tspan></text></g></g><g id="SvgjsG1579" transform="translate(398.76249504089355,171.78574710422026)"><path id="SvgjsPath1580" d="M 0 0L 84 0L 84 21L 0 21Z" stroke="none" fill="none"></path><g id="SvgjsG1581"><text id="SvgjsText1582" font-family="微软雅黑" text-anchor="middle" font-size="13px" width="84px" fill="#323232" font-weight="400" align="middle" lineHeight="125%" anchor="middle" family="微软雅黑" size="13px" weight="400" font-style="" opacity="1" y="0.875" transform="rotate(0)"><tspan id="SvgjsTspan1583" dy="16" x="42"><tspan id="SvgjsTspan1584" style="text-decoration:;">数据报准备好</tspan></tspan></text></g></g><g id="SvgjsG1585" transform="translate(398.76249504089355,196.89685821533203)"><path id="SvgjsPath1586" d="M 0 0L 84 0L 84 21L 0 21Z" stroke="none" fill="none"></path><g id="SvgjsG1587"><text id="SvgjsText1588" font-family="微软雅黑" text-anchor="middle" font-size="13px" width="84px" fill="#323232" font-weight="400" align="middle" lineHeight="125%" anchor="middle" family="微软雅黑" size="13px" weight="400" font-style="" opacity="1" y="0.875" transform="rotate(0)"><tspan id="SvgjsTspan1589" dy="16" x="42"><tspan id="SvgjsTspan1590" style="text-decoration:;">复制数据报</tspan></tspan></text></g></g><g id="SvgjsG1591"><path id="SvgjsPath1592" d="M378.76249504089355 115.6225406263211L305.1057286928975 115.6225406263211L305.1057286928975 115.6225406263211L232.86249504089358 115.6225406263211" stroke="#323232" stroke-width="2" fill="none" marker-end="url(#SvgjsMarker1593)"></path></g><g id="SvgjsG1595" transform="translate(246.76249504089355,119.28574710422026)"><path id="SvgjsPath1596" d="M 0 0L 100 0L 100 27L 0 27Z" stroke="none" fill="none"></path><g id="SvgjsG1597"><text id="SvgjsText1598" font-family="微软雅黑" text-anchor="middle" font-size="13px" width="100px" fill="#323232" font-weight="400" align="middle" lineHeight="125%" anchor="middle" family="微软雅黑" size="13px" weight="400" font-style="" opacity="1" y="3.875" transform="rotate(0)"><tspan id="SvgjsTspan1599" dy="16" x="50"><tspan id="SvgjsTspan1600" style="text-decoration:;">返回</tspan></tspan></text></g></g><g id="SvgjsG1601"><path id="SvgjsPath1602" d="M444.2208283742282 120.39685821533203L444.2208283742282 140.16074710422026L444.2208283742282 140.16074710422026L444.2208283742282 157.78574710422026" stroke="#323232" stroke-width="2" fill="none" marker-end="url(#SvgjsMarker1603)"></path></g><g id="SvgjsG1605"><path id="SvgjsPath1606" d="M444.76249504089355 218.89685821533203L444.76249504089355 247.14685821533203L444.5958283742282 247.14685821533203L444.76249504089355 276.39685821533203" stroke="#323232" stroke-width="2" fill="none" marker-end="url(#SvgjsMarker1607)"></path></g><g id="SvgjsG1609" transform="translate(116.26249504089355,61.39685821533203)"><path id="SvgjsPath1610" d="M 0 0L 131 0L 131 27L 0 27Z" stroke="none" fill="none"></path><g id="SvgjsG1611"><text id="SvgjsText1612" font-family="微软雅黑" text-anchor="middle" font-size="15px" width="131px" fill="#323232" font-weight="700" align="middle" lineHeight="125%" anchor="middle" family="微软雅黑" size="15px" weight="700" font-style="" opacity="1" y="2.625" transform="rotate(0)"><tspan id="SvgjsTspan1613" dy="18" x="65.5"><tspan id="SvgjsTspan1614" style="text-decoration:;">用户进程</tspan></tspan></text></g></g><g id="SvgjsG1615" transform="translate(360.76249504089355,54.39685821533203)"><path id="SvgjsPath1616" d="M 0 0L 160 0L 160 41L 0 41Z" stroke="none" fill="none"></path><g id="SvgjsG1617"><text id="SvgjsText1618" font-family="微软雅黑" text-anchor="middle" font-size="15px" width="160px" fill="#323232" font-weight="700" align="middle" lineHeight="125%" anchor="middle" family="微软雅黑" size="15px" weight="700" font-style="" opacity="1" y="9.625" transform="rotate(0)"><tspan id="SvgjsTspan1619" dy="18" x="80"><tspan id="SvgjsTspan1620" style="text-decoration:;">内核</tspan></tspan></text></g></g><g id="SvgjsG1621"><path id="SvgjsPath1622" d="M401.26249504089355 292.89685821533203L327.1986031002481 292.89685821533203L327.1986031002481 292.89685821533203L265.195828374228 292.89685821533203" stroke="#323232" stroke-width="2" fill="none" marker-end="url(#SvgjsMarker1623)"></path></g><g id="SvgjsG1625" transform="translate(491.26249504089355,196.89685821533203)"><path id="SvgjsPath1626" d="M 0 100Q 9 100 9 91L 9 59Q 9 50 22 50Q 9 50 9 41L 9 9Q 9 0 0 0" stroke="rgba(50,50,50,1)" stroke-width="2" fill="none"></path><path id="SvgjsPath1627" d="M 0 0L 141 0L 141 100L 0 100Z" stroke="none" fill="none"></path><g id="SvgjsG1628"><text id="SvgjsText1629" font-family="微软雅黑" text-anchor="start" font-size="13px" width="114px" fill="#323232" font-weight="400" align="middle" lineHeight="125%" anchor="start" family="微软雅黑" size="13px" weight="400" font-style="" opacity="1" y="40.375" transform="rotate(0)"><tspan id="SvgjsTspan1630" dy="16" x="27"><tspan id="SvgjsTspan1631" style="text-decoration:;">拷贝数据</tspan></tspan></text></g></g><g id="SvgjsG1632" transform="translate(216.76249504089355,25.003089904785156)"><path id="SvgjsPath1633" d="M 0 0L 160 0L 160 36L 0 36Z" stroke="none" fill="none"></path><g id="SvgjsG1634"><text id="SvgjsText1635" font-family="微软雅黑" text-anchor="middle" font-size="17px" width="160px" fill="#323232" font-weight="700" align="middle" lineHeight="125%" anchor="middle" family="微软雅黑" size="17px" weight="700" font-style="" opacity="1" y="4.875" transform="rotate(0)"><tspan id="SvgjsTspan1636" dy="21" x="80"><tspan id="SvgjsTspan1637" style="text-decoration:;">异步IO</tspan></tspan></text></g></g></svg>