<svg id="SvgjsSvg1006" width="1332" height="298" xmlns="http://www.w3.org/2000/svg" version="1.1" xmlns:xlink="http://www.w3.org/1999/xlink" xmlns:svgjs="http://svgjs.com/svgjs"><defs id="SvgjsDefs1007"><marker id="SvgjsMarker1106" markerWidth="14" markerHeight="10" refX="10" refY="5" viewBox="0 0 14 10" orient="auto" markerUnits="userSpaceOnUse" stroke-dasharray="0,0"><path id="SvgjsPath1107" d="M0,0 L14,5 L0,10 L0,0" fill="#212121" stroke="#212121" stroke-width="1"></path></marker><marker id="SvgjsMarker1110" markerWidth="14" markerHeight="10" refX="10" refY="5" viewBox="0 0 14 10" orient="auto" markerUnits="userSpaceOnUse" stroke-dasharray="0,0"><path id="SvgjsPath1111" d="M0,0 L14,5 L0,10 L0,0" fill="#212121" stroke="#212121" stroke-width="1"></path></marker><marker id="SvgjsMarker1114" markerWidth="14" markerHeight="10" refX="10" refY="5" viewBox="0 0 14 10" orient="auto" markerUnits="userSpaceOnUse" stroke-dasharray="0,0"><path id="SvgjsPath1115" d="M0,0 L14,5 L0,10 L0,0" fill="#212121" stroke="#212121" stroke-width="1"></path></marker><marker id="SvgjsMarker1118" markerWidth="14" markerHeight="10" refX="10" refY="5" viewBox="0 0 14 10" orient="auto" markerUnits="userSpaceOnUse" stroke-dasharray="0,0"><path id="SvgjsPath1119" d="M0,0 L14,5 L0,10 L0,0" fill="#212121" stroke="#212121" stroke-width="1"></path></marker><marker id="SvgjsMarker1122" markerWidth="14" markerHeight="10" refX="10" refY="5" viewBox="0 0 14 10" orient="auto" markerUnits="userSpaceOnUse" stroke-dasharray="0,0"><path id="SvgjsPath1123" d="M0,0 L14,5 L0,10 L0,0" fill="#212121" stroke="#212121" stroke-width="1"></path></marker><marker id="SvgjsMarker1126" markerWidth="14" markerHeight="10" refX="10" refY="5" viewBox="0 0 14 10" orient="auto" markerUnits="userSpaceOnUse" stroke-dasharray="0,0"><path id="SvgjsPath1127" d="M0,0 L14,5 L0,10 L0,0" fill="#212121" stroke="#212121" stroke-width="1"></path></marker></defs><g id="SvgjsG1008" transform="translate(25.00173623221258,25.001746041434217)"><path id="SvgjsPath1009" d="M 0 4Q 0 0 4 0L 1278.721442086356 0Q 1282.721442086356 0 1282.721442086356 4L 1282.721442086356 244.57142857142856Q 1282.721442086356 248.57142857142856 1278.721442086356 248.57142857142856L 4 248.57142857142856Q 0 248.57142857142856 0 244.57142857142856Z" stroke="rgba(33,33,33,1)" stroke-width="2" fill-opacity="1" fill="#f5f5f5"></path><g id="SvgjsG1010"><text id="SvgjsText1011" font-family="微软雅黑" text-anchor="middle" font-size="19px" width="1263px" fill="#000000" font-weight="400" align="middle" lineHeight="125%" anchor="middle" family="微软雅黑" size="19px" weight="400" font-style="" opacity="1" y="109.91071428571428" transform="rotate(0)"></text></g></g><g id="SvgjsG1012" transform="translate(554.9435427318858,28.134361946052195)"><path id="SvgjsPath1013" d="M 0 0L 125.35686820389388 0L 125.35686820389388 24.153666110740353L 0 24.153666110740353Z" stroke="none" fill="none"></path><g id="SvgjsG1014"><text id="SvgjsText1015" font-family="微软雅黑" text-anchor="middle" font-size="19px" width="126px" fill="#000000" font-weight="400" align="middle" lineHeight="125%" anchor="middle" family="微软雅黑" size="19px" weight="400" font-style="" opacity="1" y="-2.2981669446298234" transform="rotate(0)"><tspan id="SvgjsTspan1016" dy="23" x="63"><tspan id="SvgjsTspan1017" style="text-decoration:;">Channel</tspan></tspan></text></g></g><g id="SvgjsG1018" transform="translate(69.53806303655551,65.01875044664303)"><path id="SvgjsPath1019" d="M 0 4Q 0 0 4 0L 1189.6487884776702 0Q 1193.6487884776702 0 1193.6487884776702 4L 1193.6487884776702 179.08604009127822Q 1193.6487884776702 183.08604009127822 1189.6487884776702 183.08604009127822L 4 183.08604009127822Q 0 183.08604009127822 0 179.08604009127822Z" stroke="rgba(33,33,33,1)" stroke-width="2" fill-opacity="1" fill="#f5f5f5"></path><g id="SvgjsG1020"><text id="SvgjsText1021" font-family="微软雅黑" text-anchor="middle" font-size="19px" width="1174px" fill="#000000" font-weight="400" align="middle" lineHeight="125%" anchor="middle" family="微软雅黑" size="19px" weight="400" font-style="" opacity="1" y="77.16802004563911" transform="rotate(0)"></text></g></g><g id="SvgjsG1022" transform="translate(532.0099266177276,72.34516563196257)"><path id="SvgjsPath1023" d="M 0 0L 171.22410043221169 0L 171.22410043221169 24.153666110740353L 0 24.153666110740353Z" stroke="none" fill="none"></path><g id="SvgjsG1024"><text id="SvgjsText1025" font-family="微软雅黑" text-anchor="middle" font-size="19px" width="172px" fill="#000000" font-weight="400" align="middle" lineHeight="125%" anchor="middle" family="微软雅黑" size="19px" weight="400" font-style="" opacity="1" y="-2.2981669446298234" transform="rotate(0)"><tspan id="SvgjsTspan1026" dy="23" x="86"><tspan id="SvgjsTspan1027" style="text-decoration:;">ChannelPipeline</tspan></tspan></text></g></g><g id="SvgjsG1028" transform="translate(105.89540395120048,125.4029266167654)"><path id="SvgjsPath1029" d="M 0 4Q 0 0 4 0L 223.65022443828144 0Q 227.65022443828144 0 227.65022443828144 4L 227.65022443828144 70.12676840882385Q 227.65022443828144 74.12676840882385 223.65022443828144 74.12676840882385L 4 74.12676840882385Q 0 74.12676840882385 0 70.12676840882385Z" stroke-dasharray="10,6" stroke="rgba(33,33,33,1)" stroke-width="2" fill-opacity="1" fill="#f5f5f5"></path><g id="SvgjsG1030"><text id="SvgjsText1031" font-family="微软雅黑" text-anchor="middle" font-size="19px" width="208px" fill="#000000" font-weight="400" align="middle" lineHeight="125%" anchor="middle" family="微软雅黑" size="19px" weight="400" font-style="" opacity="1" y="22.688384204411925" transform="rotate(0)"></text></g></g><g id="SvgjsG1032" transform="translate(124.86625598772389,135.8139895955328)"><path id="SvgjsPath1033" d="M 0 4Q 0 0 4 0L 185.70852036523453 0Q 189.70852036523453 0 189.70852036523453 4L 189.70852036523453 49.304642451289055Q 189.70852036523453 53.304642451289055 185.70852036523453 53.304642451289055L 4 53.304642451289055Q 0 53.304642451289055 0 49.304642451289055Z" stroke="rgba(33,33,33,1)" stroke-width="2" fill-opacity="1" fill="#f5f5f5"></path><g id="SvgjsG1034"><text id="SvgjsText1035" font-family="微软雅黑" text-anchor="middle" font-size="19px" width="170px" fill="#000000" font-weight="400" align="middle" lineHeight="125%" anchor="middle" family="微软雅黑" size="19px" weight="400" font-style="" opacity="1" y="12.277321225644528" transform="rotate(0)"><tspan id="SvgjsTspan1036" dy="23" x="95"><tspan id="SvgjsTspan1037" style="text-decoration:;">ChannelHandler</tspan></tspan></text></g></g><g id="SvgjsG1038" transform="translate(410.4019007425768,125.4029266167654)"><path id="SvgjsPath1039" d="M 0 4Q 0 0 4 0L 223.65022443828144 0Q 227.65022443828144 0 227.65022443828144 4L 227.65022443828144 70.12676840882385Q 227.65022443828144 74.12676840882385 223.65022443828144 74.12676840882385L 4 74.12676840882385Q 0 74.12676840882385 0 70.12676840882385Z" stroke-dasharray="10,6" stroke="rgba(33,33,33,1)" stroke-width="2" fill-opacity="1" fill="#f5f5f5"></path><g id="SvgjsG1040"><text id="SvgjsText1041" font-family="微软雅黑" text-anchor="middle" font-size="19px" width="208px" fill="#000000" font-weight="400" align="middle" lineHeight="125%" anchor="middle" family="微软雅黑" size="19px" weight="400" font-style="" opacity="1" y="22.688384204411925" transform="rotate(0)"></text></g></g><g id="SvgjsG1042" transform="translate(429.3727527791002,135.8139895955328)"><path id="SvgjsPath1043" d="M 0 4Q 0 0 4 0L 185.70852036523453 0Q 189.70852036523453 0 189.70852036523453 4L 189.70852036523453 49.304642451289055Q 189.70852036523453 53.304642451289055 185.70852036523453 53.304642451289055L 4 53.304642451289055Q 0 53.304642451289055 0 49.304642451289055Z" stroke="rgba(33,33,33,1)" stroke-width="2" fill-opacity="1" fill="#f5f5f5"></path><g id="SvgjsG1044"><text id="SvgjsText1045" font-family="微软雅黑" text-anchor="middle" font-size="19px" width="170px" fill="#000000" font-weight="400" align="middle" lineHeight="125%" anchor="middle" family="微软雅黑" size="19px" weight="400" font-style="" opacity="1" y="12.277321225644528" transform="rotate(0)"><tspan id="SvgjsTspan1046" dy="23" x="95"><tspan id="SvgjsTspan1047" style="text-decoration:;">ChannelHandler</tspan></tspan></text></g></g><g id="SvgjsG1048" transform="translate(711.0169407059484,125.4029266167654)"><path id="SvgjsPath1049" d="M 0 4Q 0 0 4 0L 223.65022443828144 0Q 227.65022443828144 0 227.65022443828144 4L 227.65022443828144 70.12676840882385Q 227.65022443828144 74.12676840882385 223.65022443828144 74.12676840882385L 4 74.12676840882385Q 0 74.12676840882385 0 70.12676840882385Z" stroke-dasharray="10,6" stroke="rgba(33,33,33,1)" stroke-width="2" fill-opacity="1" fill="#f5f5f5"></path><g id="SvgjsG1050"><text id="SvgjsText1051" font-family="微软雅黑" text-anchor="middle" font-size="19px" width="208px" fill="#000000" font-weight="400" align="middle" lineHeight="125%" anchor="middle" family="微软雅黑" size="19px" weight="400" font-style="" opacity="1" y="22.688384204411925" transform="rotate(0)"></text></g></g><g id="SvgjsG1052" transform="translate(729.9877927424718,135.8139895955328)"><path id="SvgjsPath1053" d="M 0 4Q 0 0 4 0L 185.70852036523453 0Q 189.70852036523453 0 189.70852036523453 4L 189.70852036523453 49.304642451289055Q 189.70852036523453 53.304642451289055 185.70852036523453 53.304642451289055L 4 53.304642451289055Q 0 53.304642451289055 0 49.304642451289055Z" stroke="rgba(33,33,33,1)" stroke-width="2" fill-opacity="1" fill="#f5f5f5"></path><g id="SvgjsG1054"><text id="SvgjsText1055" font-family="微软雅黑" text-anchor="middle" font-size="19px" width="170px" fill="#000000" font-weight="400" align="middle" lineHeight="125%" anchor="middle" family="微软雅黑" size="19px" weight="400" font-style="" opacity="1" y="12.277321225644528" transform="rotate(0)"><tspan id="SvgjsTspan1056" dy="23" x="95"><tspan id="SvgjsTspan1057" style="text-decoration:;">ChannelHandler</tspan></tspan></text></g></g><g id="SvgjsG1058" transform="translate(1003.8490670133106,125.4029266167654)"><path id="SvgjsPath1059" d="M 0 4Q 0 0 4 0L 223.65022443828144 0Q 227.65022443828144 0 227.65022443828144 4L 227.65022443828144 70.12676840882385Q 227.65022443828144 74.12676840882385 223.65022443828144 74.12676840882385L 4 74.12676840882385Q 0 74.12676840882385 0 70.12676840882385Z" stroke-dasharray="10,6" stroke="rgba(33,33,33,1)" stroke-width="2" fill-opacity="1" fill="#f5f5f5"></path><g id="SvgjsG1060"><text id="SvgjsText1061" font-family="微软雅黑" text-anchor="middle" font-size="19px" width="208px" fill="#000000" font-weight="400" align="middle" lineHeight="125%" anchor="middle" family="微软雅黑" size="19px" weight="400" font-style="" opacity="1" y="22.688384204411925" transform="rotate(0)"></text></g></g><g id="SvgjsG1062" transform="translate(1022.8199190498344,135.8139895955328)"><path id="SvgjsPath1063" d="M 0 4Q 0 0 4 0L 185.70852036523453 0Q 189.70852036523453 0 189.70852036523453 4L 189.70852036523453 49.304642451289055Q 189.70852036523453 53.304642451289055 185.70852036523453 53.304642451289055L 4 53.304642451289055Q 0 53.304642451289055 0 49.304642451289055Z" stroke="rgba(33,33,33,1)" stroke-width="2" fill-opacity="1" fill="#f5f5f5"></path><g id="SvgjsG1064"><text id="SvgjsText1065" font-family="微软雅黑" text-anchor="middle" font-size="19px" width="170px" fill="#000000" font-weight="400" align="middle" lineHeight="125%" anchor="middle" family="微软雅黑" size="19px" weight="400" font-style="" opacity="1" y="12.277321225644528" transform="rotate(0)"><tspan id="SvgjsTspan1066" dy="23" x="95"><tspan id="SvgjsTspan1067" style="text-decoration:;">ChannelHandler</tspan></tspan></text></g></g><g id="SvgjsG1068" transform="translate(178.37378737279005,94.58618019961432)"><path id="SvgjsPath1069" d="M 0 0L 82.69345759510223 0L 82.69345759510223 24.153666110740353L 0 24.153666110740353Z" stroke="none" fill="none"></path><g id="SvgjsG1070"><text id="SvgjsText1071" font-family="微软雅黑" text-anchor="middle" font-size="19px" width="83px" fill="#000000" font-weight="400" align="middle" lineHeight="125%" anchor="middle" family="微软雅黑" size="19px" weight="400" font-style="" opacity="1" y="-2.2981669446298234" transform="rotate(0)"><tspan id="SvgjsTspan1072" dy="23" x="41.5"><tspan id="SvgjsTspan1073" style="text-decoration:;">head</tspan></tspan></text></g></g><g id="SvgjsG1074" transform="translate(1076.3274504349001,94.58618019961432)"><path id="SvgjsPath1075" d="M 0 0L 82.69345759510223 0L 82.69345759510223 24.153666110740353L 0 24.153666110740353Z" stroke="none" fill="none"></path><g id="SvgjsG1076"><text id="SvgjsText1077" font-family="微软雅黑" text-anchor="middle" font-size="19px" width="83px" fill="#000000" font-weight="400" align="middle" lineHeight="125%" anchor="middle" family="微软雅黑" size="19px" weight="400" font-style="" opacity="1" y="-2.2981669446298234" transform="rotate(0)"><tspan id="SvgjsTspan1078" dy="23" x="41.5"><tspan id="SvgjsTspan1079" style="text-decoration:;">tail</tspan></tspan></text></g></g><g id="SvgjsG1080" transform="translate(87.41098401817749,211.19008556180916)"><path id="SvgjsPath1081" d="M 0 0L 264.61906430432714 0L 264.61906430432714 24.153666110740353L 0 24.153666110740353Z" stroke="none" fill="none"></path><g id="SvgjsG1082"><text id="SvgjsText1083" font-family="微软雅黑" text-anchor="middle" font-size="19px" width="265px" fill="#000000" font-weight="400" align="middle" lineHeight="125%" anchor="middle" family="微软雅黑" size="19px" weight="400" font-style="" opacity="1" y="-2.2981669446298234" transform="rotate(0)"><tspan id="SvgjsTspan1084" dy="23" x="132.5"><tspan id="SvgjsTspan1085" style="text-decoration:;">ChannelHandlerContext</tspan></tspan></text></g></g><g id="SvgjsG1086" transform="translate(391.91748080955404,211.1900855618087)"><path id="SvgjsPath1087" d="M 0 0L 264.61906430432714 0L 264.61906430432714 24.153666110740353L 0 24.153666110740353Z" stroke="none" fill="none"></path><g id="SvgjsG1088"><text id="SvgjsText1089" font-family="微软雅黑" text-anchor="middle" font-size="19px" width="265px" fill="#000000" font-weight="400" align="middle" lineHeight="125%" anchor="middle" family="微软雅黑" size="19px" weight="400" font-style="" opacity="1" y="-2.2981669446298234" transform="rotate(0)"><tspan id="SvgjsTspan1090" dy="23" x="132.5"><tspan id="SvgjsTspan1091" style="text-decoration:;">ChannelHandlerContext</tspan></tspan></text></g></g><g id="SvgjsG1092" transform="translate(697.3968418079317,211.1900855618087)"><path id="SvgjsPath1093" d="M 0 0L 254.89042223431514 0L 254.89042223431514 24.153666110740353L 0 24.153666110740353Z" stroke="none" fill="none"></path><g id="SvgjsG1094"><text id="SvgjsText1095" font-family="微软雅黑" text-anchor="middle" font-size="19px" width="255px" fill="#000000" font-weight="400" align="middle" lineHeight="125%" anchor="middle" family="微软雅黑" size="19px" weight="400" font-style="" opacity="1" y="-2.2981669446298234" transform="rotate(0)"><tspan id="SvgjsTspan1096" dy="23" x="127.5"><tspan id="SvgjsTspan1097" style="text-decoration:;">ChannelHandlerContext</tspan></tspan></text></g></g><g id="SvgjsG1098" transform="translate(990.2289681152943,211.1900855618087)"><path id="SvgjsPath1099" d="M 0 0L 254.89042223431514 0L 254.89042223431514 24.153666110740353L 0 24.153666110740353Z" stroke="none" fill="none"></path><g id="SvgjsG1100"><text id="SvgjsText1101" font-family="微软雅黑" text-anchor="middle" font-size="19px" width="255px" fill="#000000" font-weight="400" align="middle" lineHeight="125%" anchor="middle" family="微软雅黑" size="19px" weight="400" font-style="" opacity="1" y="-2.2981669446298234" transform="rotate(0)"><tspan id="SvgjsTspan1102" dy="23" x="127.5"><tspan id="SvgjsTspan1103" style="text-decoration:;">ChannelHandlerContext</tspan></tspan></text></g></g><g id="SvgjsG1104"><path id="SvgjsPath1105" d="M334.54562838948186 145.41627061115787L372.4107176249861 145.41627061115787L372.4107176249861 145.41627061115787L411.2758068604903 145.41627061115787" stroke="#212121" stroke-width="2" fill="none" marker-end="url(#SvgjsMarker1106)"></path></g><g id="SvgjsG1108"><path id="SvgjsPath1109" d="M409.4019007425768 177.50643454558394L375.1267227434473 177.50643454558394L375.1267227434473 177.50643454558394L339.8515447443183 177.50643454558394" stroke="#212121" stroke-width="2" fill="none" marker-end="url(#SvgjsMarker1110)"></path></g><g id="SvgjsG1112"><path id="SvgjsPath1113" d="M639.0521251808586 150.6235122263297L674.5345329434035 150.6235122263297L674.5345329434035 150.6235122263297L707.4169407059484 150.6235122263297" stroke="#212121" stroke-width="2" fill="none" marker-end="url(#SvgjsMarker1114)"></path></g><g id="SvgjsG1116"><path id="SvgjsPath1117" d="M710.0169407059484 179.79858911232895L677.3753536399499 179.79858911232895L677.3753536399499 179.79858911232895L643.7337665739515 179.79858911232895" stroke="#212121" stroke-width="2" fill="none" marker-end="url(#SvgjsMarker1118)"></path></g><g id="SvgjsG1120"><path id="SvgjsPath1121" d="M939.6671651442298 139.30385843317163L970.4193368213244 139.30385843317163L970.4193368213244 139.30385843317163L1002.1715084984189 139.30385843317163" stroke="#212121" stroke-width="2" fill="none" marker-end="url(#SvgjsMarker1122)"></path></g><g id="SvgjsG1124"><path id="SvgjsPath1125" d="M1002.8490670133106 178.12936702726665L971.2581160787704 178.12936702726665L971.2581160787704 178.12936702726665L942.2671651442298 178.12936702726665" stroke="#212121" stroke-width="2" fill="none" marker-end="url(#SvgjsMarker1126)"></path></g></svg>