<svg id="SvgjsSvg1006" width="658" height="845.2374954223633" xmlns="http://www.w3.org/2000/svg" version="1.1" xmlns:xlink="http://www.w3.org/1999/xlink" xmlns:svgjs="http://svgjs.com/svgjs"><defs id="SvgjsDefs1007"><marker id="SvgjsMarker1090" markerWidth="14" markerHeight="10" refX="10" refY="5" viewBox="0 0 14 10" orient="auto" markerUnits="userSpaceOnUse" stroke-dasharray="0,0"><path id="SvgjsPath1091" d="M0,0 L14,5 L0,10 L0,0" fill="#323232" stroke="#323232" stroke-width="1"></path></marker><marker id="SvgjsMarker1094" markerWidth="14" markerHeight="10" refX="10" refY="5" viewBox="0 0 14 10" orient="auto" markerUnits="userSpaceOnUse" stroke-dasharray="0,0"><path id="SvgjsPath1095" d="M0,0 L14,5 L0,10 L0,0" fill="#323232" stroke="#323232" stroke-width="1"></path></marker><marker id="SvgjsMarker1110" markerWidth="14" markerHeight="10" refX="10" refY="5" viewBox="0 0 14 10" orient="auto" markerUnits="userSpaceOnUse" stroke-dasharray="0,0"><path id="SvgjsPath1111" d="M0,0 L14,5 L0,10 L0,0" fill="#323232" stroke="#323232" stroke-width="1"></path></marker><marker id="SvgjsMarker1114" markerWidth="14" markerHeight="10" refX="10" refY="5" viewBox="0 0 14 10" orient="auto" markerUnits="userSpaceOnUse" stroke-dasharray="0,0"><path id="SvgjsPath1115" d="M0,0 L14,5 L0,10 L0,0" fill="#323232" stroke="#323232" stroke-width="1"></path></marker><marker id="SvgjsMarker1118" markerWidth="14" markerHeight="10" refX="10" refY="5" viewBox="0 0 14 10" orient="auto" markerUnits="userSpaceOnUse" stroke-dasharray="0,0"><path id="SvgjsPath1119" d="M0,0 L14,5 L0,10 L0,0" fill="#323232" stroke="#323232" stroke-width="1"></path></marker><marker id="SvgjsMarker1122" markerWidth="14" markerHeight="10" refX="10" refY="5" viewBox="0 0 14 10" orient="auto" markerUnits="userSpaceOnUse" stroke-dasharray="0,0"><path id="SvgjsPath1123" d="M0,0 L14,5 L0,10 L0,0" fill="#323232" stroke="#323232" stroke-width="1"></path></marker></defs><g id="SvgjsG1008" transform="translate(25.002582647861573,158.2423022343562)"><path id="SvgjsPath1009" d="M 0 4Q 0 0 4 0L 603.9640074640752 0Q 607.9640074640752 0 607.9640074640752 4L 607.9640074640752 657.2307739257812Q 607.9640074640752 661.2307739257812 603.9640074640752 661.2307739257812L 4 661.2307739257812Q 0 661.2307739257812 0 657.2307739257812Z" stroke="rgba(50,50,50,1)" stroke-width="2" fill-opacity="1" fill="#ffffff"></path><g id="SvgjsG1010"><text id="SvgjsText1011" font-family="微软雅黑" text-anchor="middle" font-size="19px" width="588px" fill="#323232" font-weight="700" align="top" lineHeight="125%" anchor="middle" family="微软雅黑" size="19px" weight="700" font-style="" opacity="1" y="-2.375" transform="rotate(0)"><tspan id="SvgjsTspan1012" dy="23" x="304"><tspan id="SvgjsTspan1013" style="text-decoration:;">JVM</tspan></tspan></text></g></g><g id="SvgjsG1014" transform="translate(414.90000915527344,25.011535351092988)"><path id="SvgjsPath1015" d="M 0 0L 134 0L 150 16L 150 89.42079749474252L 0 89.42079749474252L 0 0Z" stroke="none" fill-opacity="1" fill="#ffffaa"></path><path id="SvgjsPath1016" d="M 134 0L 134 16L 150 16Z" stroke="none" fill-opacity="1" fill="#cdcdcd"></path><path id="SvgjsPath1017" d="M 0 0L 134 0L 150 16L 150 89.42079749474252L 0 89.42079749474252L 0 0Z" stroke="none" fill="none"></path><g id="SvgjsG1018"><text id="SvgjsText1019" font-family="微软雅黑" text-anchor="middle" font-size="19px" width="130px" fill="#323232" font-weight="700" align="middle" lineHeight="125%" anchor="middle" family="微软雅黑" size="19px" weight="700" font-style="" opacity="1" y="30.335398747371258" transform="rotate(0)"><tspan id="SvgjsTspan1020" dy="23" x="75"><tspan id="SvgjsTspan1021" style="text-decoration:;">Car.class</tspan></tspan></text></g></g><g id="SvgjsG1022" transform="translate(78.7358302711915,360.27848669198835)"><path id="SvgjsPath1023" d="M 0 4Q 0 0 4 0L 496.49751221741514 0Q 500.49751221741514 0 500.49751221741514 4L 500.49751221741514 417.96381319486187Q 500.49751221741514 421.96381319486187 496.49751221741514 421.96381319486187L 4 421.96381319486187Q 0 421.96381319486187 0 417.96381319486187Z" stroke="rgba(50,50,50,1)" stroke-width="2" fill-opacity="1" fill="#ccffff"></path><g id="SvgjsG1024"><text id="SvgjsText1025" font-family="微软雅黑" text-anchor="middle" font-size="19px" width="481px" fill="#323232" font-weight="700" align="top" lineHeight="125%" anchor="middle" family="微软雅黑" size="19px" weight="700" font-style="" opacity="1" y="-2.375" transform="rotate(0)"><tspan id="SvgjsTspan1026" dy="23" x="250.5"><tspan id="SvgjsTspan1027" style="text-decoration:;">堆</tspan></tspan></text></g></g><g id="SvgjsG1028" transform="translate(241.90000915527344,578.2784866919881)"><path id="SvgjsPath1029" d="M 0 4Q 0 0 4 0L 196 0Q 200 0 200 4L 200 163.9638167161212Q 200 167.9638167161212 196 167.9638167161212L 4 167.9638167161212Q 0 167.9638167161212 0 163.9638167161212Z" stroke-dasharray="10,6" stroke="rgba(50,50,50,1)" stroke-width="2" fill-opacity="1" fill="#ff66b3"></path><g id="SvgjsG1030"><text id="SvgjsText1031" font-family="微软雅黑" text-anchor="middle" font-size="19px" width="180px" fill="#323232" font-weight="700" align="middle" lineHeight="125%" anchor="middle" family="微软雅黑" size="19px" weight="700" font-style="" opacity="1" y="69.6069083580606" transform="rotate(0)"></text></g></g><g id="SvgjsG1032" transform="translate(274.89196079627516,578.2784866919881)"><path id="SvgjsPath1033" d="M 0 0L 120 0L 120 40L 0 40Z" stroke="none" fill="none"></path><g id="SvgjsG1034"><text id="SvgjsText1035" font-family="微软雅黑" text-anchor="middle" font-size="19px" width="120px" fill="#323232" font-weight="700" align="middle" lineHeight="125%" anchor="middle" family="微软雅黑" size="19px" weight="700" font-style="" opacity="1" y="5.625" transform="rotate(0)"><tspan id="SvgjsTspan1036" dy="23" x="60"><tspan id="SvgjsTspan1037" style="text-decoration:;">car实例</tspan></tspan></text></g></g><g id="SvgjsG1038" transform="translate(266.90000915527344,618.2784866919881)"><path id="SvgjsPath1039" d="M 0 4Q 0 0 4 0L 146 0Q 150 0 150 4L 150 26Q 150 30 146 30L 4 30Q 0 30 0 26Z" stroke="rgba(50,50,50,1)" stroke-width="2" fill-opacity="1" fill="#ffffff"></path><g id="SvgjsG1040"><text id="SvgjsText1041" font-family="微软雅黑" text-anchor="middle" font-size="19px" width="130px" fill="#323232" font-weight="700" align="middle" lineHeight="125%" anchor="middle" family="微软雅黑" size="19px" weight="700" font-style="" opacity="1" y="0.625" transform="rotate(0)"><tspan id="SvgjsTspan1042" dy="23" x="75"><tspan id="SvgjsTspan1043" style="text-decoration:;">car 1</tspan></tspan></text></g></g><g id="SvgjsG1044" transform="translate(266.90000915527344,656.2784866919881)"><path id="SvgjsPath1045" d="M 0 4Q 0 0 4 0L 146 0Q 150 0 150 4L 150 26Q 150 30 146 30L 4 30Q 0 30 0 26Z" stroke="rgba(50,50,50,1)" stroke-width="2" fill-opacity="1" fill="#ffffff"></path><g id="SvgjsG1046"><text id="SvgjsText1047" font-family="微软雅黑" text-anchor="middle" font-size="19px" width="130px" fill="#323232" font-weight="700" align="middle" lineHeight="125%" anchor="middle" family="微软雅黑" size="19px" weight="700" font-style="" opacity="1" y="0.625" transform="rotate(0)"><tspan id="SvgjsTspan1048" dy="23" x="75"><tspan id="SvgjsTspan1049" style="text-decoration:;">car 2</tspan></tspan></text></g></g><g id="SvgjsG1050" transform="translate(266.90000915527344,696.2784866919881)"><path id="SvgjsPath1051" d="M 0 4Q 0 0 4 0L 146 0Q 150 0 150 4L 150 26Q 150 30 146 30L 4 30Q 0 30 0 26Z" stroke="rgba(50,50,50,1)" stroke-width="2" fill-opacity="1" fill="#ffffff"></path><g id="SvgjsG1052"><text id="SvgjsText1053" font-family="微软雅黑" text-anchor="middle" font-size="19px" width="130px" fill="#323232" font-weight="700" align="middle" lineHeight="125%" anchor="middle" family="微软雅黑" size="19px" weight="700" font-style="" opacity="1" y="0.625" transform="rotate(0)"><tspan id="SvgjsTspan1054" dy="23" x="75"><tspan id="SvgjsTspan1055" style="text-decoration:;">car 3</tspan></tspan></text></g></g><g id="SvgjsG1056" transform="translate(119.90000915527344,315.54999923706055)"><path id="SvgjsPath1057" d="M 0 0L 120 0L 120 40L 0 40Z" stroke="none" fill="none"></path><g id="SvgjsG1058"><text id="SvgjsText1059" font-family="微软雅黑" text-anchor="middle" font-size="19px" width="120px" fill="#323232" font-weight="700" align="middle" lineHeight="125%" anchor="middle" family="微软雅黑" size="19px" weight="700" font-style="" opacity="1" y="5.625" transform="rotate(0)"><tspan id="SvgjsTspan1060" dy="23" x="60"><tspan id="SvgjsTspan1061" style="text-decoration:;">加载并初始化</tspan></tspan></text></g></g><g id="SvgjsG1062" transform="translate(399.5270484989402,315.54999923706055)"><path id="SvgjsPath1063" d="M 0 0L 180.7459213126665 0L 180.7459213126665 40L 0 40Z" stroke="none" fill="none"></path><g id="SvgjsG1064"><text id="SvgjsText1065" font-family="微软雅黑" text-anchor="middle" font-size="19px" width="181px" fill="#323232" font-weight="700" align="middle" lineHeight="125%" anchor="middle" family="微软雅黑" size="19px" weight="700" font-style="" opacity="1" y="5.625" transform="rotate(0)"><tspan id="SvgjsTspan1066" dy="23" x="90.5"><tspan id="SvgjsTspan1067" style="text-decoration:;">getClassLoader()</tspan></tspan></text></g></g><g id="SvgjsG1068" transform="translate(134.34657209347432,520.7400251535269)"><path id="SvgjsPath1069" d="M 0 0L 120 0L 120 40L 0 40Z" stroke="none" fill="none"></path><g id="SvgjsG1070"><text id="SvgjsText1071" font-family="微软雅黑" text-anchor="middle" font-size="19px" width="120px" fill="#323232" font-weight="700" align="middle" lineHeight="125%" anchor="middle" family="微软雅黑" size="19px" weight="700" font-style="" opacity="1" y="5.625" transform="rotate(0)"><tspan id="SvgjsTspan1072" dy="23" x="60"><tspan id="SvgjsTspan1073" style="text-decoration:;">实例化</tspan></tspan></text></g></g><g id="SvgjsG1074" transform="translate(421.90000915527344,520.7400251535269)"><path id="SvgjsPath1075" d="M 0 0L 120 0L 120 40L 0 40Z" stroke="none" fill="none"></path><g id="SvgjsG1076"><text id="SvgjsText1077" font-family="微软雅黑" text-anchor="middle" font-size="19px" width="120px" fill="#323232" font-weight="700" align="middle" lineHeight="125%" anchor="middle" family="微软雅黑" size="19px" weight="700" font-style="" opacity="1" y="5.625" transform="rotate(0)"><tspan id="SvgjsTspan1078" dy="23" x="60"><tspan id="SvgjsTspan1079" style="text-decoration:;">getClass()</tspan></tspan></text></g></g><g id="SvgjsG1080" transform="translate(81.90000915527344,200.04999923706055)"><path id="SvgjsPath1081" d="M 0 4Q 0 0 4 0L 192 0Q 196 0 196 4L 196 81Q 196 85 192 85L 4 85Q 0 85 0 81Z" stroke="rgba(50,50,50,1)" stroke-width="2" fill-opacity="1" fill="#bbdefb"></path><g id="SvgjsG1082"><text id="SvgjsText1083" font-family="微软雅黑" text-anchor="middle" font-size="19px" width="176px" fill="#323232" font-weight="700" align="middle" lineHeight="125%" anchor="middle" family="微软雅黑" size="19px" weight="700" font-style="" opacity="1" y="16.625" transform="rotate(0)"><tspan id="SvgjsTspan1084" dy="23" x="98"><tspan id="SvgjsTspan1085" style="text-decoration:;">方法区</tspan></tspan><tspan id="SvgjsTspan1086" dy="23" x="98"><tspan id="SvgjsTspan1087" style="text-decoration:;">字节码</tspan></tspan></text></g></g><g id="SvgjsG1088"><path id="SvgjsPath1089" d="M394.89196079627527 241.14501454279986C 346.67380531515505 241.14501454279986 323.46412110940025 241.93461227416992 281.49963072606533 242.49780204279176" stroke="#323232" stroke-width="2" fill="none" marker-end="url(#SvgjsMarker1090)"></path></g><g id="SvgjsG1092"><path id="SvgjsPath1093" d="M489.9000091552733 114.4323328458355C 485.73276918198724 148.32860949226182 486.4153168598822 165.2721662668086 486.87034864514555 199.1653885474573" stroke="#323232" stroke-width="2" fill="none" marker-end="url(#SvgjsMarker1094)"></path></g><g id="SvgjsG1096" transform="translate(383.90000915527344,200.04999923706055)"><path id="SvgjsPath1097" d="M 0 4Q 0 0 4 0L 192 0Q 196 0 196 4L 196 81Q 196 85 192 85L 4 85Q 0 85 0 81Z" stroke="rgba(50,50,50,1)" stroke-width="2" fill-opacity="1" fill="#bbdefb"></path><g id="SvgjsG1098"><text id="SvgjsText1099" font-family="微软雅黑" text-anchor="middle" font-size="19px" width="176px" fill="#323232" font-weight="700" align="middle" lineHeight="125%" anchor="middle" family="微软雅黑" size="19px" weight="700" font-style="" opacity="1" y="28.125" transform="rotate(0)"><tspan id="SvgjsTspan1100" dy="23" x="98"><tspan id="SvgjsTspan1101" style="text-decoration:;">类加载器</tspan></tspan></text></g></g><g id="SvgjsG1102" transform="translate(266.90000915527344,422.04999923706055)"><path id="SvgjsPath1103" d="M 0 4Q 0 0 4 0L 146 0Q 150 0 150 4L 150 81Q 150 85 146 85L 4 85Q 0 85 0 81Z" stroke="rgba(50,50,50,1)" stroke-width="2" fill-opacity="1" fill="#bbdefb"></path><g id="SvgjsG1104"><text id="SvgjsText1105" font-family="微软雅黑" text-anchor="middle" font-size="19px" width="130px" fill="#323232" font-weight="700" align="middle" lineHeight="125%" anchor="middle" family="微软雅黑" size="19px" weight="700" font-style="" opacity="1" y="28.125" transform="rotate(0)"><tspan id="SvgjsTspan1106" dy="23" x="75"><tspan id="SvgjsTspan1107" style="text-decoration:;">Car Class实例</tspan></tspan></text></g></g><g id="SvgjsG1108"><path id="SvgjsPath1109" d="M417.89589299212753 464.4593604843509C 491.3022656885581 464.5499992370605 481.23334248860704 361.6189224370116 481.8946019407182 288.6499951762292" stroke-dasharray="8,5" stroke="#323232" stroke-width="2" fill="none" marker-end="url(#SvgjsMarker1110)"></path></g><g id="SvgjsG1112"><path id="SvgjsPath1113" d="M442.88813061477447 662.1067201292789C 521.7542987634836 662.2603950500486 494.5619816811519 464.5499992370605 420.45845261772547 465.0954166226768" stroke-dasharray="8,5" stroke="#323232" stroke-width="2" fill="none" marker-end="url(#SvgjsMarker1114)"></path></g><g id="SvgjsG1116"><path id="SvgjsPath1117" d="M265.91075116955005 464.69617939194677C 186.07787801472472 464.54999923706055 162.2701950970564 662.2603950500486 238.3427941175986 661.7070225030787" stroke="#323232" stroke-width="2" fill="none" marker-end="url(#SvgjsMarker1118)"></path></g><g id="SvgjsG1120"><path id="SvgjsPath1121" d="M179.87084103736635 286.0495737569928C 176.7358302711915 365.19068271893656 185.59265900673057 464.54999923706055 263.3102930217914 464.27808366005445" stroke="#323232" stroke-width="2" fill="none" marker-end="url(#SvgjsMarker1122)"></path></g></svg>