<svg id="SvgjsSvg1074" width="1107.5999755859375" height="192" xmlns="http://www.w3.org/2000/svg" version="1.1" xmlns:xlink="http://www.w3.org/1999/xlink" xmlns:svgjs="http://svgjs.com/svgjs"><defs id="SvgjsDefs1075"><marker id="SvgjsMarker1120" markerWidth="14" markerHeight="10" refX="10" refY="5" viewBox="0 0 14 10" orient="auto" markerUnits="userSpaceOnUse" stroke-dasharray="0,0"><path id="SvgjsPath1121" d="M0,0 L14,5 L0,10 L0,0" fill="#323232" stroke="#323232" stroke-width="1"></path></marker><marker id="SvgjsMarker1128" markerWidth="14" markerHeight="10" refX="10" refY="5" viewBox="0 0 14 10" orient="auto" markerUnits="userSpaceOnUse" stroke-dasharray="0,0"><path id="SvgjsPath1129" d="M0,0 L14,5 L0,10 L0,0" fill="#323232" stroke="#323232" stroke-width="1"></path></marker><marker id="SvgjsMarker1136" markerWidth="14" markerHeight="10" refX="10" refY="5" viewBox="0 0 14 10" orient="auto" markerUnits="userSpaceOnUse" stroke-dasharray="0,0"><path id="SvgjsPath1137" d="M0,0 L14,5 L0,10 L0,0" fill="#323232" stroke="#323232" stroke-width="1"></path></marker></defs><g id="SvgjsG1076" transform="translate(236.92179528325659,25.01245880126953)"><path id="SvgjsPath1077" d="M 0 4Q 0 0 4 0L 212.0639918279744 0Q 216.0639918279744 0 216.0639918279744 4L 216.0639918279744 139Q 216.0639918279744 143 212.0639918279744 143L 4 143Q 0 143 0 139Z" stroke="rgba(50,50,50,1)" stroke-width="2" fill-opacity="1" fill="#f5f5f5"></path><g id="SvgjsG1078"><text id="SvgjsText1079" font-family="微软雅黑" text-anchor="middle" font-size="15px" width="197px" fill="#323232" font-weight="700" align="top" lineHeight="125%" anchor="middle" family="微软雅黑" size="15px" weight="700" font-style="" opacity="1" y="-1.875" transform="rotate(0)"><tspan id="SvgjsTspan1080" dy="18" x="108.5"><tspan id="SvgjsTspan1081" style="text-decoration:;">内核空间</tspan></tspan></text></g></g><g id="SvgjsG1082" transform="translate(573.610469665499,25.01245880126953)"><path id="SvgjsPath1083" d="M 0 4Q 0 0 4 0L 505.3770181274698 0Q 509.3770181274698 0 509.3770181274698 4L 509.3770181274698 136.91488745163178Q 509.3770181274698 140.91488745163178 505.3770181274698 140.91488745163178L 4 140.91488745163178Q 0 140.91488745163178 0 136.91488745163178Z" stroke="rgba(50,50,50,1)" stroke-width="2" fill-opacity="1" fill="#f5f5f5"></path><g id="SvgjsG1084"><text id="SvgjsText1085" font-family="微软雅黑" text-anchor="middle" font-size="15px" width="490px" fill="#323232" font-weight="700" align="top" lineHeight="125%" anchor="middle" family="微软雅黑" size="15px" weight="700" font-style="" opacity="1" y="-1.875" transform="rotate(0)"><tspan id="SvgjsTspan1086" dy="18" x="255"><tspan id="SvgjsTspan1087" style="text-decoration:;">用户空间</tspan></tspan></text></g></g><g id="SvgjsG1088" transform="translate(25.009689331054688,66.96990252708542)"><path id="SvgjsPath1089" d="M 0 4Q 0 0 4 0L 95 0Q 99 0 99 4L 99 53Q 99 57 95 57L 4 57Q 0 57 0 53Z" stroke="rgba(50,50,50,1)" stroke-width="2" fill-opacity="1" fill="#f5f5f5"></path><g id="SvgjsG1090"><text id="SvgjsText1091" font-family="微软雅黑" text-anchor="middle" font-size="15px" width="79px" fill="#323232" font-weight="700" align="middle" lineHeight="125%" anchor="middle" family="微软雅黑" size="15px" weight="700" font-style="" opacity="1" y="17.625" transform="rotate(0)"><tspan id="SvgjsTspan1092" dy="18" x="49.5"><tspan id="SvgjsTspan1093" style="text-decoration:;">网卡</tspan></tspan></text></g></g><g id="SvgjsG1094" transform="translate(292.8613263575956,66.96990252708542)"><path id="SvgjsPath1095" d="M 0 4Q 0 0 4 0L 95 0Q 99 0 99 4L 99 53Q 99 57 95 57L 4 57Q 0 57 0 53Z" stroke="rgba(50,50,50,1)" stroke-width="2" fill-opacity="1" fill="#f5f5f5"></path><g id="SvgjsG1096"><text id="SvgjsText1097" font-family="微软雅黑" text-anchor="middle" font-size="15px" width="79px" fill="#323232" font-weight="700" align="middle" lineHeight="125%" anchor="middle" family="微软雅黑" size="15px" weight="700" font-style="" opacity="1" y="17.625" transform="rotate(0)"><tspan id="SvgjsTspan1098" dy="18" x="49.5"><tspan id="SvgjsTspan1099" style="text-decoration:;">内核缓冲区</tspan></tspan></text></g></g><g id="SvgjsG1100" transform="translate(607.8666935023554,66.96990252708542)"><path id="SvgjsPath1101" d="M 0 4Q 0 0 4 0L 95 0Q 99 0 99 4L 99 53Q 99 57 95 57L 4 57Q 0 57 0 53Z" stroke="rgba(50,50,50,1)" stroke-width="2" fill-opacity="1" fill="#f5f5f5"></path><g id="SvgjsG1102"><text id="SvgjsText1103" font-family="微软雅黑" text-anchor="middle" font-size="15px" width="79px" fill="#323232" font-weight="700" align="middle" lineHeight="125%" anchor="middle" family="微软雅黑" size="15px" weight="700" font-style="" opacity="1" y="17.625" transform="rotate(0)"><tspan id="SvgjsTspan1104" dy="18" x="49.5"><tspan id="SvgjsTspan1105" style="text-decoration:;">本地内存</tspan></tspan></text></g></g><g id="SvgjsG1106" transform="translate(877.8571949523271,48.99986222549137)"><path id="SvgjsPath1107" d="M 0 4Q 0 0 4 0L 162.89789352306116 0Q 166.89789352306116 0 166.89789352306116 4L 166.89789352306116 88.94008060318811Q 166.89789352306116 92.94008060318811 162.89789352306116 92.94008060318811L 4 92.94008060318811Q 0 92.94008060318811 0 88.94008060318811Z" stroke="rgba(50,50,50,1)" stroke-width="2" fill-opacity="1" fill="#f5f5f5"></path><g id="SvgjsG1108"><text id="SvgjsText1109" font-family="微软雅黑" text-anchor="middle" font-size="15px" width="147px" fill="#323232" font-weight="700" align="top" lineHeight="125%" anchor="middle" family="微软雅黑" size="15px" weight="700" font-style="" opacity="1" y="-1.875" transform="rotate(0)"><tspan id="SvgjsTspan1110" dy="18" x="83.5"><tspan id="SvgjsTspan1111" style="text-decoration:;">JVM</tspan></tspan></text></g></g><g id="SvgjsG1112" transform="translate(922.8720606471152,72.96433306189363)"><path id="SvgjsPath1113" d="M 0 4Q 0 0 4 0L 72.86816213348493 0Q 76.86816213348493 0 76.86816213348493 4L 76.86816213348493 41.011138930383595Q 76.86816213348493 45.011138930383595 72.86816213348493 45.011138930383595L 4 45.011138930383595Q 0 45.011138930383595 0 41.011138930383595Z" stroke="rgba(50,50,50,1)" stroke-width="2" fill-opacity="1" fill="#f5f5f5"></path><g id="SvgjsG1114"><text id="SvgjsText1115" font-family="微软雅黑" text-anchor="middle" font-size="15px" width="57px" fill="#323232" font-weight="700" align="middle" lineHeight="125%" anchor="middle" family="微软雅黑" size="15px" weight="700" font-style="" opacity="1" y="11.630569465191797" transform="rotate(0)"><tspan id="SvgjsTspan1116" dy="18" x="38.5"><tspan id="SvgjsTspan1117" style="text-decoration:;">堆</tspan></tspan></text></g></g><g id="SvgjsG1118"><path id="SvgjsPath1119" d="M707.8666935023554 95.46990252708525L814.8693770747352 95.46990252708525L814.8693770747352 95.46990252708525L919.2720606471152 95.46990252708525" stroke="#323232" stroke-width="2" fill="none" marker-end="url(#SvgjsMarker1120)"></path><rect id="SvgjsRect1122" width="67" height="16" x="780.0693770747353" y="87.46990252708525" fill="#ffffff"></rect><text id="SvgjsText1123" font-family="微软雅黑" text-anchor="middle" font-size="13px" width="67px" fill="#323232" font-weight="700" align="top" lineHeight="16px" anchor="middle" family="微软雅黑" size="13px" weight="700" font-style="" opacity="1" y="85.84490252708525" transform="rotate(0)"><tspan id="SvgjsTspan1124" dy="16" x="813.5693770747353"><tspan id="SvgjsTspan1125" style="text-decoration:;">CPU COPY</tspan></tspan></text></g><g id="SvgjsG1126"><path id="SvgjsPath1127" d="M392.8613263575956 95.46990252708537L499.72241970145103 95.46990252708537L499.72241970145103 95.46990252708537L604.2666935023553 95.46990252708537" stroke="#323232" stroke-width="2" fill="none" marker-end="url(#SvgjsMarker1128)"></path><rect id="SvgjsRect1130" width="67" height="16" x="465.0640099299755" y="87.46990252708537" fill="#ffffff"></rect><text id="SvgjsText1131" font-family="微软雅黑" text-anchor="middle" font-size="13px" width="67px" fill="#323232" font-weight="700" align="top" lineHeight="16px" anchor="middle" family="微软雅黑" size="13px" weight="700" font-style="" opacity="1" y="85.84490252708537" transform="rotate(0)"><tspan id="SvgjsTspan1132" dy="16" x="498.5640099299755"><tspan id="SvgjsTspan1133" style="text-decoration:;">CPU COPY</tspan></tspan></text></g><g id="SvgjsG1134"><path id="SvgjsPath1135" d="M125.00968933105469 95.46990252708537L208.29391761580075 95.46990252708537L208.29391761580075 95.46990252708537L289.2613263575956 95.46990252708537" stroke="#323232" stroke-width="2" fill="none" marker-end="url(#SvgjsMarker1136)"></path><rect id="SvgjsRect1138" width="34" height="16" x="190.13550784432513" y="87.46990252708537" fill="#ffffff"></rect><text id="SvgjsText1139" font-family="微软雅黑" text-anchor="middle" font-size="13px" width="34px" fill="#323232" font-weight="700" align="top" lineHeight="16px" anchor="middle" family="微软雅黑" size="13px" weight="700" font-style="" opacity="1" y="85.84490252708537" transform="rotate(0)"><tspan id="SvgjsTspan1140" dy="16" x="207.13550784432513"><tspan id="SvgjsTspan1141" style="text-decoration:;">DMA</tspan></tspan></text></g></svg>