<svg id="SvgjsSvg1271" width="1167.362548828125" height="1291.0500030517578" xmlns="http://www.w3.org/2000/svg" version="1.1" xmlns:xlink="http://www.w3.org/1999/xlink" xmlns:svgjs="http://svgjs.com/svgjs"><defs id="SvgjsDefs1272"><marker id="SvgjsMarker1345" markerWidth="14" markerHeight="10" refX="10" refY="5" viewBox="0 0 14 10" orient="auto" markerUnits="userSpaceOnUse" stroke-dasharray="0,0"><path id="SvgjsPath1346" d="M0,0 L14,5 L0,10 L0,0" fill="#000000" stroke="#000000" stroke-width="1"></path></marker><marker id="SvgjsMarker1407" markerWidth="14" markerHeight="10" refX="10" refY="5" viewBox="0 0 14 10" orient="auto" markerUnits="userSpaceOnUse" stroke-dasharray="0,0"><path id="SvgjsPath1408" d="M0,0 L14,5 L0,10 L0,0" fill="#000000" stroke="#000000" stroke-width="1"></path></marker><marker id="SvgjsMarker1447" markerWidth="14" markerHeight="10" refX="10" refY="5" viewBox="0 0 14 10" orient="auto" markerUnits="userSpaceOnUse" stroke-dasharray="0,0"><path id="SvgjsPath1448" d="M0,0 L14,5 L0,10 L0,0" fill="#000000" stroke="#000000" stroke-width="1"></path></marker><marker id="SvgjsMarker1517" markerWidth="14" markerHeight="10" refX="10" refY="5" viewBox="0 0 14 10" orient="auto" markerUnits="userSpaceOnUse" stroke-dasharray="0,0"><path id="SvgjsPath1518" d="M0,0 L14,5 L0,10 L0,0" fill="#000000" stroke="#000000" stroke-width="1"></path></marker><marker id="SvgjsMarker1521" markerWidth="14" markerHeight="10" refX="10" refY="5" viewBox="0 0 14 10" orient="auto" markerUnits="userSpaceOnUse" stroke-dasharray="0,0"><path id="SvgjsPath1522" d="M0,0 L14,5 L0,10 L0,0" fill="#323232" stroke="#323232" stroke-width="1"></path></marker><marker id="SvgjsMarker1525" markerWidth="14" markerHeight="10" refX="10" refY="5" viewBox="0 0 14 10" orient="auto" markerUnits="userSpaceOnUse" stroke-dasharray="0,0"><path id="SvgjsPath1526" d="M0,0 L14,5 L0,10 L0,0" fill="#323232" stroke="#323232" stroke-width="1"></path></marker><marker id="SvgjsMarker1529" markerWidth="14" markerHeight="10" refX="10" refY="5" viewBox="0 0 14 10" orient="auto" markerUnits="userSpaceOnUse" stroke-dasharray="0,0"><path id="SvgjsPath1530" d="M0,0 L14,5 L0,10 L0,0" fill="#323232" stroke="#323232" stroke-width="1"></path></marker><marker id="SvgjsMarker1533" markerWidth="14" markerHeight="10" refX="10" refY="5" viewBox="0 0 14 10" orient="auto" markerUnits="userSpaceOnUse" stroke-dasharray="0,0"><path id="SvgjsPath1534" d="M0,0 L14,5 L0,10 L0,0" fill="#323232" stroke="#323232" stroke-width="1"></path></marker></defs><g id="SvgjsG1273" transform="translate(49.58813825755851,224.99391252300427)"><path id="SvgjsPath1274" d="M 0 4Q 0 0 4 0L 445.6954334216705 0Q 449.6954334216705 0 449.6954334216705 4L 449.6954334216705 221.39599222820902Q 449.6954334216705 225.39599222820902 445.6954334216705 225.39599222820902L 4 225.39599222820902Q 0 225.39599222820902 0 221.39599222820902Z" stroke-dasharray="10,6" stroke="rgba(0,0,0,1)" stroke-width="2" fill-opacity="1" fill="#f5f5f5"></path><g id="SvgjsG1275"><text id="SvgjsText1276" font-family="微软雅黑" text-anchor="middle" font-size="23px" width="430px" fill="#212121" font-weight="400" align="middle" lineHeight="125%" anchor="middle" family="微软雅黑" size="23px" weight="400" font-style="" opacity="1" y="93.32299611410451" transform="rotate(0)"></text></g></g><g id="SvgjsG1277" transform="translate(70.81627513968772,296.78451787887343)"><path id="SvgjsPath1278" d="M 0 4Q 0 0 4 0L 405 0Q 409 0 409 4L 409 128Q 409 132 405 132L 4 132Q 0 132 0 128Z" stroke="rgba(0,0,0,1)" stroke-width="2" fill-opacity="1" fill="#f5f5f5"></path><g id="SvgjsG1279"><text id="SvgjsText1280" font-family="微软雅黑" text-anchor="middle" font-size="23px" width="389px" fill="#212121" font-weight="400" align="middle" lineHeight="125%" anchor="middle" family="微软雅黑" size="23px" weight="400" font-style="" opacity="1" y="46.625" transform="rotate(0)"></text></g></g><g id="SvgjsG1281" transform="translate(101.0267640593031,349.9939125230042)"><path id="SvgjsPath1282" d="M 0 4Q 0 0 4 0L 163 0Q 167 0 167 4L 167 58Q 167 62 163 62L 4 62Q 0 62 0 58Z" stroke="rgba(0,0,0,1)" stroke-width="2" fill-opacity="1" fill="#f5f5f5"></path><g id="SvgjsG1283"><text id="SvgjsText1284" font-family="微软雅黑" text-anchor="middle" font-size="23px" width="147px" fill="#212121" font-weight="400" align="middle" lineHeight="125%" anchor="middle" family="微软雅黑" size="23px" weight="400" font-style="" opacity="1" y="11.625" transform="rotate(0)"><tspan id="SvgjsTspan1285" dy="28" x="83.5"><tspan id="SvgjsTspan1286" style="text-decoration:;">Selector</tspan></tspan></text></g></g><g id="SvgjsG1287" transform="translate(284.93585496839376,349.9939125230042)"><path id="SvgjsPath1288" d="M 0 4Q 0 0 4 0L 163 0Q 167 0 167 4L 167 58Q 167 62 163 62L 4 62Q 0 62 0 58Z" stroke="rgba(0,0,0,1)" stroke-width="2" fill-opacity="1" fill="#f5f5f5"></path><g id="SvgjsG1289"><text id="SvgjsText1290" font-family="微软雅黑" text-anchor="middle" font-size="23px" width="147px" fill="#212121" font-weight="400" align="middle" lineHeight="125%" anchor="middle" family="微软雅黑" size="23px" weight="400" font-style="" opacity="1" y="11.625" transform="rotate(0)"><tspan id="SvgjsTspan1291" dy="28" x="83.5"><tspan id="SvgjsTspan1292" style="text-decoration:;">TaskQueue</tspan></tspan></text></g></g><g id="SvgjsG1293" transform="translate(200.0267640593031,300.99391252300427)"><path id="SvgjsPath1294" d="M 0 0L 167 0L 167 34L 0 34Z" stroke="none" fill="none"></path><g id="SvgjsG1295"><text id="SvgjsText1296" font-family="微软雅黑" text-anchor="middle" font-size="23px" width="167px" fill="#212121" font-weight="400" align="middle" lineHeight="125%" anchor="middle" family="微软雅黑" size="23px" weight="400" font-style="" opacity="1" y="-2.375" transform="rotate(0)"><tspan id="SvgjsTspan1297" dy="28" x="83.5"><tspan id="SvgjsTspan1298" style="text-decoration:;">NioEventLoop</tspan></tspan></text></g></g><g id="SvgjsG1299" transform="translate(200.0267640593031,228.99391252300427)"><path id="SvgjsPath1300" d="M 0 0L 167 0L 167 34L 0 34Z" stroke="none" fill="none"></path><g id="SvgjsG1301"><text id="SvgjsText1302" font-family="微软雅黑" text-anchor="middle" font-size="23px" width="167px" fill="#212121" font-weight="400" align="middle" lineHeight="125%" anchor="middle" family="微软雅黑" size="23px" weight="400" font-style="" opacity="1" y="-2.375" transform="rotate(0)"><tspan id="SvgjsTspan1303" dy="28" x="83.5"><tspan id="SvgjsTspan1304" style="text-decoration:;">Boss Group</tspan></tspan></text></g></g><g id="SvgjsG1305" transform="translate(86.443229089836,594.8943603288405)"><path id="SvgjsPath1306" d="M 0 146C 0 -48.666666666666664 356 -48.666666666666664 356 146C 356 340.6666666666667 0 340.6666666666667 0 146Z" stroke="rgba(0,0,0,1)" stroke-width="2" fill-opacity="1" fill="#f5f5f5"></path><g id="SvgjsG1307"><text id="SvgjsText1308" font-family="微软雅黑" text-anchor="middle" font-size="23px" width="336px" fill="#212121" font-weight="400" align="middle" lineHeight="125%" anchor="middle" family="微软雅黑" size="23px" weight="400" font-style="" opacity="1" y="126.625" transform="rotate(0)"></text></g></g><g id="SvgjsG1309" transform="translate(195.43585496839376,567.3120943411861)"><path id="SvgjsPath1310" d="M 0 4Q 0 0 4 0L 154.12237202987797 0Q 158.12237202987797 0 158.12237202987797 4L 158.12237202987797 74.99999237060547Q 158.12237202987797 78.99999237060547 154.12237202987797 78.99999237060547L 4 78.99999237060547Q 0 78.99999237060547 0 74.99999237060547Z" stroke="rgba(0,0,0,1)" stroke-width="2" fill-opacity="1" fill="#f5f5f5"></path><g id="SvgjsG1311"><text id="SvgjsText1312" font-family="微软雅黑" text-anchor="middle" font-size="23px" width="139px" fill="#212121" font-weight="400" align="middle" lineHeight="125%" anchor="middle" family="微软雅黑" size="23px" weight="400" font-style="" opacity="1" y="5.624996185302734" transform="rotate(0)"><tspan id="SvgjsTspan1313" dy="28" x="79.5"><tspan id="SvgjsTspan1314" style="text-decoration:;">step1:</tspan></tspan><tspan id="SvgjsTspan1315" dy="28" x="79.5"><tspan id="SvgjsTspan1316" style="text-decoration:;">select</tspan></tspan></text></g></g><g id="SvgjsG1317" transform="translate(260.5842337876859,738.9274782718815)"><path id="SvgjsPath1318" d="M 0 4Q 0 0 4 0L 286.43143478927476 0Q 290.43143478927476 0 290.43143478927476 4L 290.43143478927476 83.38460843991011Q 290.43143478927476 87.38460843991011 286.43143478927476 87.38460843991011L 4 87.38460843991011Q 0 87.38460843991011 0 83.38460843991011Z" stroke="rgba(0,0,0,1)" stroke-width="2" fill-opacity="1" fill="#f5f5f5"></path><g id="SvgjsG1319"><text id="SvgjsText1320" font-family="微软雅黑" text-anchor="middle" font-size="23px" width="271px" fill="#212121" font-weight="400" align="middle" lineHeight="125%" anchor="middle" family="微软雅黑" size="23px" weight="400" font-style="" opacity="1" y="9.817304219955055" transform="rotate(0)"><tspan id="SvgjsTspan1321" dy="28" x="145.5"><tspan id="SvgjsTspan1322" style="text-decoration:;">step2：</tspan></tspan><tspan id="SvgjsTspan1323" dy="28" x="145.5"><tspan id="SvgjsTspan1324" style="text-decoration:;">processSelectedKeys</tspan></tspan></text></g></g><g id="SvgjsG1325" transform="translate(42.41450074171587,738.9274782718815)"><path id="SvgjsPath1326" d="M 0 4Q 0 0 4 0L 163.24844693037545 0Q 167.24844693037545 0 167.24844693037545 4L 167.24844693037545 83.38460843991011Q 167.24844693037545 87.38460843991011 163.24844693037545 87.38460843991011L 4 87.38460843991011Q 0 87.38460843991011 0 83.38460843991011Z" stroke="rgba(0,0,0,1)" stroke-width="2" fill-opacity="1" fill="#f5f5f5"></path><g id="SvgjsG1327"><text id="SvgjsText1328" font-family="微软雅黑" text-anchor="middle" font-size="23px" width="148px" fill="#212121" font-weight="400" align="middle" lineHeight="125%" anchor="middle" family="微软雅黑" size="23px" weight="400" font-style="" opacity="1" y="9.817304219955055" transform="rotate(0)"><tspan id="SvgjsTspan1329" dy="28" x="84"><tspan id="SvgjsTspan1330" style="text-decoration:;">step3:</tspan></tspan><tspan id="SvgjsTspan1331" dy="28" x="84"><tspan id="SvgjsTspan1332" style="text-decoration:;">runAllTasks</tspan></tspan></text></g></g><g id="SvgjsG1333" transform="translate(160.34859453132276,672.0249786376953)"><path id="SvgjsPath1334" d="M 0 0L 189 0L 189 55L 0 55Z" stroke="none" fill="none"></path><g id="SvgjsG1335"><text id="SvgjsText1336" font-family="微软雅黑" text-anchor="middle" font-size="23px" width="189px" fill="#212121" font-weight="400" align="middle" lineHeight="125%" anchor="middle" family="微软雅黑" size="23px" weight="400" font-style="" opacity="1" y="8.125" transform="rotate(0)"><tspan id="SvgjsTspan1337" dy="28" x="94.5"><tspan id="SvgjsTspan1338" style="text-decoration:;">NioEventLoop</tspan></tspan></text></g></g><g id="SvgjsG1339" transform="translate(222.43585496839387,401.05807150219977)"><path id="SvgjsPath1340" d="M 0 0L 104 0L 104 45L 0 45Z" stroke="none" fill="none"></path><g id="SvgjsG1341"><text id="SvgjsText1342" font-family="微软雅黑" text-anchor="middle" font-size="23px" width="104px" fill="#212121" font-weight="400" align="middle" lineHeight="125%" anchor="middle" family="微软雅黑" size="23px" weight="400" font-style="" opacity="1" y="3.125" transform="rotate(0)"></text></g></g><g id="SvgjsG1343"><path id="SvgjsPath1344" d="M274.43585496839376 429.7845178788734L274.43585496839376 498.04830611002967L274.4970409833328 498.04830611002967L274.4970409833328 563.7120943411861" stroke="#000000" stroke-width="2" fill="none" marker-end="url(#SvgjsMarker1345)"></path><rect id="SvgjsRect1347" width="75" height="29" x="236.93585496839376" y="482.2788991174993" fill="#ffffff"></rect><text id="SvgjsText1348" font-family="微软雅黑" text-anchor="middle" font-size="23px" width="75px" fill="#212121" font-weight="400" align="top" lineHeight="29px" anchor="middle" family="微软雅黑" size="23px" weight="400" font-style="" opacity="1" y="477.4038991174993" transform="rotate(0)"><tspan id="SvgjsTspan1349" dy="28" x="274.43585496839376"><tspan id="SvgjsTspan1350" style="text-decoration:;">Accept</tspan></tspan></text></g><g id="SvgjsG1351" transform="translate(643.8064878602823,24.99391252300427)"><path id="SvgjsPath1352" d="M 0 4Q 0 0 4 0L 456 0Q 460 0 460 4L 460 417.27272727272725Q 460 421.27272727272725 456 421.27272727272725L 4 421.27272727272725Q 0 421.27272727272725 0 417.27272727272725Z" stroke-dasharray="10,6" stroke="rgba(0,0,0,1)" stroke-width="2" fill-opacity="1" fill="#f5f5f5"></path><g id="SvgjsG1353"><text id="SvgjsText1354" font-family="微软雅黑" text-anchor="middle" font-size="23px" width="440px" fill="#212121" font-weight="400" align="middle" lineHeight="125%" anchor="middle" family="微软雅黑" size="23px" weight="400" font-style="" opacity="1" y="191.26136363636363" transform="rotate(0)"></text></g></g><g id="SvgjsG1355" transform="translate(661.9442276687779,94.02985293927162)"><path id="SvgjsPath1356" d="M 0 4Q 0 0 4 0L 416 0Q 420 0 420 4L 420 128Q 420 132 416 132L 4 132Q 0 132 0 128Z" stroke="rgba(0,0,0,1)" stroke-width="2" fill-opacity="1" fill="#f5f5f5"></path><g id="SvgjsG1357"><text id="SvgjsText1358" font-family="微软雅黑" text-anchor="middle" font-size="23px" width="400px" fill="#212121" font-weight="400" align="middle" lineHeight="125%" anchor="middle" family="微软雅黑" size="23px" weight="400" font-style="" opacity="1" y="46.625" transform="rotate(0)"></text></g></g><g id="SvgjsG1359" transform="translate(692.607092054077,149.99391252300427)"><path id="SvgjsPath1360" d="M 0 4Q 0 0 4 0L 163 0Q 167 0 167 4L 167 58Q 167 62 163 62L 4 62Q 0 62 0 58Z" stroke="rgba(0,0,0,1)" stroke-width="2" fill-opacity="1" fill="#f5f5f5"></path><g id="SvgjsG1361"><text id="SvgjsText1362" font-family="微软雅黑" text-anchor="middle" font-size="23px" width="147px" fill="#212121" font-weight="400" align="middle" lineHeight="125%" anchor="middle" family="微软雅黑" size="23px" weight="400" font-style="" opacity="1" y="11.625" transform="rotate(0)"><tspan id="SvgjsTspan1363" dy="28" x="83.5"><tspan id="SvgjsTspan1364" style="text-decoration:;">Selector</tspan></tspan></text></g></g><g id="SvgjsG1365" transform="translate(876.5842783658674,149.99391252300427)"><path id="SvgjsPath1366" d="M 0 4Q 0 0 4 0L 163 0Q 167 0 167 4L 167 58Q 167 62 163 62L 4 62Q 0 62 0 58Z" stroke="rgba(0,0,0,1)" stroke-width="2" fill-opacity="1" fill="#f5f5f5"></path><g id="SvgjsG1367"><text id="SvgjsText1368" font-family="微软雅黑" text-anchor="middle" font-size="23px" width="147px" fill="#212121" font-weight="400" align="middle" lineHeight="125%" anchor="middle" family="微软雅黑" size="23px" weight="400" font-style="" opacity="1" y="11.625" transform="rotate(0)"><tspan id="SvgjsTspan1369" dy="28" x="83.5"><tspan id="SvgjsTspan1370" style="text-decoration:;">TaskQueue</tspan></tspan></text></g></g><g id="SvgjsG1371" transform="translate(788.5268216696276,100.99391252300427)"><path id="SvgjsPath1372" d="M 0 0L 167 0L 167 34L 0 34Z" stroke="none" fill="none"></path><g id="SvgjsG1373"><text id="SvgjsText1374" font-family="微软雅黑" text-anchor="middle" font-size="23px" width="167px" fill="#212121" font-weight="400" align="middle" lineHeight="125%" anchor="middle" family="微软雅黑" size="23px" weight="400" font-style="" opacity="1" y="-2.375" transform="rotate(0)"><tspan id="SvgjsTspan1375" dy="28" x="83.5"><tspan id="SvgjsTspan1376" style="text-decoration:;">NioEventLoop</tspan></tspan></text></g></g><g id="SvgjsG1377" transform="translate(671.7720688179116,289.05807150219977)"><path id="SvgjsPath1378" d="M 0 4Q 0 0 4 0L 405 0Q 409 0 409 4L 409 128Q 409 132 405 132L 4 132Q 0 132 0 128Z" stroke="rgba(0,0,0,1)" stroke-width="2" fill-opacity="1" fill="#f5f5f5"></path><g id="SvgjsG1379"><text id="SvgjsText1380" font-family="微软雅黑" text-anchor="middle" font-size="23px" width="389px" fill="#212121" font-weight="400" align="middle" lineHeight="125%" anchor="middle" family="微软雅黑" size="23px" weight="400" font-style="" opacity="1" y="46.625" transform="rotate(0)"></text></g></g><g id="SvgjsG1381" transform="translate(702.4349332032112,346.99391252300427)"><path id="SvgjsPath1382" d="M 0 4Q 0 0 4 0L 163 0Q 167 0 167 4L 167 58Q 167 62 163 62L 4 62Q 0 62 0 58Z" stroke="rgba(0,0,0,1)" stroke-width="2" fill-opacity="1" fill="#f5f5f5"></path><g id="SvgjsG1383"><text id="SvgjsText1384" font-family="微软雅黑" text-anchor="middle" font-size="23px" width="147px" fill="#212121" font-weight="400" align="middle" lineHeight="125%" anchor="middle" family="微软雅黑" size="23px" weight="400" font-style="" opacity="1" y="11.625" transform="rotate(0)"><tspan id="SvgjsTspan1385" dy="28" x="83.5"><tspan id="SvgjsTspan1386" style="text-decoration:;">Selector</tspan></tspan></text></g></g><g id="SvgjsG1387" transform="translate(886.844945877485,346.99391252300427)"><path id="SvgjsPath1388" d="M 0 4Q 0 0 4 0L 163 0Q 167 0 167 4L 167 58Q 167 62 163 62L 4 62Q 0 62 0 58Z" stroke="rgba(0,0,0,1)" stroke-width="2" fill-opacity="1" fill="#f5f5f5"></path><g id="SvgjsG1389"><text id="SvgjsText1390" font-family="微软雅黑" text-anchor="middle" font-size="23px" width="147px" fill="#212121" font-weight="400" align="middle" lineHeight="125%" anchor="middle" family="微软雅黑" size="23px" weight="400" font-style="" opacity="1" y="11.625" transform="rotate(0)"><tspan id="SvgjsTspan1391" dy="28" x="83.5"><tspan id="SvgjsTspan1392" style="text-decoration:;">TaskQueue</tspan></tspan></text></g></g><g id="SvgjsG1393" transform="translate(798.3546628187613,297.3220663210056)"><path id="SvgjsPath1394" d="M 0 0L 167 0L 167 34L 0 34Z" stroke="none" fill="none"></path><g id="SvgjsG1395"><text id="SvgjsText1396" font-family="微软雅黑" text-anchor="middle" font-size="23px" width="167px" fill="#212121" font-weight="400" align="middle" lineHeight="125%" anchor="middle" family="微软雅黑" size="23px" weight="400" font-style="" opacity="1" y="-2.375" transform="rotate(0)"><tspan id="SvgjsTspan1397" dy="28" x="83.5"><tspan id="SvgjsTspan1398" style="text-decoration:;">NioEventLoop</tspan></tspan></text></g></g><g id="SvgjsG1399" transform="translate(790.0992762534889,232.863936314765)"><path id="SvgjsPath1400" d="M 0 0L 151 0L 151 34L 0 34Z" stroke="none" fill="none"></path><g id="SvgjsG1401"><text id="SvgjsText1402" font-family="微软雅黑" text-anchor="middle" font-size="23px" width="151px" fill="#212121" font-weight="400" align="middle" lineHeight="125%" anchor="middle" family="微软雅黑" size="23px" weight="400" font-style="" opacity="1" y="-2.375" transform="rotate(0)"><tspan id="SvgjsTspan1403" dy="28" x="75.5"><tspan id="SvgjsTspan1404" style="text-decoration:;">......</tspan></tspan></text></g></g><g id="SvgjsG1405"><path id="SvgjsPath1406" d="M552.0133647779828 782.5519423085677C 728.7305525472294 782.6197824918363 494.0571848476428 355.05807150219977 668.1803624942319 355.3022961619668" stroke="#000000" stroke-width="2" fill="none" marker-end="url(#SvgjsMarker1407)"></path><rect id="SvgjsRect1409" width="244" height="29" x="489.0696174321039" y="554.3609750565804" fill="#ffffff"></rect><text id="SvgjsText1410" font-family="微软雅黑" text-anchor="middle" font-size="23px" width="244px" fill="#212121" font-weight="400" align="top" lineHeight="29px" anchor="middle" family="微软雅黑" size="23px" weight="400" font-style="" opacity="1" y="549.4859750565804" transform="rotate(0)"><tspan id="SvgjsTspan1411" dy="28" x="611.0696174321039"><tspan id="SvgjsTspan1412" style="text-decoration:;">注册channel到Selector</tspan></tspan></text></g><g id="SvgjsG1413" transform="translate(692.607092054077,604.5356876174469)"><path id="SvgjsPath1414" d="M 0 146C 0 -48.666666666666664 356 -48.666666666666664 356 146C 356 340.6666666666667 0 340.6666666666667 0 146Z" stroke="rgba(0,0,0,1)" stroke-width="2" fill-opacity="1" fill="#f5f5f5"></path><g id="SvgjsG1415"><text id="SvgjsText1416" font-family="微软雅黑" text-anchor="middle" font-size="23px" width="336px" fill="#212121" font-weight="400" align="middle" lineHeight="125%" anchor="middle" family="微软雅黑" size="23px" weight="400" font-style="" opacity="1" y="126.625" transform="rotate(0)"></text></g></g><g id="SvgjsG1417" transform="translate(797.4044496397497,567.3120943411861)"><path id="SvgjsPath1418" d="M 0 4Q 0 0 4 0L 154.12237202987797 0Q 158.12237202987797 0 158.12237202987797 4L 158.12237202987797 74.99999237060547Q 158.12237202987797 78.99999237060547 154.12237202987797 78.99999237060547L 4 78.99999237060547Q 0 78.99999237060547 0 74.99999237060547Z" stroke="rgba(0,0,0,1)" stroke-width="2" fill-opacity="1" fill="#f5f5f5"></path><g id="SvgjsG1419"><text id="SvgjsText1420" font-family="微软雅黑" text-anchor="middle" font-size="23px" width="139px" fill="#212121" font-weight="400" align="middle" lineHeight="125%" anchor="middle" family="微软雅黑" size="23px" weight="400" font-style="" opacity="1" y="5.624996185302734" transform="rotate(0)"><tspan id="SvgjsTspan1421" dy="28" x="79.5"><tspan id="SvgjsTspan1422" style="text-decoration:;">step1:</tspan></tspan><tspan id="SvgjsTspan1423" dy="28" x="79.5"><tspan id="SvgjsTspan1424" style="text-decoration:;">select</tspan></tspan></text></g></g><g id="SvgjsG1425" transform="translate(873.3739466759195,730.3120943411861)"><path id="SvgjsPath1426" d="M 0 4Q 0 0 4 0L 264.9709839427765 0Q 268.9709839427765 0 268.9709839427765 4L 268.9709839427765 83.38460843991011Q 268.9709839427765 87.38460843991011 264.9709839427765 87.38460843991011L 4 87.38460843991011Q 0 87.38460843991011 0 83.38460843991011Z" stroke="rgba(0,0,0,1)" stroke-width="2" fill-opacity="1" fill="#f5f5f5"></path><g id="SvgjsG1427"><text id="SvgjsText1428" font-family="微软雅黑" text-anchor="middle" font-size="23px" width="249px" fill="#212121" font-weight="400" align="middle" lineHeight="125%" anchor="middle" family="微软雅黑" size="23px" weight="400" font-style="" opacity="1" y="9.817304219955055" transform="rotate(0)"><tspan id="SvgjsTspan1429" dy="28" x="134.5"><tspan id="SvgjsTspan1430" style="text-decoration:;">step2：</tspan></tspan><tspan id="SvgjsTspan1431" dy="28" x="134.5"><tspan id="SvgjsTspan1432" style="text-decoration:;">processSelectedKeys</tspan></tspan></text></g></g><g id="SvgjsG1433" transform="translate(651.9170262223662,730.3120943411861)"><path id="SvgjsPath1434" d="M 0 4Q 0 0 4 0L 163.24844693037545 0Q 167.24844693037545 0 167.24844693037545 4L 167.24844693037545 83.38460843991011Q 167.24844693037545 87.38460843991011 163.24844693037545 87.38460843991011L 4 87.38460843991011Q 0 87.38460843991011 0 83.38460843991011Z" stroke="rgba(0,0,0,1)" stroke-width="2" fill-opacity="1" fill="#f5f5f5"></path><g id="SvgjsG1435"><text id="SvgjsText1436" font-family="微软雅黑" text-anchor="middle" font-size="23px" width="148px" fill="#212121" font-weight="400" align="middle" lineHeight="125%" anchor="middle" family="微软雅黑" size="23px" weight="400" font-style="" opacity="1" y="9.817304219955055" transform="rotate(0)"><tspan id="SvgjsTspan1437" dy="28" x="84"><tspan id="SvgjsTspan1438" style="text-decoration:;">step3:</tspan></tspan><tspan id="SvgjsTspan1439" dy="28" x="84"><tspan id="SvgjsTspan1440" style="text-decoration:;">runAllTasks</tspan></tspan></text></g></g><g id="SvgjsG1441" transform="translate(469.53016897715395,472.81025461568)"><path id="SvgjsPath1442" d="M 0 0L 223.0769230769231 0L 223.0769230769231 62L 0 62Z" stroke="none" fill="none"></path><g id="SvgjsG1443"><text id="SvgjsText1444" font-family="微软雅黑" text-anchor="middle" font-size="23px" width="224px" fill="#212121" font-weight="400" align="middle" lineHeight="125%" anchor="middle" family="微软雅黑" size="23px" weight="400" font-style="" opacity="1" y="11.625" transform="rotate(0)"></text></g></g><g id="SvgjsG1445"><path id="SvgjsPath1446" d="M876.273392314279 422.0580706263781L876.4608710677836 563.7120974941442" stroke="#000000" stroke-width="2" fill="none" marker-end="url(#SvgjsMarker1447)"></path><rect id="SvgjsRect1449" width="124" height="29" x="814.3671316910313" y="478.3850840602612" fill="#ffffff"></rect><text id="SvgjsText1450" font-family="微软雅黑" text-anchor="middle" font-size="23px" width="124px" fill="#212121" font-weight="400" align="top" lineHeight="29px" anchor="middle" family="微软雅黑" size="23px" weight="400" font-style="" opacity="1" y="473.5100840602612" transform="rotate(0)"><tspan id="SvgjsTspan1451" dy="28" x="876.3671316910313"><tspan id="SvgjsTspan1452" style="text-decoration:;">Read/Write</tspan></tspan></text></g><g id="SvgjsG1453" transform="translate(891.344945877485,462.44845797754937)"><path id="SvgjsPath1454" d="M 0 0L 158 0L 158 45L 0 45Z" stroke="none" fill="none"></path><g id="SvgjsG1455"><text id="SvgjsText1456" font-family="微软雅黑" text-anchor="middle" font-size="23px" width="158px" fill="#212121" font-weight="400" align="middle" lineHeight="125%" anchor="middle" family="微软雅黑" size="23px" weight="400" font-style="" opacity="1" y="3.125" transform="rotate(0)"></text></g></g><g id="SvgjsG1457" transform="translate(715.1022335834456,967.4484746235014)"><path id="SvgjsPath1458" d="M 0 4Q 0 0 4 0L 341.0770843309974 0Q 345.0770843309974 0 345.0770843309974 4L 345.0770843309974 228.72727272727275Q 345.0770843309974 232.72727272727275 341.0770843309974 232.72727272727275L 4 232.72727272727275Q 0 232.72727272727275 0 228.72727272727275Z" stroke="rgba(0,0,0,1)" stroke-width="2" fill-opacity="1" fill="#f5f5f5"></path><g id="SvgjsG1459"><text id="SvgjsText1460" font-family="微软雅黑" text-anchor="middle" font-size="23px" width="326px" fill="#212121" font-weight="400" align="middle" lineHeight="125%" anchor="middle" family="微软雅黑" size="23px" weight="400" font-style="" opacity="1" y="96.98863636363637" transform="rotate(0)"></text></g></g><g id="SvgjsG1461" transform="translate(738.9391205059204,1024.3663473925176)"><path id="SvgjsPath1462" d="M 0 4Q 0 0 4 0L 293.4033104860472 0Q 297.4033104860472 0 297.4033104860472 4L 297.4033104860472 54.45974166671954Q 297.4033104860472 58.45974166671954 293.4033104860472 58.45974166671954L 4 58.45974166671954Q 0 58.45974166671954 0 54.45974166671954Z" stroke="rgba(0,0,0,1)" stroke-width="2" fill-opacity="1" fill="#f5f5f5"></path><g id="SvgjsG1463"><text id="SvgjsText1464" font-family="微软雅黑" text-anchor="middle" font-size="23px" width="278px" fill="#212121" font-weight="400" align="middle" lineHeight="125%" anchor="middle" family="微软雅黑" size="23px" weight="400" font-style="" opacity="1" y="9.854870833359769" transform="rotate(0)"><tspan id="SvgjsTspan1465" dy="28" x="149"><tspan id="SvgjsTspan1466" style="text-decoration:;">ChannelHanlder</tspan></tspan></text></g></g><g id="SvgjsG1467" transform="translate(803.2517312125839,1080.194318703008)"><path id="SvgjsPath1468" d="M 0 0L 137.7542941208378 0L 137.7542941208378 27.994805868569923L 0 27.994805868569923Z" stroke="none" fill="none"></path><g id="SvgjsG1469"><text id="SvgjsText1470" font-family="微软雅黑" text-anchor="middle" font-size="23px" width="138px" fill="#212121" font-weight="400" align="middle" lineHeight="125%" anchor="middle" family="微软雅黑" size="23px" weight="400" font-style="" opacity="1" y="-5.3775970657150385" transform="rotate(0)"><tspan id="SvgjsTspan1471" dy="28" x="69"><tspan id="SvgjsTspan1472" style="text-decoration:;">......</tspan></tspan></text></g></g><g id="SvgjsG1473" transform="translate(741.9393827192445,1120.1132481940065)"><path id="SvgjsPath1474" d="M 0 4Q 0 0 4 0L 287.4027860593989 0Q 291.4027860593989 0 291.4027860593989 4L 291.4027860593989 54.45974166671954Q 291.4027860593989 58.45974166671954 287.4027860593989 58.45974166671954L 4 58.45974166671954Q 0 58.45974166671954 0 54.45974166671954Z" stroke="rgba(0,0,0,1)" stroke-width="2" fill-opacity="1" fill="#f5f5f5"></path><g id="SvgjsG1475"><text id="SvgjsText1476" font-family="微软雅黑" text-anchor="middle" font-size="23px" width="272px" fill="#212121" font-weight="400" align="middle" lineHeight="125%" anchor="middle" family="微软雅黑" size="23px" weight="400" font-style="" opacity="1" y="9.854870833359769" transform="rotate(0)"><tspan id="SvgjsTspan1477" dy="28" x="146"><tspan id="SvgjsTspan1478" style="text-decoration:;">ChannelHanlder</tspan></tspan></text></g></g><g id="SvgjsG1479" transform="translate(731.6368328879274,972.1189257929868)"><path id="SvgjsPath1480" d="M 0 4Q 0 0 4 0L 308.00788572203373 0Q 312.00788572203373 0 312.00788572203373 4L 312.00788572203373 33.051948943695486Q 312.00788572203373 37.051948943695486 308.00788572203373 37.051948943695486L 4 37.051948943695486Q 0 37.051948943695486 0 33.051948943695486Z" stroke="rgba(245,245,245,1)" stroke-width="2" fill-opacity="1" fill="#f5f5f5"></path><g id="SvgjsG1481"><text id="SvgjsText1482" font-family="微软雅黑" text-anchor="middle" font-size="23px" width="293px" fill="#212121" font-weight="400" align="middle" lineHeight="125%" anchor="middle" family="微软雅黑" size="23px" weight="400" font-style="" opacity="1" y="-0.8490255281522572" transform="rotate(0)"><tspan id="SvgjsTspan1483" dy="28" x="156.5"><tspan id="SvgjsTspan1484" style="text-decoration:;">Pipeline</tspan></tspan></text></g></g><g id="SvgjsG1485" transform="translate(174.84494587748497,1212.0560447523865)"><path id="SvgjsPath1486" d="M 0 0L 326 0L 326 55L 0 55Z" stroke="none" fill="none"></path><g id="SvgjsG1487"><text id="SvgjsText1488" font-family="微软雅黑" text-anchor="middle" font-size="23px" width="326px" fill="#212121" font-weight="400" align="middle" lineHeight="125%" anchor="middle" family="微软雅黑" size="23px" weight="400" font-style="" opacity="1" y="8.125" transform="rotate(0)"><tspan id="SvgjsTspan1489" dy="28" x="163"><tspan id="SvgjsTspan1490" style="text-decoration:;">Netty Reactor 工作架构图</tspan></tspan></text></g></g><g id="SvgjsG1491" transform="translate(210.43585496839387,24.99391252300427)"><path id="SvgjsPath1492" d="M 0 4Q 0 0 4 0L 132 0Q 136 0 136 4L 136 58Q 136 62 132 62L 4 62Q 0 62 0 58Z" stroke="rgba(0,0,0,1)" stroke-width="2" fill-opacity="1" fill="#f5f5f5"></path><g id="SvgjsG1493"><text id="SvgjsText1494" font-family="微软雅黑" text-anchor="middle" font-size="23px" width="116px" fill="#212121" font-weight="400" align="middle" lineHeight="125%" anchor="middle" family="微软雅黑" size="23px" weight="400" font-style="" opacity="1" y="11.625" transform="rotate(0)"><tspan id="SvgjsTspan1495" dy="28" x="68"><tspan id="SvgjsTspan1496" style="text-decoration:;">Client</tspan></tspan></text></g></g><g id="SvgjsG1497" transform="translate(25.005044967241474,24.99391252300427)"><path id="SvgjsPath1498" d="M 0 4Q 0 0 4 0L 132 0Q 136 0 136 4L 136 58Q 136 62 132 62L 4 62Q 0 62 0 58Z" stroke="rgba(0,0,0,1)" stroke-width="2" fill-opacity="1" fill="#f5f5f5"></path><g id="SvgjsG1499"><text id="SvgjsText1500" font-family="微软雅黑" text-anchor="middle" font-size="23px" width="116px" fill="#212121" font-weight="400" align="middle" lineHeight="125%" anchor="middle" family="微软雅黑" size="23px" weight="400" font-style="" opacity="1" y="11.625" transform="rotate(0)"><tspan id="SvgjsTspan1501" dy="28" x="68"><tspan id="SvgjsTspan1502" style="text-decoration:;">Client</tspan></tspan></text></g></g><g id="SvgjsG1503" transform="translate(404.344945877485,24.99391252300427)"><path id="SvgjsPath1504" d="M 0 4Q 0 0 4 0L 132 0Q 136 0 136 4L 136 58Q 136 62 132 62L 4 62Q 0 62 0 58Z" stroke="rgba(0,0,0,1)" stroke-width="2" fill-opacity="1" fill="#f5f5f5"></path><g id="SvgjsG1505"><text id="SvgjsText1506" font-family="微软雅黑" text-anchor="middle" font-size="23px" width="116px" fill="#212121" font-weight="400" align="middle" lineHeight="125%" anchor="middle" family="微软雅黑" size="23px" weight="400" font-style="" opacity="1" y="11.625" transform="rotate(0)"><tspan id="SvgjsTspan1507" dy="28" x="68"><tspan id="SvgjsTspan1508" style="text-decoration:;">Client</tspan></tspan></text></g></g><g id="SvgjsG1509" transform="translate(806.844945877485,28.99391252300427)"><path id="SvgjsPath1510" d="M 0 0L 167 0L 167 34L 0 34Z" stroke="none" fill="none"></path><g id="SvgjsG1511"><text id="SvgjsText1512" font-family="微软雅黑" text-anchor="middle" font-size="23px" width="167px" fill="#212121" font-weight="400" align="middle" lineHeight="125%" anchor="middle" family="微软雅黑" size="23px" weight="400" font-style="" opacity="1" y="-2.375" transform="rotate(0)"><tspan id="SvgjsTspan1513" dy="28" x="83.5"><tspan id="SvgjsTspan1514" style="text-decoration:;">Worker Group</tspan></tspan></text></g></g><g id="SvgjsG1515"><path id="SvgjsPath1516" d="M408.9913901788981 607.0030730440023C 460.1025012900094 638.9232088431393 468.9913901788983 667.8120977320282 484.54694573445397 718.9232088431393" stroke="#000000" stroke-width="2" fill="none" marker-end="url(#SvgjsMarker1517)"></path></g><g id="SvgjsG1519"><path id="SvgjsPath1520" d="M1058.0270550322798 818.6917446207585C 1058.1265122458021 909.7067972784373 887.6407757489441 880.1088312956456 887.9988217176241 968.5367751702028" stroke="#323232" stroke-width="2" fill="none" marker-end="url(#SvgjsMarker1521)"></path></g><g id="SvgjsG1523"><path id="SvgjsPath1524" d="M93.11372625680843 87.98798916858954C 93.00504496724147 178.1738566490448 274.43585496839376 133.81396839696373 274.0446023259527 221.4152365988973" stroke="#323232" stroke-width="2" fill="none" marker-end="url(#SvgjsMarker1525)"></path></g><g id="SvgjsG1527"><path id="SvgjsPath1528" d="M278.42967025734276 87.99389339749598C 278.43585496839387 142.2170960603557 274.43585496839376 169.77072898565285 274.45811992817767 221.39398137483408" stroke="#323232" stroke-width="2" fill="none" marker-end="url(#SvgjsMarker1529)"></path></g><g id="SvgjsG1531"><path id="SvgjsPath1532" d="M472.2388821492963 87.98827185723042C 472.344945877485 183.50257183559688 274.43585496839376 128.48525321041166 274.81768438987314 221.41421891979007" stroke="#323232" stroke-width="2" fill="none" marker-end="url(#SvgjsMarker1533)"></path></g></svg>