<svg id="SvgjsSvg1006" width="644.362548828125" height="768.9500122070312" xmlns="http://www.w3.org/2000/svg" version="1.1" xmlns:xlink="http://www.w3.org/1999/xlink" xmlns:svgjs="http://svgjs.com/svgjs"><defs id="SvgjsDefs1007"><marker id="SvgjsMarker1010" markerWidth="16" markerHeight="12" refX="11" refY="6" viewBox="0 0 16 12" orient="auto" markerUnits="userSpaceOnUse" stroke-dasharray="0,0"><path id="SvgjsPath1011" d="M0,0 L16,6 L0,12 L0,0" fill="#000000" stroke="#000000" stroke-width="1"></path></marker><marker id="SvgjsMarker1086" markerWidth="16" markerHeight="12" refX="11" refY="6" viewBox="0 0 16 12" orient="auto" markerUnits="userSpaceOnUse" stroke-dasharray="0,0"><path id="SvgjsPath1087" d="M0,0 L16,6 L0,12 L0,0" fill="#000000" stroke="#000000" stroke-width="1"></path></marker></defs><g id="SvgjsG1008"><path id="SvgjsPath1009" d="M443.81264768505935 452.2084824761473C 494.92375879617043 484.1286182752842 503.81264768505935 513.0175071641734 519.368203240615 564.1286182752842" stroke="#000000" stroke-width="3" fill="none" marker-end="url(#SvgjsMarker1010)"></path></g><g id="SvgjsG1012" transform="translate(58.02832267542317,24.988442766785965)"><path id="SvgjsPath1013" d="M 0 4Q 0 0 4 0L 459 0Q 463 0 463 4L 463 235Q 463 239 459 239L 4 239Q 0 239 0 235Z" stroke="rgba(0,0,0,1)" stroke-width="3" fill-opacity="1" fill="#f5f5f5"></path><g id="SvgjsG1014"><text id="SvgjsText1015" font-family="微软雅黑" text-anchor="middle" font-size="22px" width="443px" fill="#212121" font-weight="700" align="middle" lineHeight="125%" anchor="middle" family="微软雅黑" size="22px" weight="700" font-style="" opacity="1" y="101.25" transform="rotate(0)"></text></g></g><g id="SvgjsG1016" transform="translate(79.25645955755215,104.87372601524226)"><path id="SvgjsPath1017" d="M 0 4Q 0 0 4 0L 416 0Q 420 0 420 4L 420 130Q 420 134 416 134L 4 134Q 0 134 0 130Z" stroke="rgba(0,0,0,1)" stroke-width="3" fill-opacity="1" fill="#f5f5f5"></path><g id="SvgjsG1018"><text id="SvgjsText1019" font-family="微软雅黑" text-anchor="middle" font-size="22px" width="400px" fill="#212121" font-weight="700" align="middle" lineHeight="125%" anchor="middle" family="微软雅黑" size="22px" weight="700" font-style="" opacity="1" y="48.75" transform="rotate(0)"></text></g></g><g id="SvgjsG1020" transform="translate(109.91932394284993,162.0730593288872)"><path id="SvgjsPath1021" d="M 0 4Q 0 0 4 0L 163 0Q 167 0 167 4L 167 57Q 167 61 163 61L 4 61Q 0 61 0 57Z" stroke="rgba(0,0,0,1)" stroke-width="3" fill-opacity="1" fill="#f5f5f5"></path><g id="SvgjsG1022"><text id="SvgjsText1023" font-family="微软雅黑" text-anchor="middle" font-size="22px" width="147px" fill="#212121" font-weight="700" align="middle" lineHeight="125%" anchor="middle" family="微软雅黑" size="22px" weight="700" font-style="" opacity="1" y="12.25" transform="rotate(0)"><tspan id="SvgjsTspan1024" dy="27" x="83.5"><tspan id="SvgjsTspan1025" style="text-decoration:;">Selector</tspan></tspan></text></g></g><g id="SvgjsG1026" transform="translate(296.86822358566667,162.0730593288872)"><path id="SvgjsPath1027" d="M 0 4Q 0 0 4 0L 163 0Q 167 0 167 4L 167 57Q 167 61 163 61L 4 61Q 0 61 0 57Z" stroke="rgba(0,0,0,1)" stroke-width="3" fill-opacity="1" fill="#f5f5f5"></path><g id="SvgjsG1028"><text id="SvgjsText1029" font-family="微软雅黑" text-anchor="middle" font-size="22px" width="147px" fill="#212121" font-weight="700" align="middle" lineHeight="125%" anchor="middle" family="微软雅黑" size="22px" weight="700" font-style="" opacity="1" y="12.25" transform="rotate(0)"><tspan id="SvgjsTspan1030" dy="27" x="83.5"><tspan id="SvgjsTspan1031" style="text-decoration:;">TaskQueue</tspan></tspan></text></g></g><g id="SvgjsG1032" transform="translate(205.8390535583968,113.13772083404842)"><path id="SvgjsPath1033" d="M 0 0L 167 0L 167 34L 0 34Z" stroke="none" fill="none"></path><g id="SvgjsG1034"><text id="SvgjsText1035" font-family="微软雅黑" text-anchor="middle" font-size="22px" width="167px" fill="#212121" font-weight="700" align="middle" lineHeight="125%" anchor="middle" family="微软雅黑" size="22px" weight="700" font-style="" opacity="1" y="-1.25" transform="rotate(0)"><tspan id="SvgjsTspan1036" dy="27" x="83.5"><tspan id="SvgjsTspan1037" style="text-decoration:;">NioEventLoop</tspan></tspan></text></g></g><g id="SvgjsG1038" transform="translate(161.23674750686325,41.2210399524547)"><path id="SvgjsPath1039" d="M 0 0L 255.88479799237825 0L 255.88479799237825 28L 0 28Z" stroke="none" fill="none"></path><g id="SvgjsG1040"><text id="SvgjsText1041" font-family="微软雅黑" text-anchor="middle" font-size="22px" width="256px" fill="#212121" font-weight="700" align="middle" lineHeight="125%" anchor="middle" family="微软雅黑" size="22px" weight="700" font-style="" opacity="1" y="-4.25" transform="rotate(0)"><tspan id="SvgjsTspan1042" dy="27" x="128"><tspan id="SvgjsTspan1043" style="text-decoration:;">NioEventLoopGroup</tspan></tspan></text></g></g><g id="SvgjsG1044" transform="translate(98.9121418558201,451.96150840508926)"><path id="SvgjsPath1045" d="M 0 146C 0 -48.666666666666664 356 -48.666666666666664 356 146C 356 340.6666666666667 0 340.6666666666667 0 146Z" stroke="rgba(0,0,0,1)" stroke-width="3" fill-opacity="1" fill="#f5f5f5"></path><g id="SvgjsG1046"><text id="SvgjsText1047" font-family="微软雅黑" text-anchor="middle" font-size="22px" width="336px" fill="#212121" font-weight="700" align="middle" lineHeight="125%" anchor="middle" family="微软雅黑" size="22px" weight="700" font-style="" opacity="1" y="127.75" transform="rotate(0)"></text></g></g><g id="SvgjsG1048" transform="translate(210.55641730998116,423.0375265392686)"><path id="SvgjsPath1049" d="M 0 4Q 0 0 4 0L 154 0Q 158 0 158 4L 158 66Q 158 70 154 70L 4 70Q 0 70 0 66Z" stroke="rgba(0,0,0,1)" stroke-width="3" fill-opacity="1" fill="#f5f5f5"></path><g id="SvgjsG1050"><text id="SvgjsText1051" font-family="微软雅黑" text-anchor="middle" font-size="22px" width="138px" fill="#212121" font-weight="700" align="middle" lineHeight="125%" anchor="middle" family="微软雅黑" size="22px" weight="700" font-style="" opacity="1" y="2.75" transform="rotate(0)"><tspan id="SvgjsTspan1052" dy="27" x="79"><tspan id="SvgjsTspan1053" style="text-decoration:;">step1:</tspan></tspan><tspan id="SvgjsTspan1054" dy="27" x="79"><tspan id="SvgjsTspan1055" style="text-decoration:;">select</tspan></tspan></text></g></g><g id="SvgjsG1056" transform="translate(329.36822358566667,594.5730593288872)"><path id="SvgjsPath1057" d="M 0 4Q 0 0 4 0L 286 0Q 290 0 290 4L 290 66Q 290 70 286 70L 4 70Q 0 70 0 66Z" stroke="rgba(0,0,0,1)" stroke-width="3" fill-opacity="1" fill="#f5f5f5"></path><g id="SvgjsG1058"><text id="SvgjsText1059" font-family="微软雅黑" text-anchor="middle" font-size="22px" width="270px" fill="#212121" font-weight="700" align="middle" lineHeight="125%" anchor="middle" family="微软雅黑" size="22px" weight="700" font-style="" opacity="1" y="2.75" transform="rotate(0)"><tspan id="SvgjsTspan1060" dy="27" x="145"><tspan id="SvgjsTspan1061" style="text-decoration:;">step2：</tspan></tspan><tspan id="SvgjsTspan1062" dy="27" x="145"><tspan id="SvgjsTspan1063" style="text-decoration:;">processSelectedKeys</tspan></tspan></text></g></g><g id="SvgjsG1064" transform="translate(25.00677641433333,594.5730593288872)"><path id="SvgjsPath1065" d="M 0 4Q 0 0 4 0L 163 0Q 167 0 167 4L 167 66Q 167 70 163 70L 4 70Q 0 70 0 66Z" stroke="rgba(0,0,0,1)" stroke-width="3" fill-opacity="1" fill="#f5f5f5"></path><g id="SvgjsG1066"><text id="SvgjsText1067" font-family="微软雅黑" text-anchor="middle" font-size="22px" width="147px" fill="#212121" font-weight="700" align="middle" lineHeight="125%" anchor="middle" family="微软雅黑" size="22px" weight="700" font-style="" opacity="1" y="2.75" transform="rotate(0)"><tspan id="SvgjsTspan1068" dy="27" x="83.5"><tspan id="SvgjsTspan1069" style="text-decoration:;">step3:</tspan></tspan><tspan id="SvgjsTspan1070" dy="27" x="83.5"><tspan id="SvgjsTspan1071" style="text-decoration:;">runAllTasks</tspan></tspan></text></g></g><g id="SvgjsG1072" transform="translate(172.81750729730686,529.0921267139438)"><path id="SvgjsPath1073" d="M 0 0L 189 0L 189 55L 0 55Z" stroke="none" fill="none"></path><g id="SvgjsG1074"><text id="SvgjsText1075" font-family="微软雅黑" text-anchor="middle" font-size="22px" width="189px" fill="#212121" font-weight="700" align="middle" lineHeight="125%" anchor="middle" family="微软雅黑" size="22px" weight="700" font-style="" opacity="1" y="9.25" transform="rotate(0)"><tspan id="SvgjsTspan1076" dy="27" x="94.5"><tspan id="SvgjsTspan1077" style="text-decoration:;">NioEventLoop</tspan></tspan></text></g></g><g id="SvgjsG1078" transform="translate(315.91087442869673,366.56689527742833)"><path id="SvgjsPath1079" d="M 0 0L 104 0L 104 45L 0 45Z" stroke="none" fill="none"></path><g id="SvgjsG1080"><text id="SvgjsText1081" font-family="微软雅黑" text-anchor="middle" font-size="22px" width="104px" fill="#212121" font-weight="700" align="middle" lineHeight="125%" anchor="middle" family="微软雅黑" size="22px" weight="700" font-style="" opacity="1" y="4.25" transform="rotate(0)"><tspan id="SvgjsTspan1082" dy="27" x="52"><tspan id="SvgjsTspan1083" style="text-decoration:;">Accept</tspan></tspan></text></g></g><g id="SvgjsG1084"><path id="SvgjsPath1085" d="M289.55641730998127 240.37372601524226L289.55641730998127 330.75625106260327L289.55641730998127 330.75625106260327L289.55641730998127 417.6375265392686" stroke="#000000" stroke-width="3" fill="none" marker-end="url(#SvgjsMarker1086)"></path></g></svg>