<svg id="SvgjsSvg1006" width="629.4500732421875" height="764.375" xmlns="http://www.w3.org/2000/svg" version="1.1" xmlns:xlink="http://www.w3.org/1999/xlink" xmlns:svgjs="http://svgjs.com/svgjs"><defs id="SvgjsDefs1007"><marker id="SvgjsMarker1010" markerWidth="14" markerHeight="10" refX="10" refY="5" viewBox="0 0 14 10" orient="auto" markerUnits="userSpaceOnUse" stroke-dasharray="0,0"><path id="SvgjsPath1011" d="M0,0 L14,5 L0,10 L0,0" fill="#000000" stroke="#000000" stroke-width="1"></path></marker><marker id="SvgjsMarker1086" markerWidth="14" markerHeight="10" refX="10" refY="5" viewBox="0 0 14 10" orient="auto" markerUnits="userSpaceOnUse" stroke-dasharray="0,0"><path id="SvgjsPath1087" d="M0,0 L14,5 L0,10 L0,0" fill="#000000" stroke="#000000" stroke-width="1"></path></marker></defs><g id="SvgjsG1008"><path id="SvgjsPath1009" d="M425.626304145032 447.62866809158095C 476.7374152561431 479.54880389071786 485.626304145032 508.437692779607 501.18185970058767 559.5488038907179" stroke="#000000" stroke-width="2" fill="none" marker-end="url(#SvgjsMarker1010)"></path></g><g id="SvgjsG1012" transform="translate(63.86369822745746,24.993275461898975)"><path id="SvgjsPath1013" d="M 0 4Q 0 0 4 0L 447.376387448629 0Q 451.376387448629 0 451.376387448629 4L 451.376387448629 224.5186460911591Q 451.376387448629 228.5186460911591 447.376387448629 228.5186460911591L 4 228.5186460911591Q 0 228.5186460911591 0 224.5186460911591Z" stroke="rgba(0,0,0,1)" stroke-width="2" fill-opacity="1" fill="#f5f5f5"></path><g id="SvgjsG1014"><text id="SvgjsText1015" font-family="微软雅黑" text-anchor="middle" font-size="23px" width="432px" fill="#212121" font-weight="400" align="middle" lineHeight="125%" anchor="middle" family="微软雅黑" size="23px" weight="400" font-style="" opacity="1" y="94.88432304557955" transform="rotate(0)"></text></g></g><g id="SvgjsG1016" transform="translate(79.25193419934294,100.2939116306759)"><path id="SvgjsPath1017" d="M 0 4Q 0 0 4 0L 416 0Q 420 0 420 4L 420 128Q 420 132 416 132L 4 132Q 0 132 0 128Z" stroke="rgba(0,0,0,1)" stroke-width="2" fill-opacity="1" fill="#f5f5f5"></path><g id="SvgjsG1018"><text id="SvgjsText1019" font-family="微软雅黑" text-anchor="middle" font-size="23px" width="400px" fill="#212121" font-weight="400" align="middle" lineHeight="125%" anchor="middle" family="微软雅黑" size="23px" weight="400" font-style="" opacity="1" y="46.625" transform="rotate(0)"></text></g></g><g id="SvgjsG1020" transform="translate(109.91479858464072,157.99324494432085)"><path id="SvgjsPath1021" d="M 0 4Q 0 0 4 0L 163 0Q 167 0 167 4L 167 58Q 167 62 163 62L 4 62Q 0 62 0 58Z" stroke="rgba(0,0,0,1)" stroke-width="2" fill-opacity="1" fill="#f5f5f5"></path><g id="SvgjsG1022"><text id="SvgjsText1023" font-family="微软雅黑" text-anchor="middle" font-size="23px" width="147px" fill="#212121" font-weight="400" align="middle" lineHeight="125%" anchor="middle" family="微软雅黑" size="23px" weight="400" font-style="" opacity="1" y="11.625" transform="rotate(0)"><tspan id="SvgjsTspan1024" dy="28" x="83.5"><tspan id="SvgjsTspan1025" style="text-decoration:;">Selector</tspan></tspan></text></g></g><g id="SvgjsG1026" transform="translate(297.86369822745746,157.99324494432085)"><path id="SvgjsPath1027" d="M 0 4Q 0 0 4 0L 163 0Q 167 0 167 4L 167 58Q 167 62 163 62L 4 62Q 0 62 0 58Z" stroke="rgba(0,0,0,1)" stroke-width="2" fill-opacity="1" fill="#f5f5f5"></path><g id="SvgjsG1028"><text id="SvgjsText1029" font-family="微软雅黑" text-anchor="middle" font-size="23px" width="147px" fill="#212121" font-weight="400" align="middle" lineHeight="125%" anchor="middle" family="微软雅黑" size="23px" weight="400" font-style="" opacity="1" y="11.625" transform="rotate(0)"><tspan id="SvgjsTspan1030" dy="28" x="83.5"><tspan id="SvgjsTspan1031" style="text-decoration:;">TaskQueue</tspan></tspan></text></g></g><g id="SvgjsG1032" transform="translate(205.8345282001876,108.55790644948206)"><path id="SvgjsPath1033" d="M 0 0L 167 0L 167 34L 0 34Z" stroke="none" fill="none"></path><g id="SvgjsG1034"><text id="SvgjsText1035" font-family="微软雅黑" text-anchor="middle" font-size="23px" width="167px" fill="#212121" font-weight="400" align="middle" lineHeight="125%" anchor="middle" family="微软雅黑" size="23px" weight="400" font-style="" opacity="1" y="-2.375" transform="rotate(0)"><tspan id="SvgjsTspan1036" dy="28" x="83.5"><tspan id="SvgjsTspan1037" style="text-decoration:;">NioEventLoop</tspan></tspan></text></g></g><g id="SvgjsG1038" transform="translate(161.23222214865405,36.64122556788834)"><path id="SvgjsPath1039" d="M 0 0L 255.88479799237825 0L 255.88479799237825 28L 0 28Z" stroke="none" fill="none"></path><g id="SvgjsG1040"><text id="SvgjsText1041" font-family="微软雅黑" text-anchor="middle" font-size="23px" width="256px" fill="#212121" font-weight="400" align="middle" lineHeight="125%" anchor="middle" family="微软雅黑" size="23px" weight="400" font-style="" opacity="1" y="-5.375" transform="rotate(0)"><tspan id="SvgjsTspan1042" dy="28" x="128"><tspan id="SvgjsTspan1043" style="text-decoration:;">NioEventLoopGroup</tspan></tspan></text></g></g><g id="SvgjsG1044" transform="translate(98.90761649761089,447.3816940205229)"><path id="SvgjsPath1045" d="M 0 146C 0 -48.666666666666664 356 -48.666666666666664 356 146C 356 340.6666666666667 0 340.6666666666667 0 146Z" stroke="rgba(0,0,0,1)" stroke-width="2" fill-opacity="1" fill="#f5f5f5"></path><g id="SvgjsG1046"><text id="SvgjsText1047" font-family="微软雅黑" text-anchor="middle" font-size="23px" width="336px" fill="#212121" font-weight="400" align="middle" lineHeight="125%" anchor="middle" family="微软雅黑" size="23px" weight="400" font-style="" opacity="1" y="126.625" transform="rotate(0)"></text></g></g><g id="SvgjsG1048" transform="translate(210.55189195177195,418.4577121547022)"><path id="SvgjsPath1049" d="M 0 4Q 0 0 4 0L 154 0Q 158 0 158 4L 158 67Q 158 71 154 71L 4 71Q 0 71 0 67Z" stroke="rgba(0,0,0,1)" stroke-width="2" fill-opacity="1" fill="#f5f5f5"></path><g id="SvgjsG1050"><text id="SvgjsText1051" font-family="微软雅黑" text-anchor="middle" font-size="23px" width="138px" fill="#212121" font-weight="400" align="middle" lineHeight="125%" anchor="middle" family="微软雅黑" size="23px" weight="400" font-style="" opacity="1" y="1.625" transform="rotate(0)"><tspan id="SvgjsTspan1052" dy="28" x="79"><tspan id="SvgjsTspan1053" style="text-decoration:;">step1:</tspan></tspan><tspan id="SvgjsTspan1054" dy="28" x="79"><tspan id="SvgjsTspan1055" style="text-decoration:;">select</tspan></tspan></text></g></g><g id="SvgjsG1056" transform="translate(334.46198143980837,590.4932449443208)"><path id="SvgjsPath1057" d="M 0 4Q 0 0 4 0L 266.81073088297376 0Q 270.81073088297376 0 270.81073088297376 4L 270.81073088297376 67Q 270.81073088297376 71 266.81073088297376 71L 4 71Q 0 71 0 67Z" stroke="rgba(0,0,0,1)" stroke-width="2" fill-opacity="1" fill="#f5f5f5"></path><g id="SvgjsG1058"><text id="SvgjsText1059" font-family="微软雅黑" text-anchor="middle" font-size="23px" width="251px" fill="#212121" font-weight="400" align="middle" lineHeight="125%" anchor="middle" family="微软雅黑" size="23px" weight="400" font-style="" opacity="1" y="1.625" transform="rotate(0)"><tspan id="SvgjsTspan1060" dy="28" x="135.5"><tspan id="SvgjsTspan1061" style="text-decoration:;">step2：</tspan></tspan><tspan id="SvgjsTspan1062" dy="28" x="135.5"><tspan id="SvgjsTspan1063" style="text-decoration:;">processSelectedKeys</tspan></tspan></text></g></g><g id="SvgjsG1064" transform="translate(25.002251056124123,590.4932449443208)"><path id="SvgjsPath1065" d="M 0 4Q 0 0 4 0L 163 0Q 167 0 167 4L 167 67Q 167 71 163 71L 4 71Q 0 71 0 67Z" stroke="rgba(0,0,0,1)" stroke-width="2" fill-opacity="1" fill="#f5f5f5"></path><g id="SvgjsG1066"><text id="SvgjsText1067" font-family="微软雅黑" text-anchor="middle" font-size="23px" width="147px" fill="#212121" font-weight="400" align="middle" lineHeight="125%" anchor="middle" family="微软雅黑" size="23px" weight="400" font-style="" opacity="1" y="1.625" transform="rotate(0)"><tspan id="SvgjsTspan1068" dy="28" x="83.5"><tspan id="SvgjsTspan1069" style="text-decoration:;">step3:</tspan></tspan><tspan id="SvgjsTspan1070" dy="28" x="83.5"><tspan id="SvgjsTspan1071" style="text-decoration:;">runAllTasks</tspan></tspan></text></g></g><g id="SvgjsG1072" transform="translate(172.81298193909765,524.5123123293774)"><path id="SvgjsPath1073" d="M 0 0L 189 0L 189 55L 0 55Z" stroke="none" fill="none"></path><g id="SvgjsG1074"><text id="SvgjsText1075" font-family="微软雅黑" text-anchor="middle" font-size="23px" width="189px" fill="#212121" font-weight="400" align="middle" lineHeight="125%" anchor="middle" family="微软雅黑" size="23px" weight="400" font-style="" opacity="1" y="8.125" transform="rotate(0)"><tspan id="SvgjsTspan1076" dy="28" x="94.5"><tspan id="SvgjsTspan1077" style="text-decoration:;">NioEventLoop</tspan></tspan></text></g></g><g id="SvgjsG1078" transform="translate(297.86369822745746,327.9468077867905)"><path id="SvgjsPath1079" d="M 0 0L 104 0L 104 45L 0 45Z" stroke="none" fill="none"></path><g id="SvgjsG1080"><text id="SvgjsText1081" font-family="微软雅黑" text-anchor="middle" font-size="23px" width="104px" fill="#212121" font-weight="400" align="middle" lineHeight="125%" anchor="middle" family="微软雅黑" size="23px" weight="400" font-style="" opacity="1" y="3.125" transform="rotate(0)"><tspan id="SvgjsTspan1082" dy="28" x="52"><tspan id="SvgjsTspan1083" style="text-decoration:;">Accept</tspan></tspan></text></g></g><g id="SvgjsG1084"><path id="SvgjsPath1085" d="M289.55189195177206 233.2939116306759L289.55189195177206 326.1764366780369L289.55189195177206 326.1764366780369L289.55189195177206 414.8577121547022" stroke="#000000" stroke-width="2" fill="none" marker-end="url(#SvgjsMarker1086)"></path></g></svg>