<svg id="SvgjsSvg1006" width="1482.6000747680664" height="1327.050033569336" xmlns="http://www.w3.org/2000/svg" version="1.1" xmlns:xlink="http://www.w3.org/1999/xlink" xmlns:svgjs="http://svgjs.com/svgjs"><defs id="SvgjsDefs1007"><marker id="SvgjsMarker1080" markerWidth="16" markerHeight="12" refX="11" refY="6" viewBox="0 0 16 12" orient="auto" markerUnits="userSpaceOnUse" stroke-dasharray="0,0"><path id="SvgjsPath1081" d="M0,0 L16,6 L0,12 L0,0" fill="#000000" stroke="#000000" stroke-width="1"></path></marker><marker id="SvgjsMarker1142" markerWidth="16" markerHeight="12" refX="11" refY="6" viewBox="0 0 16 12" orient="auto" markerUnits="userSpaceOnUse" stroke-dasharray="0,0"><path id="SvgjsPath1143" d="M0,0 L16,6 L0,12 L0,0" fill="#000000" stroke="#000000" stroke-width="1"></path></marker><marker id="SvgjsMarker1182" markerWidth="16" markerHeight="12" refX="11" refY="6" viewBox="0 0 16 12" orient="auto" markerUnits="userSpaceOnUse" stroke-dasharray="0,0"><path id="SvgjsPath1183" d="M0,0 L16,6 L0,12 L0,0" fill="#000000" stroke="#000000" stroke-width="1"></path></marker><marker id="SvgjsMarker1252" markerWidth="16" markerHeight="12" refX="11" refY="6" viewBox="0 0 16 12" orient="auto" markerUnits="userSpaceOnUse" stroke-dasharray="0,0"><path id="SvgjsPath1253" d="M0,0 L16,6 L0,12 L0,0" fill="#000000" stroke="#000000" stroke-width="1"></path></marker><marker id="SvgjsMarker1256" markerWidth="16" markerHeight="12" refX="11" refY="6" viewBox="0 0 16 12" orient="auto" markerUnits="userSpaceOnUse" stroke-dasharray="0,0"><path id="SvgjsPath1257" d="M0,0 L16,6 L0,12 L0,0" fill="#000000" stroke="#000000" stroke-width="1"></path></marker><marker id="SvgjsMarker1260" markerWidth="16" markerHeight="12" refX="11" refY="6" viewBox="0 0 16 12" orient="auto" markerUnits="userSpaceOnUse" stroke-dasharray="0,0"><path id="SvgjsPath1261" d="M0,0 L16,6 L0,12 L0,0" fill="#000000" stroke="#000000" stroke-width="1"></path></marker><marker id="SvgjsMarker1264" markerWidth="16" markerHeight="12" refX="11" refY="6" viewBox="0 0 16 12" orient="auto" markerUnits="userSpaceOnUse" stroke-dasharray="0,0"><path id="SvgjsPath1265" d="M0,0 L16,6 L0,12 L0,0" fill="#000000" stroke="#000000" stroke-width="1"></path></marker><marker id="SvgjsMarker1268" markerWidth="16" markerHeight="12" refX="11" refY="6" viewBox="0 0 16 12" orient="auto" markerUnits="userSpaceOnUse" stroke-dasharray="0,0"><path id="SvgjsPath1269" d="M0,0 L16,6 L0,12 L0,0" fill="#323232" stroke="#323232" stroke-width="1"></path></marker></defs><g id="SvgjsG1008" transform="translate(291.05674841601024,34.9939201523988)"><path id="SvgjsPath1009" d="M 0 4Q 0 0 4 0L 445.6954334216705 0Q 449.6954334216705 0 449.6954334216705 4L 449.6954334216705 221.39599222820902Q 449.6954334216705 225.39599222820902 445.6954334216705 225.39599222820902L 4 225.39599222820902Q 0 225.39599222820902 0 221.39599222820902Z" stroke-dasharray="10,6" stroke="rgba(0,0,0,1)" stroke-width="3" fill-opacity="1" fill="#f5f5f5"></path><g id="SvgjsG1010"><text id="SvgjsText1011" font-family="微软雅黑" text-anchor="middle" font-size="23px" width="430px" fill="#212121" font-weight="700" align="middle" lineHeight="125%" anchor="middle" family="微软雅黑" size="23px" weight="700" font-style="" opacity="1" y="93.32299611410451" transform="rotate(0)"></text></g></g><g id="SvgjsG1012" transform="translate(312.28488529813944,106.78452550826796)"><path id="SvgjsPath1013" d="M 0 4Q 0 0 4 0L 405 0Q 409 0 409 4L 409 128Q 409 132 405 132L 4 132Q 0 132 0 128Z" stroke="rgba(0,0,0,1)" stroke-width="3" fill-opacity="1" fill="#f5f5f5"></path><g id="SvgjsG1014"><text id="SvgjsText1015" font-family="微软雅黑" text-anchor="middle" font-size="23px" width="389px" fill="#212121" font-weight="700" align="middle" lineHeight="125%" anchor="middle" family="微软雅黑" size="23px" weight="700" font-style="" opacity="1" y="46.625" transform="rotate(0)"></text></g></g><g id="SvgjsG1016" transform="translate(342.49537421775483,159.99392015239874)"><path id="SvgjsPath1017" d="M 0 4Q 0 0 4 0L 163 0Q 167 0 167 4L 167 58Q 167 62 163 62L 4 62Q 0 62 0 58Z" stroke="rgba(0,0,0,1)" stroke-width="3" fill-opacity="1" fill="#f5f5f5"></path><g id="SvgjsG1018"><text id="SvgjsText1019" font-family="微软雅黑" text-anchor="middle" font-size="23px" width="147px" fill="#212121" font-weight="700" align="middle" lineHeight="125%" anchor="middle" family="微软雅黑" size="23px" weight="700" font-style="" opacity="1" y="11.625" transform="rotate(0)"><tspan id="SvgjsTspan1020" dy="28" x="83.5"><tspan id="SvgjsTspan1021" style="text-decoration:;">Selector</tspan></tspan></text></g></g><g id="SvgjsG1022" transform="translate(526.4044651268455,159.99392015239874)"><path id="SvgjsPath1023" d="M 0 4Q 0 0 4 0L 163 0Q 167 0 167 4L 167 58Q 167 62 163 62L 4 62Q 0 62 0 58Z" stroke="rgba(0,0,0,1)" stroke-width="3" fill-opacity="1" fill="#f5f5f5"></path><g id="SvgjsG1024"><text id="SvgjsText1025" font-family="微软雅黑" text-anchor="middle" font-size="23px" width="147px" fill="#212121" font-weight="700" align="middle" lineHeight="125%" anchor="middle" family="微软雅黑" size="23px" weight="700" font-style="" opacity="1" y="11.625" transform="rotate(0)"><tspan id="SvgjsTspan1026" dy="28" x="83.5"><tspan id="SvgjsTspan1027" style="text-decoration:;">TaskQueue</tspan></tspan></text></g></g><g id="SvgjsG1028" transform="translate(441.49537421775483,110.9939201523988)"><path id="SvgjsPath1029" d="M 0 0L 167 0L 167 34L 0 34Z" stroke="none" fill="none"></path><g id="SvgjsG1030"><text id="SvgjsText1031" font-family="微软雅黑" text-anchor="middle" font-size="23px" width="167px" fill="#212121" font-weight="700" align="middle" lineHeight="125%" anchor="middle" family="微软雅黑" size="23px" weight="700" font-style="" opacity="1" y="-2.375" transform="rotate(0)"><tspan id="SvgjsTspan1032" dy="28" x="83.5"><tspan id="SvgjsTspan1033" style="text-decoration:;">NioEventLoop</tspan></tspan></text></g></g><g id="SvgjsG1034" transform="translate(441.49537421775483,38.9939201523988)"><path id="SvgjsPath1035" d="M 0 0L 167 0L 167 34L 0 34Z" stroke="none" fill="none"></path><g id="SvgjsG1036"><text id="SvgjsText1037" font-family="微软雅黑" text-anchor="middle" font-size="23px" width="167px" fill="#212121" font-weight="700" align="middle" lineHeight="125%" anchor="middle" family="微软雅黑" size="23px" weight="700" font-style="" opacity="1" y="-2.375" transform="rotate(0)"><tspan id="SvgjsTspan1038" dy="28" x="83.5"><tspan id="SvgjsTspan1039" style="text-decoration:;">Boss Group</tspan></tspan></text></g></g><g id="SvgjsG1040" transform="translate(327.9118392482877,629.8943679582351)"><path id="SvgjsPath1041" d="M 0 146C 0 -48.666666666666664 356 -48.666666666666664 356 146C 356 340.6666666666667 0 340.6666666666667 0 146Z" stroke="rgba(0,0,0,1)" stroke-width="3" fill-opacity="1" fill="#f5f5f5"></path><g id="SvgjsG1042"><text id="SvgjsText1043" font-family="微软雅黑" text-anchor="middle" font-size="23px" width="336px" fill="#212121" font-weight="700" align="middle" lineHeight="125%" anchor="middle" family="微软雅黑" size="23px" weight="700" font-style="" opacity="1" y="126.625" transform="rotate(0)"></text></g></g><g id="SvgjsG1044" transform="translate(436.9044651268455,602.3121019705807)"><path id="SvgjsPath1045" d="M 0 4Q 0 0 4 0L 154 0Q 158 0 158 4L 158 67Q 158 71 154 71L 4 71Q 0 71 0 67Z" stroke="rgba(0,0,0,1)" stroke-width="3" fill-opacity="1" fill="#f5f5f5"></path><g id="SvgjsG1046"><text id="SvgjsText1047" font-family="微软雅黑" text-anchor="middle" font-size="23px" width="138px" fill="#212121" font-weight="700" align="middle" lineHeight="125%" anchor="middle" family="微软雅黑" size="23px" weight="700" font-style="" opacity="1" y="1.625" transform="rotate(0)"><tspan id="SvgjsTspan1048" dy="28" x="79"><tspan id="SvgjsTspan1049" style="text-decoration:;">step1:</tspan></tspan><tspan id="SvgjsTspan1050" dy="28" x="79"><tspan id="SvgjsTspan1051" style="text-decoration:;">select</tspan></tspan></text></g></g><g id="SvgjsG1052" transform="translate(526.7287536393459,772.3121019705807)"><path id="SvgjsPath1053" d="M 0 4Q 0 0 4 0L 286 0Q 290 0 290 4L 290 67Q 290 71 286 71L 4 71Q 0 71 0 67Z" stroke="rgba(0,0,0,1)" stroke-width="3" fill-opacity="1" fill="#f5f5f5"></path><g id="SvgjsG1054"><text id="SvgjsText1055" font-family="微软雅黑" text-anchor="middle" font-size="23px" width="270px" fill="#212121" font-weight="700" align="middle" lineHeight="125%" anchor="middle" family="微软雅黑" size="23px" weight="700" font-style="" opacity="1" y="1.625" transform="rotate(0)"><tspan id="SvgjsTspan1056" dy="28" x="145"><tspan id="SvgjsTspan1057" style="text-decoration:;">step2：</tspan></tspan><tspan id="SvgjsTspan1058" dy="28" x="145"><tspan id="SvgjsTspan1059" style="text-decoration:;">processSelectedKeys</tspan></tspan></text></g></g><g id="SvgjsG1060" transform="translate(283.8831109001676,772.3121019705807)"><path id="SvgjsPath1061" d="M 0 4Q 0 0 4 0L 163 0Q 167 0 167 4L 167 67Q 167 71 163 71L 4 71Q 0 71 0 67Z" stroke="rgba(0,0,0,1)" stroke-width="3" fill-opacity="1" fill="#f5f5f5"></path><g id="SvgjsG1062"><text id="SvgjsText1063" font-family="微软雅黑" text-anchor="middle" font-size="23px" width="147px" fill="#212121" font-weight="700" align="middle" lineHeight="125%" anchor="middle" family="微软雅黑" size="23px" weight="700" font-style="" opacity="1" y="1.625" transform="rotate(0)"><tspan id="SvgjsTspan1064" dy="28" x="83.5"><tspan id="SvgjsTspan1065" style="text-decoration:;">step3:</tspan></tspan><tspan id="SvgjsTspan1066" dy="28" x="83.5"><tspan id="SvgjsTspan1067" style="text-decoration:;">runAllTasks</tspan></tspan></text></g></g><g id="SvgjsG1068" transform="translate(401.8172046897745,707.0249862670898)"><path id="SvgjsPath1069" d="M 0 0L 189 0L 189 55L 0 55Z" stroke="none" fill="none"></path><g id="SvgjsG1070"><text id="SvgjsText1071" font-family="微软雅黑" text-anchor="middle" font-size="23px" width="189px" fill="#212121" font-weight="700" align="middle" lineHeight="125%" anchor="middle" family="微软雅黑" size="23px" weight="700" font-style="" opacity="1" y="8.125" transform="rotate(0)"><tspan id="SvgjsTspan1072" dy="28" x="94.5"><tspan id="SvgjsTspan1073" style="text-decoration:;">NioEventLoop</tspan></tspan></text></g></g><g id="SvgjsG1074" transform="translate(463.9044651268456,431.0580791315943)"><path id="SvgjsPath1075" d="M 0 0L 104 0L 104 45L 0 45Z" stroke="none" fill="none"></path><g id="SvgjsG1076"><text id="SvgjsText1077" font-family="微软雅黑" text-anchor="middle" font-size="23px" width="104px" fill="#212121" font-weight="700" align="middle" lineHeight="125%" anchor="middle" family="微软雅黑" size="23px" weight="700" font-style="" opacity="1" y="3.125" transform="rotate(0)"></text></g></g><g id="SvgjsG1078"><path id="SvgjsPath1079" d="M515.9044651268455 240.28452550826796L515.9044651268455 420.54831373942426L515.9044651268455 420.54831373942426L515.9044651268455 596.9121019705806" stroke="#000000" stroke-width="3" fill="none" marker-end="url(#SvgjsMarker1080)"></path><rect id="SvgjsRect1082" width="79" height="29" x="476.4044651268455" y="404.09831373942427" fill="#ffffff"></rect><text id="SvgjsText1083" font-family="微软雅黑" text-anchor="middle" font-size="23px" width="79px" fill="#212121" font-weight="700" align="top" lineHeight="29px" anchor="middle" family="微软雅黑" size="23px" weight="700" font-style="" opacity="1" y="399.22331373942427" transform="rotate(0)"><tspan id="SvgjsTspan1084" dy="28" x="515.9044651268455"><tspan id="SvgjsTspan1085" style="text-decoration:;">Accept</tspan></tspan></text></g><g id="SvgjsG1086" transform="translate(960.2750980187341,34.9939201523988)"><path id="SvgjsPath1087" d="M 0 4Q 0 0 4 0L 456 0Q 460 0 460 4L 460 417.27272727272725Q 460 421.27272727272725 456 421.27272727272725L 4 421.27272727272725Q 0 421.27272727272725 0 417.27272727272725Z" stroke-dasharray="10,6" stroke="rgba(0,0,0,1)" stroke-width="3" fill-opacity="1" fill="#f5f5f5"></path><g id="SvgjsG1088"><text id="SvgjsText1089" font-family="微软雅黑" text-anchor="middle" font-size="23px" width="440px" fill="#212121" font-weight="700" align="middle" lineHeight="125%" anchor="middle" family="微软雅黑" size="23px" weight="700" font-style="" opacity="1" y="191.26136363636363" transform="rotate(0)"></text></g></g><g id="SvgjsG1090" transform="translate(978.4128378272296,104.02986056866615)"><path id="SvgjsPath1091" d="M 0 4Q 0 0 4 0L 416 0Q 420 0 420 4L 420 128Q 420 132 416 132L 4 132Q 0 132 0 128Z" stroke="rgba(0,0,0,1)" stroke-width="3" fill-opacity="1" fill="#f5f5f5"></path><g id="SvgjsG1092"><text id="SvgjsText1093" font-family="微软雅黑" text-anchor="middle" font-size="23px" width="400px" fill="#212121" font-weight="700" align="middle" lineHeight="125%" anchor="middle" family="微软雅黑" size="23px" weight="700" font-style="" opacity="1" y="46.625" transform="rotate(0)"></text></g></g><g id="SvgjsG1094" transform="translate(1009.0757022125288,159.9939201523988)"><path id="SvgjsPath1095" d="M 0 4Q 0 0 4 0L 163 0Q 167 0 167 4L 167 58Q 167 62 163 62L 4 62Q 0 62 0 58Z" stroke="rgba(0,0,0,1)" stroke-width="3" fill-opacity="1" fill="#f5f5f5"></path><g id="SvgjsG1096"><text id="SvgjsText1097" font-family="微软雅黑" text-anchor="middle" font-size="23px" width="147px" fill="#212121" font-weight="700" align="middle" lineHeight="125%" anchor="middle" family="微软雅黑" size="23px" weight="700" font-style="" opacity="1" y="11.625" transform="rotate(0)"><tspan id="SvgjsTspan1098" dy="28" x="83.5"><tspan id="SvgjsTspan1099" style="text-decoration:;">Selector</tspan></tspan></text></g></g><g id="SvgjsG1100" transform="translate(1193.052888524319,159.9939201523988)"><path id="SvgjsPath1101" d="M 0 4Q 0 0 4 0L 163 0Q 167 0 167 4L 167 58Q 167 62 163 62L 4 62Q 0 62 0 58Z" stroke="rgba(0,0,0,1)" stroke-width="3" fill-opacity="1" fill="#f5f5f5"></path><g id="SvgjsG1102"><text id="SvgjsText1103" font-family="微软雅黑" text-anchor="middle" font-size="23px" width="147px" fill="#212121" font-weight="700" align="middle" lineHeight="125%" anchor="middle" family="微软雅黑" size="23px" weight="700" font-style="" opacity="1" y="11.625" transform="rotate(0)"><tspan id="SvgjsTspan1104" dy="28" x="83.5"><tspan id="SvgjsTspan1105" style="text-decoration:;">TaskQueue</tspan></tspan></text></g></g><g id="SvgjsG1106" transform="translate(1104.9954318280793,110.9939201523988)"><path id="SvgjsPath1107" d="M 0 0L 167 0L 167 34L 0 34Z" stroke="none" fill="none"></path><g id="SvgjsG1108"><text id="SvgjsText1109" font-family="微软雅黑" text-anchor="middle" font-size="23px" width="167px" fill="#212121" font-weight="700" align="middle" lineHeight="125%" anchor="middle" family="微软雅黑" size="23px" weight="700" font-style="" opacity="1" y="-2.375" transform="rotate(0)"><tspan id="SvgjsTspan1110" dy="28" x="83.5"><tspan id="SvgjsTspan1111" style="text-decoration:;">NioEventLoop</tspan></tspan></text></g></g><g id="SvgjsG1112" transform="translate(988.2406789763634,299.0580791315943)"><path id="SvgjsPath1113" d="M 0 4Q 0 0 4 0L 405 0Q 409 0 409 4L 409 128Q 409 132 405 132L 4 132Q 0 132 0 128Z" stroke="rgba(0,0,0,1)" stroke-width="3" fill-opacity="1" fill="#f5f5f5"></path><g id="SvgjsG1114"><text id="SvgjsText1115" font-family="微软雅黑" text-anchor="middle" font-size="23px" width="389px" fill="#212121" font-weight="700" align="middle" lineHeight="125%" anchor="middle" family="微软雅黑" size="23px" weight="700" font-style="" opacity="1" y="46.625" transform="rotate(0)"></text></g></g><g id="SvgjsG1116" transform="translate(1018.903543361663,356.9939201523988)"><path id="SvgjsPath1117" d="M 0 4Q 0 0 4 0L 163 0Q 167 0 167 4L 167 58Q 167 62 163 62L 4 62Q 0 62 0 58Z" stroke="rgba(0,0,0,1)" stroke-width="3" fill-opacity="1" fill="#f5f5f5"></path><g id="SvgjsG1118"><text id="SvgjsText1119" font-family="微软雅黑" text-anchor="middle" font-size="23px" width="147px" fill="#212121" font-weight="700" align="middle" lineHeight="125%" anchor="middle" family="微软雅黑" size="23px" weight="700" font-style="" opacity="1" y="11.625" transform="rotate(0)"><tspan id="SvgjsTspan1120" dy="28" x="83.5"><tspan id="SvgjsTspan1121" style="text-decoration:;">Selector</tspan></tspan></text></g></g><g id="SvgjsG1122" transform="translate(1203.3135560359367,356.9939201523988)"><path id="SvgjsPath1123" d="M 0 4Q 0 0 4 0L 163 0Q 167 0 167 4L 167 58Q 167 62 163 62L 4 62Q 0 62 0 58Z" stroke="rgba(0,0,0,1)" stroke-width="3" fill-opacity="1" fill="#f5f5f5"></path><g id="SvgjsG1124"><text id="SvgjsText1125" font-family="微软雅黑" text-anchor="middle" font-size="23px" width="147px" fill="#212121" font-weight="700" align="middle" lineHeight="125%" anchor="middle" family="微软雅黑" size="23px" weight="700" font-style="" opacity="1" y="11.625" transform="rotate(0)"><tspan id="SvgjsTspan1126" dy="28" x="83.5"><tspan id="SvgjsTspan1127" style="text-decoration:;">TaskQueue</tspan></tspan></text></g></g><g id="SvgjsG1128" transform="translate(1114.823272977213,307.3220739504001)"><path id="SvgjsPath1129" d="M 0 0L 167 0L 167 34L 0 34Z" stroke="none" fill="none"></path><g id="SvgjsG1130"><text id="SvgjsText1131" font-family="微软雅黑" text-anchor="middle" font-size="23px" width="167px" fill="#212121" font-weight="700" align="middle" lineHeight="125%" anchor="middle" family="微软雅黑" size="23px" weight="700" font-style="" opacity="1" y="-2.375" transform="rotate(0)"><tspan id="SvgjsTspan1132" dy="28" x="83.5"><tspan id="SvgjsTspan1133" style="text-decoration:;">NioEventLoop</tspan></tspan></text></g></g><g id="SvgjsG1134" transform="translate(1106.5678864119407,242.86394394415953)"><path id="SvgjsPath1135" d="M 0 0L 151 0L 151 34L 0 34Z" stroke="none" fill="none"></path><g id="SvgjsG1136"><text id="SvgjsText1137" font-family="微软雅黑" text-anchor="middle" font-size="23px" width="151px" fill="#212121" font-weight="700" align="middle" lineHeight="125%" anchor="middle" family="微软雅黑" size="23px" weight="700" font-style="" opacity="1" y="-2.375" transform="rotate(0)"><tspan id="SvgjsTspan1138" dy="28" x="75.5"><tspan id="SvgjsTspan1139" style="text-decoration:;">......</tspan></tspan></text></g></g><g id="SvgjsG1140"><path id="SvgjsPath1141" d="M818.2259608207501 807.7206106816441C 1006.6539874648345 807.8121019705804 798.3154451508747 365.0580791315943 982.8507331233077 365.38744777176544" stroke="#000000" stroke-width="3" fill="none" marker-end="url(#SvgjsMarker1142)"></path><rect id="SvgjsRect1144" width="253" height="29" x="775.4981239738983" y="571.9648252199917" fill="#ffffff"></rect><text id="SvgjsText1145" font-family="微软雅黑" text-anchor="middle" font-size="23px" width="253px" fill="#212121" font-weight="700" align="top" lineHeight="29px" anchor="middle" family="微软雅黑" size="23px" weight="700" font-style="" opacity="1" y="567.0898252199917" transform="rotate(0)"><tspan id="SvgjsTspan1146" dy="28" x="901.9981239738983"><tspan id="SvgjsTspan1147" style="text-decoration:;">注册channel到Selector</tspan></tspan></text></g><g id="SvgjsG1148" transform="translate(1009.0757022125288,639.5356952468414)"><path id="SvgjsPath1149" d="M 0 146C 0 -48.666666666666664 356 -48.666666666666664 356 146C 356 340.6666666666667 0 340.6666666666667 0 146Z" stroke="rgba(0,0,0,1)" stroke-width="3" fill-opacity="1" fill="#f5f5f5"></path><g id="SvgjsG1150"><text id="SvgjsText1151" font-family="微软雅黑" text-anchor="middle" font-size="23px" width="336px" fill="#212121" font-weight="700" align="middle" lineHeight="125%" anchor="middle" family="微软雅黑" size="23px" weight="700" font-style="" opacity="1" y="126.625" transform="rotate(0)"></text></g></g><g id="SvgjsG1152" transform="translate(1113.407192015502,602.3121019705807)"><path id="SvgjsPath1153" d="M 0 4Q 0 0 4 0L 154 0Q 158 0 158 4L 158 67Q 158 71 154 71L 4 71Q 0 71 0 67Z" stroke="rgba(0,0,0,1)" stroke-width="3" fill-opacity="1" fill="#f5f5f5"></path><g id="SvgjsG1154"><text id="SvgjsText1155" font-family="微软雅黑" text-anchor="middle" font-size="23px" width="138px" fill="#212121" font-weight="700" align="middle" lineHeight="125%" anchor="middle" family="微软雅黑" size="23px" weight="700" font-style="" opacity="1" y="1.625" transform="rotate(0)"><tspan id="SvgjsTspan1156" dy="28" x="79"><tspan id="SvgjsTspan1157" style="text-decoration:;">step1:</tspan></tspan><tspan id="SvgjsTspan1158" dy="28" x="79"><tspan id="SvgjsTspan1159" style="text-decoration:;">select</tspan></tspan></text></g></g><g id="SvgjsG1160" transform="translate(1188.6081697449963,765.3121019705807)"><path id="SvgjsPath1161" d="M 0 4Q 0 0 4 0L 264.57142857142844 0Q 268.57142857142844 0 268.57142857142844 4L 268.57142857142844 67Q 268.57142857142844 71 264.57142857142844 71L 4 71Q 0 71 0 67Z" stroke="rgba(0,0,0,1)" stroke-width="3" fill-opacity="1" fill="#f5f5f5"></path><g id="SvgjsG1162"><text id="SvgjsText1163" font-family="微软雅黑" text-anchor="middle" font-size="23px" width="249px" fill="#212121" font-weight="700" align="middle" lineHeight="125%" anchor="middle" family="微软雅黑" size="23px" weight="700" font-style="" opacity="1" y="1.625" transform="rotate(0)"><tspan id="SvgjsTspan1164" dy="28" x="134.5"><tspan id="SvgjsTspan1165" style="text-decoration:;">step2：</tspan></tspan><tspan id="SvgjsTspan1166" dy="28" x="134.5"><tspan id="SvgjsTspan1167" style="text-decoration:;">processSelectedKeys</tspan></tspan></text></g></g><g id="SvgjsG1168" transform="translate(917.4802227025982,765.3121019705807)"><path id="SvgjsPath1169" d="M 0 4Q 0 0 4 0L 163 0Q 167 0 167 4L 167 67Q 167 71 163 71L 4 71Q 0 71 0 67Z" stroke="rgba(0,0,0,1)" stroke-width="3" fill-opacity="1" fill="#f5f5f5"></path><g id="SvgjsG1170"><text id="SvgjsText1171" font-family="微软雅黑" text-anchor="middle" font-size="23px" width="147px" fill="#212121" font-weight="700" align="middle" lineHeight="125%" anchor="middle" family="微软雅黑" size="23px" weight="700" font-style="" opacity="1" y="1.625" transform="rotate(0)"><tspan id="SvgjsTspan1172" dy="28" x="83.5"><tspan id="SvgjsTspan1173" style="text-decoration:;">step3:</tspan></tspan><tspan id="SvgjsTspan1174" dy="28" x="83.5"><tspan id="SvgjsTspan1175" style="text-decoration:;">runAllTasks</tspan></tspan></text></g></g><g id="SvgjsG1176" transform="translate(785.9987791356057,507.81026224507445)"><path id="SvgjsPath1177" d="M 0 0L 223.0769230769231 0L 223.0769230769231 62L 0 62Z" stroke="none" fill="none"></path><g id="SvgjsG1178"><text id="SvgjsText1179" font-family="微软雅黑" text-anchor="middle" font-size="23px" width="224px" fill="#212121" font-weight="700" align="middle" lineHeight="125%" anchor="middle" family="微软雅黑" size="23px" weight="700" font-style="" opacity="1" y="11.625" transform="rotate(0)"></text></g></g><g id="SvgjsG1180"><path id="SvgjsPath1181" d="M1192.7377579968515 432.55807628755116L1192.417707541762 596.9121122091359" stroke="#000000" stroke-width="3" fill="none" marker-end="url(#SvgjsMarker1182)"></path><rect id="SvgjsRect1184" width="133" height="29" x="1126.0777327693067" y="500.23509424834356" fill="#ffffff"></rect><text id="SvgjsText1185" font-family="微软雅黑" text-anchor="middle" font-size="23px" width="133px" fill="#212121" font-weight="700" align="top" lineHeight="29px" anchor="middle" family="微软雅黑" size="23px" weight="700" font-style="" opacity="1" y="495.36009424834356" transform="rotate(0)"><tspan id="SvgjsTspan1186" dy="28" x="1192.5777327693067"><tspan id="SvgjsTspan1187" style="text-decoration:;">Read/Write</tspan></tspan></text></g><g id="SvgjsG1188" transform="translate(1207.8135560359367,497.44846560694396)"><path id="SvgjsPath1189" d="M 0 0L 158 0L 158 45L 0 45Z" stroke="none" fill="none"></path><g id="SvgjsG1190"><text id="SvgjsText1191" font-family="微软雅黑" text-anchor="middle" font-size="23px" width="158px" fill="#212121" font-weight="700" align="middle" lineHeight="125%" anchor="middle" family="微软雅黑" size="23px" weight="700" font-style="" opacity="1" y="3.125" transform="rotate(0)"></text></g></g><g id="SvgjsG1192" transform="translate(1031.5708437418973,1002.4484822528959)"><path id="SvgjsPath1193" d="M 0 4Q 0 0 4 0L 341.0770843309974 0Q 345.0770843309974 0 345.0770843309974 4L 345.0770843309974 228.72727272727275Q 345.0770843309974 232.72727272727275 341.0770843309974 232.72727272727275L 4 232.72727272727275Q 0 232.72727272727275 0 228.72727272727275Z" stroke="rgba(0,0,0,1)" stroke-width="3" fill-opacity="1" fill="#f5f5f5"></path><g id="SvgjsG1194"><text id="SvgjsText1195" font-family="微软雅黑" text-anchor="middle" font-size="23px" width="326px" fill="#212121" font-weight="700" align="middle" lineHeight="125%" anchor="middle" family="微软雅黑" size="23px" weight="700" font-style="" opacity="1" y="96.98863636363637" transform="rotate(0)"></text></g></g><g id="SvgjsG1196" transform="translate(1055.4077306643721,1059.366355021912)"><path id="SvgjsPath1197" d="M 0 4Q 0 0 4 0L 293.4033104860472 0Q 297.4033104860472 0 297.4033104860472 4L 297.4033104860472 54.45974166671954Q 297.4033104860472 58.45974166671954 293.4033104860472 58.45974166671954L 4 58.45974166671954Q 0 58.45974166671954 0 54.45974166671954Z" stroke="rgba(0,0,0,1)" stroke-width="3" fill-opacity="1" fill="#f5f5f5"></path><g id="SvgjsG1198"><text id="SvgjsText1199" font-family="微软雅黑" text-anchor="middle" font-size="23px" width="278px" fill="#212121" font-weight="700" align="middle" lineHeight="125%" anchor="middle" family="微软雅黑" size="23px" weight="700" font-style="" opacity="1" y="9.854870833359769" transform="rotate(0)"><tspan id="SvgjsTspan1200" dy="28" x="149"><tspan id="SvgjsTspan1201" style="text-decoration:;">ChannelHanlder</tspan></tspan></text></g></g><g id="SvgjsG1202" transform="translate(1119.7203413710356,1115.1943263324026)"><path id="SvgjsPath1203" d="M 0 0L 137.7542941208378 0L 137.7542941208378 27.994805868569923L 0 27.994805868569923Z" stroke="none" fill="none"></path><g id="SvgjsG1204"><text id="SvgjsText1205" font-family="微软雅黑" text-anchor="middle" font-size="23px" width="138px" fill="#212121" font-weight="700" align="middle" lineHeight="125%" anchor="middle" family="微软雅黑" size="23px" weight="700" font-style="" opacity="1" y="-5.3775970657150385" transform="rotate(0)"><tspan id="SvgjsTspan1206" dy="28" x="69"><tspan id="SvgjsTspan1207" style="text-decoration:;">......</tspan></tspan></text></g></g><g id="SvgjsG1208" transform="translate(1058.4079928776962,1155.113255823401)"><path id="SvgjsPath1209" d="M 0 4Q 0 0 4 0L 287.4027860593989 0Q 291.4027860593989 0 291.4027860593989 4L 291.4027860593989 54.45974166671954Q 291.4027860593989 58.45974166671954 287.4027860593989 58.45974166671954L 4 58.45974166671954Q 0 58.45974166671954 0 54.45974166671954Z" stroke="rgba(0,0,0,1)" stroke-width="3" fill-opacity="1" fill="#f5f5f5"></path><g id="SvgjsG1210"><text id="SvgjsText1211" font-family="微软雅黑" text-anchor="middle" font-size="23px" width="272px" fill="#212121" font-weight="700" align="middle" lineHeight="125%" anchor="middle" family="微软雅黑" size="23px" weight="700" font-style="" opacity="1" y="9.854870833359769" transform="rotate(0)"><tspan id="SvgjsTspan1212" dy="28" x="146"><tspan id="SvgjsTspan1213" style="text-decoration:;">ChannelHanlder</tspan></tspan></text></g></g><g id="SvgjsG1214" transform="translate(1048.1054430463792,1007.1189334223814)"><path id="SvgjsPath1215" d="M 0 4Q 0 0 4 0L 308.00788572203373 0Q 312.00788572203373 0 312.00788572203373 4L 312.00788572203373 33.051948943695486Q 312.00788572203373 37.051948943695486 308.00788572203373 37.051948943695486L 4 37.051948943695486Q 0 37.051948943695486 0 33.051948943695486Z" stroke="rgba(245,245,245,1)" stroke-width="3" fill-opacity="1" fill="#f5f5f5"></path><g id="SvgjsG1216"><text id="SvgjsText1217" font-family="微软雅黑" text-anchor="middle" font-size="23px" width="293px" fill="#212121" font-weight="700" align="middle" lineHeight="125%" anchor="middle" family="微软雅黑" size="23px" weight="700" font-style="" opacity="1" y="-0.8490255281522572" transform="rotate(0)"><tspan id="SvgjsTspan1218" dy="28" x="156.5"><tspan id="SvgjsTspan1219" style="text-decoration:;">Pipeline</tspan></tspan></text></g></g><g id="SvgjsG1220" transform="translate(491.3135560359367,1247.056052381781)"><path id="SvgjsPath1221" d="M 0 0L 326 0L 326 55L 0 55Z" stroke="none" fill="none"></path><g id="SvgjsG1222"><text id="SvgjsText1223" font-family="微软雅黑" text-anchor="middle" font-size="23px" width="326px" fill="#212121" font-weight="700" align="middle" lineHeight="125%" anchor="middle" family="微软雅黑" size="23px" weight="700" font-style="" opacity="1" y="8.125" transform="rotate(0)"><tspan id="SvgjsTspan1224" dy="28" x="163"><tspan id="SvgjsTspan1225" style="text-decoration:;">Netty Reactor 工作架构图</tspan></tspan></text></g></g><g id="SvgjsG1226" transform="translate(24.995374217754943,24.9939201523988)"><path id="SvgjsPath1227" d="M 0 4Q 0 0 4 0L 132 0Q 136 0 136 4L 136 58Q 136 62 132 62L 4 62Q 0 62 0 58Z" stroke="rgba(0,0,0,1)" stroke-width="3" fill-opacity="1" fill="#f5f5f5"></path><g id="SvgjsG1228"><text id="SvgjsText1229" font-family="微软雅黑" text-anchor="middle" font-size="23px" width="116px" fill="#212121" font-weight="700" align="middle" lineHeight="125%" anchor="middle" family="微软雅黑" size="23px" weight="700" font-style="" opacity="1" y="11.625" transform="rotate(0)"><tspan id="SvgjsTspan1230" dy="28" x="68"><tspan id="SvgjsTspan1231" style="text-decoration:;">Client</tspan></tspan></text></g></g><g id="SvgjsG1232" transform="translate(24.995374217754943,142.59516972309362)"><path id="SvgjsPath1233" d="M 0 4Q 0 0 4 0L 132 0Q 136 0 136 4L 136 58Q 136 62 132 62L 4 62Q 0 62 0 58Z" stroke="rgba(0,0,0,1)" stroke-width="3" fill-opacity="1" fill="#f5f5f5"></path><g id="SvgjsG1234"><text id="SvgjsText1235" font-family="微软雅黑" text-anchor="middle" font-size="23px" width="116px" fill="#212121" font-weight="700" align="middle" lineHeight="125%" anchor="middle" family="微软雅黑" size="23px" weight="700" font-style="" opacity="1" y="11.625" transform="rotate(0)"><tspan id="SvgjsTspan1236" dy="28" x="68"><tspan id="SvgjsTspan1237" style="text-decoration:;">Client</tspan></tspan></text></g></g><g id="SvgjsG1238" transform="translate(24.995374217754943,272.0644218843857)"><path id="SvgjsPath1239" d="M 0 4Q 0 0 4 0L 132 0Q 136 0 136 4L 136 58Q 136 62 132 62L 4 62Q 0 62 0 58Z" stroke="rgba(0,0,0,1)" stroke-width="3" fill-opacity="1" fill="#f5f5f5"></path><g id="SvgjsG1240"><text id="SvgjsText1241" font-family="微软雅黑" text-anchor="middle" font-size="23px" width="116px" fill="#212121" font-weight="700" align="middle" lineHeight="125%" anchor="middle" family="微软雅黑" size="23px" weight="700" font-style="" opacity="1" y="11.625" transform="rotate(0)"><tspan id="SvgjsTspan1242" dy="28" x="68"><tspan id="SvgjsTspan1243" style="text-decoration:;">Client</tspan></tspan></text></g></g><g id="SvgjsG1244" transform="translate(1123.3135560359367,38.9939201523988)"><path id="SvgjsPath1245" d="M 0 0L 167 0L 167 34L 0 34Z" stroke="none" fill="none"></path><g id="SvgjsG1246"><text id="SvgjsText1247" font-family="微软雅黑" text-anchor="middle" font-size="23px" width="167px" fill="#212121" font-weight="700" align="middle" lineHeight="125%" anchor="middle" family="微软雅黑" size="23px" weight="700" font-style="" opacity="1" y="-2.375" transform="rotate(0)"><tspan id="SvgjsTspan1248" dy="28" x="83.5"><tspan id="SvgjsTspan1249" style="text-decoration:;">Worker Group</tspan></tspan></text></g></g><g id="SvgjsG1250"><path id="SvgjsPath1251" d="M650.4600003373498 642.0030806733969C 701.5711114484611 673.9232164725338 710.46000033735 702.8121053614227 726.0155558929057 753.9232164725338" stroke="#000000" stroke-width="3" fill="none" marker-end="url(#SvgjsMarker1252)"></path></g><g id="SvgjsG1254"><path id="SvgjsPath1255" d="M162.49201106430922 56.094310139627396C 225.4291805694512 52.9939201523988 226.62294206431363 148.03212403752542 285.6911263374499 147.42376582884788" stroke="#000000" stroke-width="3" fill="none" marker-end="url(#SvgjsMarker1256)"></path></g><g id="SvgjsG1258"><path id="SvgjsPath1259" d="M162.49393740216868 174.02953145438266C 214.05419954775482 174.0951697230936 237.99792308601002 148.03212403752542 285.66192095212034 148.26842180488472" stroke="#000000" stroke-width="3" fill="none" marker-end="url(#SvgjsMarker1260)"></path></g><g id="SvgjsG1262"><path id="SvgjsPath1263" d="M162.48496396869152 303.38800653951915C 242.09408615017742 303.5644218843857 209.95803648358742 148.03212403752542 285.6942253126382 148.66721927904499" stroke="#000000" stroke-width="3" fill="none" marker-end="url(#SvgjsMarker1264)"></path></g><g id="SvgjsG1266"><path id="SvgjsPath1267" d="M1373.0070745418452 837.8100090210179C 1373.086286082989 932.4188480093942 1274.177192399573 931.5393913438049 1207.914336577452 1003.2871778980247" stroke="#323232" stroke-width="3" fill="none" marker-end="url(#SvgjsMarker1268)"></path></g></svg>