<svg id="SvgjsSvg1273" width="634.5125122070312" height="353.7875061035156" xmlns="http://www.w3.org/2000/svg" version="1.1" xmlns:xlink="http://www.w3.org/1999/xlink" xmlns:svgjs="http://svgjs.com/svgjs"><defs id="SvgjsDefs1274"><marker id="SvgjsMarker1314" markerWidth="14" markerHeight="10" refX="10" refY="5" viewBox="0 0 14 10" orient="auto" markerUnits="userSpaceOnUse" stroke-dasharray="0,0"><path id="SvgjsPath1315" d="M0,0 L14,5 L0,10 L0,0" fill="#323232" stroke="#323232" stroke-width="1"></path></marker><marker id="SvgjsMarker1337" markerWidth="14" markerHeight="10" refX="10" refY="5" viewBox="0 0 14 10" orient="auto" markerUnits="userSpaceOnUse" stroke-dasharray="0,0"><path id="SvgjsPath1338" d="M0,0 L14,5 L0,10 L0,0" fill="#323232" stroke="#323232" stroke-width="1"></path></marker><marker id="SvgjsMarker1371" markerWidth="14" markerHeight="10" refX="10" refY="5" viewBox="0 0 14 10" orient="auto" markerUnits="userSpaceOnUse" stroke-dasharray="0,0"><path id="SvgjsPath1372" d="M0,0 L14,5 L0,10 L0,0" fill="#323232" stroke="#323232" stroke-width="1"></path></marker><marker id="SvgjsMarker1381" markerWidth="14" markerHeight="10" refX="10" refY="5" viewBox="0 0 14 10" orient="auto" markerUnits="userSpaceOnUse" stroke-dasharray="0,0"><path id="SvgjsPath1382" d="M0,0 L14,5 L0,10 L0,0" fill="#323232" stroke="#323232" stroke-width="1"></path></marker><marker id="SvgjsMarker1412" markerWidth="14" markerHeight="10" refX="10" refY="5" viewBox="0 0 14 10" orient="auto" markerUnits="userSpaceOnUse" stroke-dasharray="0,0"><path id="SvgjsPath1413" d="M0,0 L14,5 L0,10 L0,0" fill="#323232" stroke="#323232" stroke-width="1"></path></marker></defs><g id="SvgjsG1275" transform="translate(25.012496948242188,106.2888598971897)"><path id="SvgjsPath1276" d="M 141 0Q 132 0 132 9L 132 41Q 132 50 119 50Q 132 50 132 59L 132 91Q 132 100 141 100" stroke="rgba(50,50,50,1)" stroke-width="2" fill="none"></path><path id="SvgjsPath1277" d="M 0 0L 141 0L 141 100L 0 100Z" stroke="none" fill="none"></path><g id="SvgjsG1278"><text id="SvgjsText1279" font-family="微软雅黑" text-anchor="end" font-size="13px" width="114px" fill="#323232" font-weight="400" align="middle" lineHeight="125%" anchor="end" family="微软雅黑" size="13px" weight="400" font-style="" opacity="1" y="23.875" transform="rotate(0)"><tspan id="SvgjsTspan1280" dy="16" x="114"><tspan id="SvgjsTspan1281" style="text-decoration:;">进程阻塞于select调</tspan></tspan><tspan id="SvgjsTspan1282" dy="16" x="114"><tspan id="SvgjsTspan1283" style="text-decoration:;">用,等待一个或多个</tspan></tspan><tspan id="SvgjsTspan1284" dy="16" x="114"><tspan id="SvgjsTspan1285" style="text-decoration:;">socket变为可读</tspan></tspan></text></g></g><g id="SvgjsG1286" transform="translate(167.0124969482422,91.2888598971897)"><path id="SvgjsPath1287" d="M 0 0L 77 0L 77 36L 0 36Z" stroke="none" fill="none"></path><g id="SvgjsG1288"><text id="SvgjsText1289" font-family="微软雅黑" text-anchor="middle" font-size="14px" width="77px" fill="#323232" font-weight="400" align="middle" lineHeight="125%" anchor="middle" family="微软雅黑" size="14px" weight="400" font-style="" opacity="1" y="7.25" transform="rotate(0)"><tspan id="SvgjsTspan1290" dy="17" x="38.5"><tspan id="SvgjsTspan1291" style="text-decoration:;">select</tspan></tspan></text></g></g><g id="SvgjsG1292" transform="translate(488.0124969482422,103.2888598971897)"><path id="SvgjsPath1293" d="M 0 106Q 9 106 9 97L 9 62Q 9 53 22 53Q 9 53 9 44L 9 9Q 9 0 0 0" stroke="rgba(50,50,50,1)" stroke-width="2" fill="none"></path><path id="SvgjsPath1294" d="M 0 0L 93 0L 93 106L 0 106Z" stroke="none" fill="none"></path><g id="SvgjsG1295"><text id="SvgjsText1296" font-family="微软雅黑" text-anchor="start" font-size="13px" width="66px" fill="#323232" font-weight="400" align="middle" lineHeight="125%" anchor="start" family="微软雅黑" size="13px" weight="400" font-style="" opacity="1" y="43.375" transform="rotate(0)"><tspan id="SvgjsTspan1297" dy="16" x="27"><tspan id="SvgjsTspan1298" style="text-decoration:;">等待数据</tspan></tspan></text></g></g><g id="SvgjsG1299" transform="translate(248.5124969482422,84.7888598971897)"><path id="SvgjsPath1300" d="M 0 0L 100 0L 100 27L 0 27Z" stroke="none" fill="none"></path><g id="SvgjsG1301"><text id="SvgjsText1302" font-family="微软雅黑" text-anchor="middle" font-size="13px" width="100px" fill="#323232" font-weight="400" align="middle" lineHeight="125%" anchor="middle" family="微软雅黑" size="13px" weight="400" font-style="" opacity="1" y="3.875" transform="rotate(0)"><tspan id="SvgjsTspan1303" dy="16" x="50"><tspan id="SvgjsTspan1304" style="text-decoration:;">系统调用</tspan></tspan></text></g></g><g id="SvgjsG1305" transform="translate(384.5124969482422,95.7888598971897)"><path id="SvgjsPath1306" d="M 0 0L 110 0L 110 27L 0 27Z" stroke="none" fill="none"></path><g id="SvgjsG1307"><text id="SvgjsText1308" font-family="微软雅黑" text-anchor="middle" font-size="13px" width="110px" fill="#323232" font-weight="400" align="middle" lineHeight="125%" anchor="middle" family="微软雅黑" size="13px" weight="400" font-style="" opacity="1" y="3.875" transform="rotate(0)"><tspan id="SvgjsTspan1309" dy="16" x="55"><tspan id="SvgjsTspan1310" style="text-decoration:;">无数据报</tspan><tspan id="SvgjsTspan1311" style="text-decoration:;font-size: inherit;">准备好</tspan></tspan></text></g></g><g id="SvgjsG1312"><path id="SvgjsPath1313" d="M245.0124969482422 109.2888598971897L311.8273827868636 109.2888598971897L311.8273827868636 109.2888598971897L380.91249694824216 109.2888598971897" stroke="#323232" stroke-width="2" fill="none" marker-end="url(#SvgjsMarker1314)"></path></g><g id="SvgjsG1316" transform="translate(401.0124969482422,302.7888598971897)"><path id="SvgjsPath1317" d="M 0 0L 77 0L 77 27L 0 27Z" stroke="none" fill="none"></path><g id="SvgjsG1318"><text id="SvgjsText1319" font-family="微软雅黑" text-anchor="middle" font-size="13px" width="77px" fill="#323232" font-weight="400" align="middle" lineHeight="125%" anchor="middle" family="微软雅黑" size="13px" weight="400" font-style="" opacity="1" y="3.875" transform="rotate(0)"><tspan id="SvgjsTspan1320" dy="16" x="38.5"><tspan id="SvgjsTspan1321" style="text-decoration:;">复制完成</tspan></tspan></text></g></g><g id="SvgjsG1322" transform="translate(487.5124969482422,231.7888598971897)"><path id="SvgjsPath1323" d="M 0 93Q 9 93 9 84L 9 55.5Q 9 46.5 22 46.5Q 9 46.5 9 37.5L 9 9Q 9 0 0 0" stroke="rgba(50,50,50,1)" stroke-width="2" fill="none"></path><path id="SvgjsPath1324" d="M 0 0L 122 0L 122 93L 0 93Z" stroke="none" fill="none"></path><g id="SvgjsG1325"><text id="SvgjsText1326" font-family="微软雅黑" text-anchor="start" font-size="13px" width="95px" fill="#323232" font-weight="400" align="middle" lineHeight="125%" anchor="start" family="微软雅黑" size="13px" weight="400" font-style="" opacity="1" y="36.875" transform="rotate(0)"><tspan id="SvgjsTspan1327" dy="16" x="27"><tspan id="SvgjsTspan1328" style="text-decoration:;">拷贝数据</tspan></tspan></text></g></g><g id="SvgjsG1329" transform="translate(167.0124969482422,302.7888598971897)"><path id="SvgjsPath1330" d="M 0 0L 77 0L 77 27L 0 27Z" stroke="none" fill="none"></path><g id="SvgjsG1331"><text id="SvgjsText1332" font-family="微软雅黑" text-anchor="middle" font-size="13px" width="77px" fill="#323232" font-weight="400" align="middle" lineHeight="125%" anchor="middle" family="微软雅黑" size="13px" weight="400" font-style="" opacity="1" y="3.875" transform="rotate(0)"><tspan id="SvgjsTspan1333" dy="16" x="38.5"><tspan id="SvgjsTspan1334" style="text-decoration:;">处理数据报</tspan></tspan></text></g></g><g id="SvgjsG1335"><path id="SvgjsPath1336" d="M400.0124969482422 316.2888598971897L323.1839180788919 316.2888598971897L323.1839180788919 316.2888598971897L247.6124969482422 316.2888598971897" stroke="#323232" stroke-width="2" fill="none" marker-end="url(#SvgjsMarker1337)"></path></g><g id="SvgjsG1339" transform="translate(240.5124969482422,286.0666376749664)"><path id="SvgjsPath1340" d="M 0 0L 160 0L 160 36L 0 36Z" stroke="none" fill="none"></path><g id="SvgjsG1341"><text id="SvgjsText1342" font-family="微软雅黑" text-anchor="middle" font-size="13px" width="160px" fill="#323232" font-weight="400" align="middle" lineHeight="125%" anchor="middle" family="微软雅黑" size="13px" weight="400" font-style="" opacity="1" y="8.375" transform="rotate(0)"><tspan id="SvgjsTspan1343" dy="16" x="80"><tspan id="SvgjsTspan1344" style="text-decoration:;">返回成功指示</tspan></tspan></text></g></g><g id="SvgjsG1345" transform="translate(163.5124969482422,218.2888598971897)"><path id="SvgjsPath1346" d="M 0 0L 84 0L 84 36L 0 36Z" stroke="none" fill="none"></path><g id="SvgjsG1347"><text id="SvgjsText1348" font-family="微软雅黑" text-anchor="middle" font-size="14px" width="84px" fill="#323232" font-weight="400" align="middle" lineHeight="125%" anchor="middle" family="微软雅黑" size="14px" weight="400" font-style="" opacity="1" y="7.25" transform="rotate(0)"><tspan id="SvgjsTspan1349" dy="17" x="42"><tspan id="SvgjsTspan1350" style="text-decoration:;">recvfrom</tspan></tspan></text></g></g><g id="SvgjsG1351" transform="translate(259.5124969482422,213.7888598971897)"><path id="SvgjsPath1352" d="M 0 0L 100 0L 100 27L 0 27Z" stroke="none" fill="none"></path><g id="SvgjsG1353"><text id="SvgjsText1354" font-family="微软雅黑" text-anchor="middle" font-size="13px" width="100px" fill="#323232" font-weight="400" align="middle" lineHeight="125%" anchor="middle" family="微软雅黑" size="13px" weight="400" font-style="" opacity="1" y="3.875" transform="rotate(0)"><tspan id="SvgjsTspan1355" dy="16" x="50"><tspan id="SvgjsTspan1356" style="text-decoration:;">系统调用</tspan></tspan></text></g></g><g id="SvgjsG1357" transform="translate(389.5124969482422,183.4550349217718)"><path id="SvgjsPath1358" d="M 0 0L 100 0L 100 21L 0 21Z" stroke="none" fill="none"></path><g id="SvgjsG1359"><text id="SvgjsText1360" font-family="微软雅黑" text-anchor="middle" font-size="13px" width="100px" fill="#323232" font-weight="400" align="middle" lineHeight="125%" anchor="middle" family="微软雅黑" size="13px" weight="400" font-style="" opacity="1" y="0.875" transform="rotate(0)"><tspan id="SvgjsTspan1361" dy="16" x="50"><tspan id="SvgjsTspan1362" style="text-decoration:;">数据报准备好</tspan></tspan></text></g></g><g id="SvgjsG1363" transform="translate(397.5124969482422,225.7888598971897)"><path id="SvgjsPath1364" d="M 0 0L 84 0L 84 21L 0 21Z" stroke="none" fill="none"></path><g id="SvgjsG1365"><text id="SvgjsText1366" font-family="微软雅黑" text-anchor="middle" font-size="13px" width="84px" fill="#323232" font-weight="400" align="middle" lineHeight="125%" anchor="middle" family="微软雅黑" size="13px" weight="400" font-style="" opacity="1" y="0.875" transform="rotate(0)"><tspan id="SvgjsTspan1367" dy="16" x="42"><tspan id="SvgjsTspan1368" style="text-decoration:;">复制数据报</tspan></tspan></text></g></g><g id="SvgjsG1369"><path id="SvgjsPath1370" d="M388.5125076462599 193.95040934927994L236.77851240476934 193.2485452462555" stroke="#323232" stroke-width="2" fill="none" marker-end="url(#SvgjsMarker1371)"></path></g><g id="SvgjsG1373" transform="translate(259.5124969482422,165.826716337701)"><path id="SvgjsPath1374" d="M 0 0L 100 0L 100 27L 0 27Z" stroke="none" fill="none"></path><g id="SvgjsG1375"><text id="SvgjsText1376" font-family="微软雅黑" text-anchor="middle" font-size="13px" width="100px" fill="#323232" font-weight="400" align="middle" lineHeight="125%" anchor="middle" family="微软雅黑" size="13px" weight="400" font-style="" opacity="1" y="3.875" transform="rotate(0)"><tspan id="SvgjsTspan1377" dy="16" x="50"><tspan id="SvgjsTspan1378" style="text-decoration:;">返回可读条件</tspan></tspan></text></g></g><g id="SvgjsG1379"><path id="SvgjsPath1380" d="M443.09994100098993 247.33048559368262L443.09994100098993 270.01878451207006L443.09994100098993 270.01878451207006L443.09994100098993 292.7070834304575" stroke="#323232" stroke-width="2" fill="none" marker-end="url(#SvgjsMarker1381)"></path></g><g id="SvgjsG1383" transform="translate(25.012496948242188,231.7888598971897)"><path id="SvgjsPath1384" d="M 141 0Q 132 0 132 9L 132 37.5Q 132 46.5 119 46.5Q 132 46.5 132 55.5L 132 84Q 132 93 141 93" stroke="rgba(50,50,50,1)" stroke-width="2" fill="none"></path><path id="SvgjsPath1385" d="M 0 0L 141 0L 141 93L 0 93Z" stroke="none" fill="none"></path><g id="SvgjsG1386"><text id="SvgjsText1387" font-family="微软雅黑" text-anchor="end" font-size="13px" width="114px" fill="#323232" font-weight="400" align="middle" lineHeight="125%" anchor="end" family="微软雅黑" size="13px" weight="400" font-style="" opacity="1" y="28.375" transform="rotate(0)"><tspan id="SvgjsTspan1388" dy="16" x="114"><tspan id="SvgjsTspan1389" style="text-decoration:;">数据复制到应用进</tspan></tspan><tspan id="SvgjsTspan1390" dy="16" x="114"><tspan id="SvgjsTspan1391" style="text-decoration:;">程内存空间受阻</tspan></tspan></text></g></g><g id="SvgjsG1392" transform="translate(140.0124969482422,63.788859897189695)"><path id="SvgjsPath1393" d="M 0 0L 131 0L 131 27L 0 27Z" stroke="none" fill="none"></path><g id="SvgjsG1394"><text id="SvgjsText1395" font-family="微软雅黑" text-anchor="middle" font-size="15px" width="131px" fill="#323232" font-weight="700" align="middle" lineHeight="125%" anchor="middle" family="微软雅黑" size="15px" weight="700" font-style="" opacity="1" y="2.625" transform="rotate(0)"><tspan id="SvgjsTspan1396" dy="18" x="65.5"><tspan id="SvgjsTspan1397" style="text-decoration:;">用户进程</tspan></tspan></text></g></g><g id="SvgjsG1398" transform="translate(359.5124969482422,59.288859897189695)"><path id="SvgjsPath1399" d="M 0 0L 160 0L 160 36L 0 36Z" stroke="none" fill="none"></path><g id="SvgjsG1400"><text id="SvgjsText1401" font-family="微软雅黑" text-anchor="middle" font-size="15px" width="160px" fill="#323232" font-weight="700" align="middle" lineHeight="125%" anchor="middle" family="微软雅黑" size="15px" weight="700" font-style="" opacity="1" y="7.125" transform="rotate(0)"><tspan id="SvgjsTspan1402" dy="18" x="80"><tspan id="SvgjsTspan1403" style="text-decoration:;">内核</tspan></tspan></text></g></g><g id="SvgjsG1404" transform="translate(229.5124969482422,25.01108211941198)"><path id="SvgjsPath1405" d="M 0 0L 160 0L 160 36L 0 36Z" stroke="none" fill="none"></path><g id="SvgjsG1406"><text id="SvgjsText1407" font-family="微软雅黑" text-anchor="middle" font-size="17px" width="160px" fill="#323232" font-weight="700" align="middle" lineHeight="125%" anchor="middle" family="微软雅黑" size="17px" weight="700" font-style="" opacity="1" y="4.875" transform="rotate(0)"><tspan id="SvgjsTspan1408" dy="21" x="80"><tspan id="SvgjsTspan1409" style="text-decoration:;">IO多路复用</tspan></tspan></text></g></g><g id="SvgjsG1410"><path id="SvgjsPath1411" d="M248.5124969482422 236.2888598971897L322.0124969482422 236.2888598971897L322.0124969482422 236.2888598971897L393.91249694824216 236.2888598971897" stroke="#323232" stroke-width="2" fill="none" marker-end="url(#SvgjsMarker1412)"></path></g></svg>