<svg id="SvgjsSvg1271" width="789.8999633789062" height="437.60003662109375" xmlns="http://www.w3.org/2000/svg" version="1.1" xmlns:xlink="http://www.w3.org/1999/xlink" xmlns:svgjs="http://svgjs.com/svgjs"><defs id="SvgjsDefs1272"><marker id="SvgjsMarker1356" markerWidth="14" markerHeight="10" refX="10" refY="5" viewBox="0 0 14 10" orient="auto" markerUnits="userSpaceOnUse" stroke-dasharray="0,0"><path id="SvgjsPath1357" d="M0,0 L14,5 L0,10 L0,0" fill="#323232" stroke="#323232" stroke-width="1"></path></marker><marker id="SvgjsMarker1404" markerWidth="14" markerHeight="10" refX="10" refY="5" viewBox="0 0 14 10" orient="auto" markerUnits="userSpaceOnUse" stroke-dasharray="0,0"><path id="SvgjsPath1405" d="M0,0 L14,5 L0,10 L0,0" fill="#323232" stroke="#323232" stroke-width="1"></path></marker><marker id="SvgjsMarker1444" markerWidth="14" markerHeight="10" refX="10" refY="5" viewBox="0 0 14 10" orient="auto" markerUnits="userSpaceOnUse" stroke-dasharray="0,0"><path id="SvgjsPath1445" d="M0,0 L14,5 L0,10 L0,0" fill="#323232" stroke="#323232" stroke-width="1"></path></marker><marker id="SvgjsMarker1456" markerWidth="14" markerHeight="10" refX="10" refY="5" viewBox="0 0 14 10" orient="auto" markerUnits="userSpaceOnUse" stroke-dasharray="0,0"><path id="SvgjsPath1457" d="M0,0 L14,5 L0,10 L0,0" fill="#323232" stroke="#323232" stroke-width="1"></path></marker><marker id="SvgjsMarker1474" markerWidth="14" markerHeight="10" refX="10" refY="5" viewBox="0 0 14 10" orient="auto" markerUnits="userSpaceOnUse" stroke-dasharray="0,0"><path id="SvgjsPath1475" d="M0,0 L14,5 L0,10 L0,0" fill="#323232" stroke="#323232" stroke-width="1"></path></marker></defs><g id="SvgjsG1273" transform="translate(25.009688483343723,24.999293253156566)"><path id="SvgjsPath1274" d="M 0 0L 121.60000000000001 0L 121.60000000000001 311L 0 311Z" stroke="rgba(50,50,50,1)" stroke-width="2" fill="none"></path><path id="SvgjsPath1275" d="M 0 0L 121.60000000000001 0L 121.60000000000001 40L 0 40Z" stroke="rgba(50,50,50,1)" stroke-width="2" fill-opacity="1" fill="#ffffff"></path><g id="SvgjsG1276"><text id="SvgjsText1277" font-family="微软雅黑" text-anchor="middle" font-size="16px" width="102px" fill="#323232" font-weight="400" align="middle" lineHeight="125%" anchor="middle" family="微软雅黑" size="16px" weight="400" font-style="" opacity="1" y="8" transform="rotate(0)"><tspan id="SvgjsTspan1278" dy="20" x="61"><tspan id="SvgjsTspan1279" style="text-decoration:;">阻塞I/O</tspan></tspan></text></g></g><g id="SvgjsG1280" transform="translate(146.6096884833434,24.999293253156566)"><path id="SvgjsPath1281" d="M 0 0L 121.60000000000001 0L 121.60000000000001 311L 0 311Z" stroke="rgba(50,50,50,1)" stroke-width="2" fill="none"></path><path id="SvgjsPath1282" d="M 0 0L 121.60000000000001 0L 121.60000000000001 40L 0 40Z" stroke="rgba(50,50,50,1)" stroke-width="2" fill-opacity="1" fill="#ffffff"></path><g id="SvgjsG1283"><text id="SvgjsText1284" font-family="微软雅黑" text-anchor="middle" font-size="16px" width="102px" fill="#323232" font-weight="400" align="middle" lineHeight="125%" anchor="middle" family="微软雅黑" size="16px" weight="400" font-style="" opacity="1" y="8" transform="rotate(0)"><tspan id="SvgjsTspan1285" dy="20" x="61"><tspan id="SvgjsTspan1286" style="text-decoration:;">无阻塞I/O</tspan></tspan></text></g></g><g id="SvgjsG1287" transform="translate(268.20968848334314,24.999293253156566)"><path id="SvgjsPath1288" d="M 0 0L 121.60000000000001 0L 121.60000000000001 311L 0 311Z" stroke="rgba(50,50,50,1)" stroke-width="2" fill="none"></path><path id="SvgjsPath1289" d="M 0 0L 121.60000000000001 0L 121.60000000000001 40L 0 40Z" stroke="rgba(50,50,50,1)" stroke-width="2" fill-opacity="1" fill="#ffffff"></path><g id="SvgjsG1290"><text id="SvgjsText1291" font-family="微软雅黑" text-anchor="middle" font-size="16px" width="102px" fill="#323232" font-weight="400" align="middle" lineHeight="125%" anchor="middle" family="微软雅黑" size="16px" weight="400" font-style="" opacity="1" y="8" transform="rotate(0)"><tspan id="SvgjsTspan1292" dy="20" x="61"><tspan id="SvgjsTspan1293" style="text-decoration:;">I/O多路复用</tspan></tspan></text></g></g><g id="SvgjsG1294" transform="translate(389.80968848334305,24.999293253156566)"><path id="SvgjsPath1295" d="M 0 0L 121.60000000000001 0L 121.60000000000001 311L 0 311Z" stroke="rgba(50,50,50,1)" stroke-width="2" fill="none"></path><path id="SvgjsPath1296" d="M 0 0L 121.60000000000001 0L 121.60000000000001 40L 0 40Z" stroke="rgba(50,50,50,1)" stroke-width="2" fill-opacity="1" fill="#ffffff"></path><g id="SvgjsG1297"><text id="SvgjsText1298" font-family="微软雅黑" text-anchor="middle" font-size="16px" width="102px" fill="#323232" font-weight="400" align="middle" lineHeight="125%" anchor="middle" family="微软雅黑" size="16px" weight="400" font-style="" opacity="1" y="8" transform="rotate(0)"><tspan id="SvgjsTspan1299" dy="20" x="61"><tspan id="SvgjsTspan1300" style="text-decoration:;">信号驱动I/O</tspan></tspan></text></g></g><g id="SvgjsG1301" transform="translate(511.4096884833432,24.999293253156566)"><path id="SvgjsPath1302" d="M 0 0L 121.60000000000001 0L 121.60000000000001 311L 0 311Z" stroke="rgba(50,50,50,1)" stroke-width="2" fill="none"></path><path id="SvgjsPath1303" d="M 0 0L 121.60000000000001 0L 121.60000000000001 40L 0 40Z" stroke="rgba(50,50,50,1)" stroke-width="2" fill-opacity="1" fill="#ffffff"></path><g id="SvgjsG1304"><text id="SvgjsText1305" font-family="微软雅黑" text-anchor="middle" font-size="16px" width="102px" fill="#323232" font-weight="400" align="middle" lineHeight="125%" anchor="middle" family="微软雅黑" size="16px" weight="400" font-style="" opacity="1" y="8" transform="rotate(0)"><tspan id="SvgjsTspan1306" dy="20" x="61"><tspan id="SvgjsTspan1307" style="text-decoration:;">异步I/O</tspan></tspan></text></g></g><g id="SvgjsG1308" transform="translate(644.9096976386165,66.99929325315657)"><path id="SvgjsPath1309" d="M 0 115.99510701497388Q 9 115.99510701497388 9 106.99510701497388L 9 66.99755350748694Q 9 57.99755350748694 22 57.99755350748694Q 9 57.99755350748694 9 48.99755350748694L 9 9Q 9 0 0 0" stroke="rgba(50,50,50,1)" stroke-width="2" fill="none"></path><path id="SvgjsPath1310" d="M 0 0L 92 0L 92 115.99510701497388L 0 115.99510701497388Z" stroke="none" fill="none"></path><g id="SvgjsG1311"><text id="SvgjsText1312" font-family="微软雅黑" text-anchor="start" font-size="13px" width="65px" fill="#323232" font-weight="400" align="middle" lineHeight="125%" anchor="start" family="微软雅黑" size="13px" weight="400" font-style="" opacity="1" y="48.37255350748694" transform="rotate(0)"><tspan id="SvgjsTspan1313" dy="16" x="27"><tspan id="SvgjsTspan1314" style="text-decoration:;">等待数据</tspan></tspan></text></g></g><g id="SvgjsG1315" transform="translate(644.9096976386165,182.99440026813045)"><path id="SvgjsPath1316" d="M 0 144.61112467447924Q 9 144.61112467447924 9 135.61112467447924L 9 81.30556233723962Q 9 72.30556233723962 22 72.30556233723962Q 9 72.30556233723962 9 63.30556233723962L 9 9Q 9 0 0 0" stroke="rgba(50,50,50,1)" stroke-width="2" fill="none"></path><path id="SvgjsPath1317" d="M 0 0L 119.55555894639906 0L 119.55555894639906 144.61112467447924L 0 144.61112467447924Z" stroke="none" fill="none"></path><g id="SvgjsG1318"><text id="SvgjsText1319" font-family="微软雅黑" text-anchor="start" font-size="13px" width="93px" fill="#323232" font-weight="400" align="middle" lineHeight="125%" anchor="start" family="微软雅黑" size="13px" weight="400" font-style="" opacity="1" y="54.18056233723962" transform="rotate(0)"><tspan id="SvgjsTspan1320" dy="16" x="27"><tspan id="SvgjsTspan1321" style="text-decoration:;">将数据从内核拷</tspan></tspan><tspan id="SvgjsTspan1322" dy="16" x="27"><tspan id="SvgjsTspan1323" style="text-decoration:;">贝到用户空间</tspan></tspan></text></g></g><g id="SvgjsG1324" transform="matrix(6.123233995736766e-17,1,-1,6.123233995736766e-17,505.68746390872604,345.60550895267136)"><path id="SvgjsPath1325" d="M 0 474.1902812110068Q 6.750001525878907 474.1902812110068 6.750001525878907 465.1902812110068L 6.750001525878907 246.0951406055034Q 6.750001525878907 237.0951406055034 22 237.0951406055034Q 6.750001525878907 237.0951406055034 6.750001525878907 228.0951406055034L 6.750001525878907 9Q 6.750001525878907 0 0 0" stroke="rgba(50,50,50,1)" stroke-width="2" fill="none"></path><path id="SvgjsPath1326" d="M 0 0L 67.50001525878906 0L 67.50001525878906 474.1902812110068L 0 474.1902812110068Z" stroke="none" fill="none"></path><g id="SvgjsG1327"><text id="SvgjsText1328" font-family="微软雅黑" text-anchor="start" font-size="13px" width="41px" fill="#323232" font-weight="400" align="middle" lineHeight="125%" anchor="start" family="微软雅黑" size="13px" weight="400" font-style="" opacity="1" y="227.4701406055034" transform="rotate(0)"></text></g></g><g id="SvgjsG1329" transform="matrix(6.123233995736766e-17,1,-1,6.123233995736766e-17,634.4374654346049,344.3555104785502)"><path id="SvgjsPath1330" d="M 0 118.42777205573316Q 6.625001525878907 118.42777205573316 6.625001525878907 109.42777205573316L 6.625001525878907 68.21388602786658Q 6.625001525878907 59.21388602786658 22 59.21388602786658Q 6.625001525878907 59.21388602786658 6.625001525878907 50.21388602786658L 6.625001525878907 9Q 6.625001525878907 0 0 0" stroke="rgba(50,50,50,1)" stroke-width="2" fill="none"></path><path id="SvgjsPath1331" d="M 0 0L 66.25001525878906 0L 66.25001525878906 118.42777205573316L 0 118.42777205573316Z" stroke="none" fill="none"></path><g id="SvgjsG1332"><text id="SvgjsText1333" font-family="微软雅黑" text-anchor="start" font-size="13px" width="40px" fill="#323232" font-weight="400" align="middle" lineHeight="125%" anchor="start" family="微软雅黑" size="13px" weight="400" font-style="" opacity="1" y="49.58888602786658" transform="rotate(0)"></text></g></g><g id="SvgjsG1334" transform="translate(215.29302181667646,364.10552494261015)"><path id="SvgjsPath1335" d="M 0 0L 122 0L 122 41L 0 41Z" stroke="none" fill="none"></path><g id="SvgjsG1336"><text id="SvgjsText1337" font-family="微软雅黑" text-anchor="middle" font-size="13px" width="122px" fill="#323232" font-weight="400" align="middle" lineHeight="125%" anchor="middle" family="微软雅黑" size="13px" weight="400" font-style="" opacity="1" y="2.375" transform="rotate(0)"><tspan id="SvgjsTspan1338" dy="16" x="61"><tspan id="SvgjsTspan1339" style="text-decoration:;">第一阶段处理不同，</tspan></tspan><tspan id="SvgjsTspan1340" dy="16" x="61"><tspan id="SvgjsTspan1341" style="text-decoration:;">其他阶段相同</tspan></tspan></text></g></g><g id="SvgjsG1342" transform="translate(512.9096976386165,359.6055249426097)"><path id="SvgjsPath1343" d="M 0 0L 122 0L 122 41L 0 41Z" stroke="none" fill="none"></path><g id="SvgjsG1344"><text id="SvgjsText1345" font-family="微软雅黑" text-anchor="middle" font-size="13px" width="122px" fill="#323232" font-weight="400" align="middle" lineHeight="125%" anchor="middle" family="微软雅黑" size="13px" weight="400" font-style="" opacity="1" y="10.875" transform="rotate(0)"><tspan id="SvgjsTspan1346" dy="16" x="61"><tspan id="SvgjsTspan1347" style="text-decoration:;">处理两个阶段相同</tspan></tspan></text></g></g><g id="SvgjsG1348" transform="translate(37.90969763861705,69.9944138314986)"><path id="SvgjsPath1349" d="M 0 0L 92 0L 92 36L 0 36Z" stroke="none" fill="none"></path><g id="SvgjsG1350"><text id="SvgjsText1351" font-family="微软雅黑" text-anchor="middle" font-size="13px" width="92px" fill="#323232" font-weight="400" align="middle" lineHeight="125%" anchor="middle" family="微软雅黑" size="13px" weight="400" font-style="" opacity="1" y="8.375" transform="rotate(0)"><tspan id="SvgjsTspan1352" dy="16" x="46"><tspan id="SvgjsTspan1353" style="text-decoration:;">发起</tspan></tspan></text></g></g><g id="SvgjsG1354"><path id="SvgjsPath1355" d="M83.90969763861693 106.9944138314986L83.90969763861693 196.29996938705403L83.90969763861693 196.29996938705403L83.90969763861693 283.00552494260967" stroke="#323232" stroke-width="2" fill="none" marker-end="url(#SvgjsMarker1356)"></path></g><g id="SvgjsG1358" transform="translate(37.90969763861705,286.6055249426097)"><path id="SvgjsPath1359" d="M 0 0L 92 0L 92 41L 0 41Z" stroke="none" fill="none"></path><g id="SvgjsG1360"><text id="SvgjsText1361" font-family="微软雅黑" text-anchor="middle" font-size="13px" width="92px" fill="#323232" font-weight="400" align="middle" lineHeight="125%" anchor="middle" family="微软雅黑" size="13px" weight="400" font-style="" opacity="1" y="10.875" transform="rotate(0)"><tspan id="SvgjsTspan1362" dy="16" x="46"><tspan id="SvgjsTspan1363" style="text-decoration:;">完成</tspan></tspan></text></g></g><g id="SvgjsG1364" transform="translate(93.60968848334352,169.1055249426097)"><path id="SvgjsPath1365" d="M 0 0L 20 0L 20 36L 0 36Z" stroke="none" fill="none"></path><g id="SvgjsG1366"><text id="SvgjsText1367" font-family="微软雅黑" text-anchor="middle" font-size="13px" width="20px" fill="#323232" font-weight="400" align="middle" lineHeight="125%" anchor="middle" family="微软雅黑" size="13px" weight="400" font-style="" opacity="1" y="-0.125" transform="rotate(0)"><tspan id="SvgjsTspan1368" dy="16" x="10"><tspan id="SvgjsTspan1369" style="text-decoration:;">阻</tspan></tspan><tspan id="SvgjsTspan1370" dy="16" x="10"><tspan id="SvgjsTspan1371" style="text-decoration:;">塞</tspan></tspan></text></g></g><g id="SvgjsG1372" transform="translate(183.10969763861664,78.11040436426765)"><path id="SvgjsPath1373" d="M 0 0L 37.600000000000136 0L 37.600000000000136 104.8839959038628L 0 104.8839959038628Z" stroke="none" fill="none"></path><g id="SvgjsG1374"><text id="SvgjsText1375" font-family="微软雅黑" text-anchor="middle" font-size="13px" width="38px" fill="#323232" font-weight="400" align="middle" lineHeight="125%" anchor="middle" family="微软雅黑" size="13px" weight="400" font-style="" opacity="1" y="1.8169979519313983" transform="rotate(0)"><tspan id="SvgjsTspan1376" dy="16" x="19"><tspan id="SvgjsTspan1377" style="text-decoration:;">检查</tspan></tspan><tspan id="SvgjsTspan1378" dy="16" x="19"><tspan id="SvgjsTspan1379" style="text-decoration:;">检查</tspan></tspan><tspan id="SvgjsTspan1380" dy="16" x="19"><tspan id="SvgjsTspan1381" style="text-decoration:;">检查</tspan></tspan><tspan id="SvgjsTspan1382" dy="16" x="19"><tspan id="SvgjsTspan1383" style="text-decoration:;">检查</tspan></tspan><tspan id="SvgjsTspan1384" dy="16" x="19"><tspan id="SvgjsTspan1385" style="text-decoration:;">检查</tspan></tspan><tspan id="SvgjsTspan1386" dy="16" x="19"><tspan id="SvgjsTspan1387" style="text-decoration:;">检查</tspan></tspan></text></g></g><g id="SvgjsG1388" transform="translate(155.90969763861682,286.6055249426097)"><path id="SvgjsPath1389" d="M 0 0L 92 0L 92 41L 0 41Z" stroke="none" fill="none"></path><g id="SvgjsG1390"><text id="SvgjsText1391" font-family="微软雅黑" text-anchor="middle" font-size="13px" width="92px" fill="#323232" font-weight="400" align="middle" lineHeight="125%" anchor="middle" family="微软雅黑" size="13px" weight="400" font-style="" opacity="1" y="10.875" transform="rotate(0)"><tspan id="SvgjsTspan1392" dy="16" x="46"><tspan id="SvgjsTspan1393" style="text-decoration:;">完成</tspan></tspan></text></g></g><g id="SvgjsG1394" transform="translate(215.2096884833432,213.54996938705403)"><path id="SvgjsPath1395" d="M 0 0L 20 0L 20 36L 0 36Z" stroke="none" fill="none"></path><g id="SvgjsG1396"><text id="SvgjsText1397" font-family="微软雅黑" text-anchor="middle" font-size="13px" width="20px" fill="#323232" font-weight="400" align="middle" lineHeight="125%" anchor="middle" family="微软雅黑" size="13px" weight="400" font-style="" opacity="1" y="-0.125" transform="rotate(0)"><tspan id="SvgjsTspan1398" dy="16" x="10"><tspan id="SvgjsTspan1399" style="text-decoration:;">阻</tspan></tspan><tspan id="SvgjsTspan1400" dy="16" x="10"><tspan id="SvgjsTspan1401" style="text-decoration:;">塞</tspan></tspan></text></g></g><g id="SvgjsG1402"><path id="SvgjsPath1403" d="M201.9096976386166 183.99440026813045L201.9096976386166 234.79996260536996L201.9096976386167 234.79996260536996L201.9096976386167 283.00552494260967" stroke="#323232" stroke-width="2" fill="none" marker-end="url(#SvgjsMarker1404)"></path></g><g id="SvgjsG1406" transform="translate(512.9096976386165,67.4944138314986)"><path id="SvgjsPath1407" d="M 0 0L 122 0L 122 41L 0 41Z" stroke="none" fill="none"></path><g id="SvgjsG1408"><text id="SvgjsText1409" font-family="微软雅黑" text-anchor="middle" font-size="13px" width="122px" fill="#323232" font-weight="400" align="middle" lineHeight="125%" anchor="middle" family="微软雅黑" size="13px" weight="400" font-style="" opacity="1" y="10.875" transform="rotate(0)"><tspan id="SvgjsTspan1410" dy="16" x="61"><tspan id="SvgjsTspan1411" style="text-decoration:;">发起</tspan></tspan></text></g></g><g id="SvgjsG1412" transform="translate(512.9096976386165,286.6055249426097)"><path id="SvgjsPath1413" d="M 0 0L 122 0L 122 41L 0 41Z" stroke="none" fill="none"></path><g id="SvgjsG1414"><text id="SvgjsText1415" font-family="微软雅黑" text-anchor="middle" font-size="13px" width="122px" fill="#323232" font-weight="400" align="middle" lineHeight="125%" anchor="middle" family="微软雅黑" size="13px" weight="400" font-style="" opacity="1" y="10.875" transform="rotate(0)"><tspan id="SvgjsTspan1416" dy="16" x="61"><tspan id="SvgjsTspan1417" style="text-decoration:;">通知</tspan></tspan></text></g></g><g id="SvgjsG1418" transform="translate(266.90969763861654,66.99929325315657)"><path id="SvgjsPath1419" d="M 0 0L 122 0L 122 41L 0 41Z" stroke="none" fill="none"></path><g id="SvgjsG1420"><text id="SvgjsText1421" font-family="微软雅黑" text-anchor="middle" font-size="13px" width="122px" fill="#323232" font-weight="400" align="middle" lineHeight="125%" anchor="middle" family="微软雅黑" size="13px" weight="400" font-style="" opacity="1" y="10.875" transform="rotate(0)"><tspan id="SvgjsTspan1422" dy="16" x="61"><tspan id="SvgjsTspan1423" style="text-decoration:;">检查</tspan></tspan></text></g></g><g id="SvgjsG1424" transform="translate(390.90969763861654,160.6055249426097)"><path id="SvgjsPath1425" d="M 0 0L 122 0L 122 41L 0 41Z" stroke="none" fill="none"></path><g id="SvgjsG1426"><text id="SvgjsText1427" font-family="微软雅黑" text-anchor="middle" font-size="13px" width="122px" fill="#323232" font-weight="400" align="middle" lineHeight="125%" anchor="middle" family="微软雅黑" size="13px" weight="400" font-style="" opacity="1" y="10.875" transform="rotate(0)"><tspan id="SvgjsTspan1428" dy="16" x="61"><tspan id="SvgjsTspan1429" style="text-decoration:;">通知发起</tspan></tspan></text></g></g><g id="SvgjsG1430" transform="translate(390.90969763861654,286.6055249426097)"><path id="SvgjsPath1431" d="M 0 0L 122 0L 122 41L 0 41Z" stroke="none" fill="none"></path><g id="SvgjsG1432"><text id="SvgjsText1433" font-family="微软雅黑" text-anchor="middle" font-size="13px" width="122px" fill="#323232" font-weight="400" align="middle" lineHeight="125%" anchor="middle" family="微软雅黑" size="13px" weight="400" font-style="" opacity="1" y="10.875" transform="rotate(0)"><tspan id="SvgjsTspan1434" dy="16" x="61"><tspan id="SvgjsTspan1435" style="text-decoration:;">完成</tspan></tspan></text></g></g><g id="SvgjsG1436" transform="translate(266.90969763861654,286.6055249426097)"><path id="SvgjsPath1437" d="M 0 0L 122 0L 122 41L 0 41Z" stroke="none" fill="none"></path><g id="SvgjsG1438"><text id="SvgjsText1439" font-family="微软雅黑" text-anchor="middle" font-size="13px" width="122px" fill="#323232" font-weight="400" align="middle" lineHeight="125%" anchor="middle" family="微软雅黑" size="13px" weight="400" font-style="" opacity="1" y="10.875" transform="rotate(0)"><tspan id="SvgjsTspan1440" dy="16" x="61"><tspan id="SvgjsTspan1441" style="text-decoration:;">完成</tspan></tspan></text></g></g><g id="SvgjsG1442"><path id="SvgjsPath1443" d="M451.90969763861654 202.6055249426097L451.90969763861654 244.1055249426097L451.90969763861654 244.1055249426097L451.90969763861654 283.00552494260967" stroke="#323232" stroke-width="2" fill="none" marker-end="url(#SvgjsMarker1444)"></path></g><g id="SvgjsG1446" transform="translate(461.70968848334337,214.1055249426097)"><path id="SvgjsPath1447" d="M 0 0L 20 0L 20 36L 0 36Z" stroke="none" fill="none"></path><g id="SvgjsG1448"><text id="SvgjsText1449" font-family="微软雅黑" text-anchor="middle" font-size="13px" width="20px" fill="#323232" font-weight="400" align="middle" lineHeight="125%" anchor="middle" family="微软雅黑" size="13px" weight="400" font-style="" opacity="1" y="-0.125" transform="rotate(0)"><tspan id="SvgjsTspan1450" dy="16" x="10"><tspan id="SvgjsTspan1451" style="text-decoration:;">阻</tspan></tspan><tspan id="SvgjsTspan1452" dy="16" x="10"><tspan id="SvgjsTspan1453" style="text-decoration:;">塞</tspan></tspan></text></g></g><g id="SvgjsG1454"><path id="SvgjsPath1455" d="M326.1635465080342 196.76191863895906L326.1635465080342 239.14230058340354L326.1635465080342 239.14230058340354L326.1635465080342 281.522682527848" stroke="#323232" stroke-width="2" fill="none" marker-end="url(#SvgjsMarker1456)"></path></g><g id="SvgjsG1458" transform="translate(337.2930218166764,214.1055249426097)"><path id="SvgjsPath1459" d="M 0 0L 20 0L 20 36L 0 36Z" stroke="none" fill="none"></path><g id="SvgjsG1460"><text id="SvgjsText1461" font-family="微软雅黑" text-anchor="middle" font-size="13px" width="20px" fill="#323232" font-weight="400" align="middle" lineHeight="125%" anchor="middle" family="微软雅黑" size="13px" weight="400" font-style="" opacity="1" y="-0.125" transform="rotate(0)"><tspan id="SvgjsTspan1462" dy="16" x="10"><tspan id="SvgjsTspan1463" style="text-decoration:;">阻</tspan></tspan><tspan id="SvgjsTspan1464" dy="16" x="10"><tspan id="SvgjsTspan1465" style="text-decoration:;">塞</tspan></tspan></text></g></g><g id="SvgjsG1466" transform="translate(272.90969763861654,167.6055249426097)"><path id="SvgjsPath1467" d="M 0 0L 110 0L 110 27L 0 27Z" stroke="none" fill="none"></path><g id="SvgjsG1468"><text id="SvgjsText1469" font-family="微软雅黑" text-anchor="middle" font-size="13px" width="110px" fill="#323232" font-weight="400" align="middle" lineHeight="125%" anchor="middle" family="微软雅黑" size="13px" weight="400" font-style="" opacity="1" y="3.875" transform="rotate(0)"><tspan id="SvgjsTspan1470" dy="16" x="55"><tspan id="SvgjsTspan1471" style="text-decoration:;">就绪发起</tspan></tspan></text></g></g><g id="SvgjsG1472"><path id="SvgjsPath1473" d="M327.90969763861654 108.99929325315657L327.90969763861654 137.68962407877393L327.90969763861654 137.68962407877393L327.90969763861654 164.0055249426097" stroke="#323232" stroke-width="2" fill="none" marker-end="url(#SvgjsMarker1474)"></path></g></svg>