<svg id="SvgjsSvg1006" width="993.0124816894531" height="638.9749875068665" xmlns="http://www.w3.org/2000/svg" version="1.1" xmlns:xlink="http://www.w3.org/1999/xlink" xmlns:svgjs="http://svgjs.com/svgjs"><defs id="SvgjsDefs1007"><marker id="SvgjsMarker1020" markerWidth="14" markerHeight="10" refX="10" refY="5" viewBox="0 0 14 10" orient="auto" markerUnits="userSpaceOnUse" stroke-dasharray="0,0"><path id="SvgjsPath1021" d="M0,0 L14,5 L0,10 L0,0" fill="#323232" stroke="#323232" stroke-width="1"></path></marker><marker id="SvgjsMarker1028" markerWidth="14" markerHeight="10" refX="10" refY="5" viewBox="0 0 14 10" orient="auto" markerUnits="userSpaceOnUse" stroke-dasharray="0,0"><path id="SvgjsPath1029" d="M0,0 L14,5 L0,10 L0,0" fill="#323232" stroke="#323232" stroke-width="1"></path></marker><marker id="SvgjsMarker1038" markerWidth="14" markerHeight="10" refX="10" refY="5" viewBox="0 0 14 10" orient="auto" markerUnits="userSpaceOnUse" stroke-dasharray="0,0"><path id="SvgjsPath1039" d="M0,0 L14,5 L0,10 L0,0" fill="#323232" stroke="#323232" stroke-width="1"></path></marker><marker id="SvgjsMarker1066" markerWidth="14" markerHeight="10" refX="10" refY="5" viewBox="0 0 14 10" orient="auto" markerUnits="userSpaceOnUse" stroke-dasharray="0,0"><path id="SvgjsPath1067" d="M0,0 L14,5 L0,10 L0,0" fill="#323232" stroke="#323232" stroke-width="1"></path></marker><marker id="SvgjsMarker1078" markerWidth="14" markerHeight="10" refX="10" refY="5" viewBox="0 0 14 10" orient="auto" markerUnits="userSpaceOnUse" stroke-dasharray="0,0"><path id="SvgjsPath1079" d="M0,0 L14,5 L0,10 L0,0" fill="#323232" stroke="#323232" stroke-width="1"></path></marker><marker id="SvgjsMarker1090" markerWidth="14" markerHeight="10" refX="10" refY="5" viewBox="0 0 14 10" orient="auto" markerUnits="userSpaceOnUse" stroke-dasharray="0,0"><path id="SvgjsPath1091" d="M0,0 L14,5 L0,10 L0,0" fill="#323232" stroke="#323232" stroke-width="1"></path></marker><marker id="SvgjsMarker1124" markerWidth="14" markerHeight="10" refX="10" refY="5" viewBox="0 0 14 10" orient="auto" markerUnits="userSpaceOnUse" stroke-dasharray="0,0"><path id="SvgjsPath1125" d="M0,0 L14,5 L0,10 L0,0" fill="#323232" stroke="#323232" stroke-width="1"></path></marker><marker id="SvgjsMarker1128" markerWidth="14" markerHeight="10" refX="10" refY="5" viewBox="0 0 14 10" orient="auto" markerUnits="userSpaceOnUse" stroke-dasharray="0,0"><path id="SvgjsPath1129" d="M0,0 L14,5 L0,10 L0,0" fill="#323232" stroke="#323232" stroke-width="1"></path></marker><marker id="SvgjsMarker1144" markerWidth="14" markerHeight="10" refX="10" refY="5" viewBox="0 0 14 10" orient="auto" markerUnits="userSpaceOnUse" stroke-dasharray="0,0"><path id="SvgjsPath1145" d="M0,0 L14,5 L0,10 L0,0" fill="#323232" stroke="#323232" stroke-width="1"></path></marker><marker id="SvgjsMarker1156" markerWidth="14" markerHeight="10" refX="10" refY="5" viewBox="0 0 14 10" orient="auto" markerUnits="userSpaceOnUse" stroke-dasharray="0,0"><path id="SvgjsPath1157" d="M0,0 L14,5 L0,10 L0,0" fill="#323232" stroke="#323232" stroke-width="1"></path></marker><marker id="SvgjsMarker1164" markerWidth="14" markerHeight="10" refX="10" refY="5" viewBox="0 0 14 10" orient="auto" markerUnits="userSpaceOnUse" stroke-dasharray="0,0"><path id="SvgjsPath1165" d="M0,0 L14,5 L0,10 L0,0" fill="#323232" stroke="#323232" stroke-width="1"></path></marker><marker id="SvgjsMarker1184" markerWidth="14" markerHeight="10" refX="10" refY="5" viewBox="0 0 14 10" orient="auto" markerUnits="userSpaceOnUse" stroke-dasharray="0,0"><path id="SvgjsPath1185" d="M0,0 L14,5 L0,10 L0,0" fill="#323232" stroke="#323232" stroke-width="1"></path></marker></defs><g id="SvgjsG1008" transform="translate(384.41249084472656,110.00278054343426)"><path id="SvgjsPath1009" d="M 0 4Q 0 0 4 0L 160 0Q 164 0 164 4L 164 38Q 164 42 160 42L 4 42Q 0 42 0 38Z" stroke="rgba(50,50,50,1)" stroke-width="2" fill-opacity="1" fill="#c8e6c9"></path><g id="SvgjsG1010"><text id="SvgjsText1011" font-family="微软雅黑" text-anchor="middle" font-size="13px" width="144px" fill="#323232" font-weight="700" align="middle" lineHeight="125%" anchor="middle" family="微软雅黑" size="13px" weight="700" font-style="" opacity="1" y="11.375" transform="rotate(0)"><tspan id="SvgjsTspan1012" dy="16" x="82"><tspan id="SvgjsTspan1013" style="text-decoration:;">初始(NEW)</tspan></tspan></text></g></g><g id="SvgjsG1014" transform="translate(457.01246643066406,25.002780543434255)"><path id="SvgjsPath1015" d="M 0 10C 0 -3.3333333333333335 20 -3.3333333333333335 20 10C 20 23.333333333333332 0 23.333333333333332 0 10Z" stroke="rgba(50,50,50,1)" stroke-width="2" fill-opacity="1" fill="#006633"></path><g id="SvgjsG1016"><text id="SvgjsText1017" font-family="微软雅黑" text-anchor="middle" font-size="13px" width="0px" fill="#cdcdcd" font-weight="700" align="middle" lineHeight="125%" anchor="middle" family="微软雅黑" size="13px" weight="700" font-style="" opacity="1" y="0.375" transform="rotate(0)"></text></g></g><g id="SvgjsG1018"><path id="SvgjsPath1019" d="M466.41249084472656 46.002780543434255L466.41249084472656 77.50278054343426L466.41249084472656 77.50278054343426L466.41249084472656 106.40278054343426" stroke="#323232" stroke-width="2" fill="none" marker-end="url(#SvgjsMarker1020)"></path></g><g id="SvgjsG1022" transform="translate(364.51246643066406,217.97500276565552)"><path id="SvgjsPath1023" d="M 0 4Q 0 0 4 0L 201 0Q 205 0 205 4L 205 228Q 205 232 201 232L 4 232Q 0 232 0 228Z" stroke-dasharray="10,6" stroke="rgba(50,50,50,1)" stroke-width="2" fill-opacity="1" fill="#b2ebf2"></path><g id="SvgjsG1024"><text id="SvgjsText1025" font-family="微软雅黑" text-anchor="middle" font-size="13px" width="185px" fill="#323232" font-weight="400" align="middle" lineHeight="125%" anchor="middle" family="微软雅黑" size="13px" weight="400" font-style="" opacity="1" y="106.375" transform="rotate(0)"></text></g></g><g id="SvgjsG1026"><path id="SvgjsPath1027" d="M467.01246643066406 153.00278054343426L467.01246643066406 184.50278054343426L467.01246643066406 184.50278054343426L467.01246643066406 214.3750027656555" stroke="#323232" stroke-width="2" fill="none" marker-end="url(#SvgjsMarker1028)"></path></g><g id="SvgjsG1030" transform="translate(384.41249084472656,571.9750027656555)"><path id="SvgjsPath1031" d="M 0 4Q 0 0 4 0L 160 0Q 164 0 164 4L 164 38Q 164 42 160 42L 4 42Q 0 42 0 38Z" stroke="rgba(244,67,54,1)" stroke-width="2" fill-opacity="1" fill="#f44336"></path><g id="SvgjsG1032"><text id="SvgjsText1033" font-family="微软雅黑" text-anchor="middle" font-size="13px" width="144px" fill="#000000" font-weight="700" align="middle" lineHeight="125%" anchor="middle" family="微软雅黑" size="13px" weight="700" font-style="" opacity="1" y="11.375" transform="rotate(0)"><tspan id="SvgjsTspan1034" dy="16" x="82"><tspan id="SvgjsTspan1035" style="text-decoration:;">终止(TERMINATED)</tspan></tspan></text></g></g><g id="SvgjsG1036"><path id="SvgjsPath1037" d="M466.41249084472656 450.9750027656555L466.41249084472656 510.75278054343426L466.41249084472656 510.75278054343426L466.41249084472656 568.3750027656555" stroke="#323232" stroke-width="2" fill="none" marker-end="url(#SvgjsMarker1038)"></path><rect id="SvgjsRect1040" width="52" height="16" x="440.41249084472656" y="501.6750027656555" fill="#ffffff"></rect><text id="SvgjsText1041" font-family="微软雅黑" text-anchor="middle" font-size="13px" width="52px" fill="#323232" font-weight="700" align="top" lineHeight="16px" anchor="middle" family="微软雅黑" size="13px" weight="700" font-style="" opacity="1" y="500.0500027656555" transform="rotate(0)"><tspan id="SvgjsTspan1042" dy="16" x="466.41249084472656"><tspan id="SvgjsTspan1043" style="text-decoration:;">执行完成</tspan></tspan></text></g><g id="SvgjsG1044" transform="translate(25.012466430664062,312.9750027656555)"><path id="SvgjsPath1045" d="M 0 4Q 0 0 4 0L 160 0Q 164 0 164 4L 164 38Q 164 42 160 42L 4 42Q 0 42 0 38Z" stroke="rgba(50,50,50,1)" stroke-width="2" fill-opacity="1" fill="#ffe0b2"></path><g id="SvgjsG1046"><text id="SvgjsText1047" font-family="微软雅黑" text-anchor="middle" font-size="13px" width="144px" fill="#323232" font-weight="700" align="middle" lineHeight="125%" anchor="middle" family="微软雅黑" size="13px" weight="700" font-style="" opacity="1" y="11.375" transform="rotate(0)"><tspan id="SvgjsTspan1048" dy="16" x="82"><tspan id="SvgjsTspan1049" style="text-decoration:;">等待(WAITING)</tspan></tspan></text></g></g><g id="SvgjsG1050" transform="translate(804.0124664306641,312.9750027656555)"><path id="SvgjsPath1051" d="M 0 4Q 0 0 4 0L 160 0Q 164 0 164 4L 164 38Q 164 42 160 42L 4 42Q 0 42 0 38Z" stroke="rgba(50,50,50,1)" stroke-width="2" fill-opacity="1" fill="#ffe0b2"></path><g id="SvgjsG1052"><text id="SvgjsText1053" font-family="微软雅黑" text-anchor="middle" font-size="13px" width="144px" fill="#323232" font-weight="700" align="middle" lineHeight="125%" anchor="middle" family="微软雅黑" size="13px" weight="700" font-style="" opacity="1" y="2.875" transform="rotate(0)"><tspan id="SvgjsTspan1054" dy="16" x="82"><tspan id="SvgjsTspan1055" style="text-decoration:;">超时等待</tspan></tspan><tspan id="SvgjsTspan1056" dy="16" x="82"><tspan id="SvgjsTspan1057" style="text-decoration:;">(TIMED_WAITING)</tspan></tspan></text></g></g><g id="SvgjsG1058" transform="translate(702.0124664306641,571.9750027656555)"><path id="SvgjsPath1059" d="M 0 4Q 0 0 4 0L 160 0Q 164 0 164 4L 164 38Q 164 42 160 42L 4 42Q 0 42 0 38Z" stroke="rgba(50,50,50,1)" stroke-width="2" fill-opacity="1" fill="#e0e0e0"></path><g id="SvgjsG1060"><text id="SvgjsText1061" font-family="微软雅黑" text-anchor="middle" font-size="13px" width="144px" fill="#323232" font-weight="700" align="middle" lineHeight="125%" anchor="middle" family="微软雅黑" size="13px" weight="700" font-style="" opacity="1" y="11.375" transform="rotate(0)"><tspan id="SvgjsTspan1062" dy="16" x="82"><tspan id="SvgjsTspan1063" style="text-decoration:;">阻塞(BLOCKED)</tspan></tspan></text></g></g><g id="SvgjsG1064"><path id="SvgjsPath1065" d="M363.51246643066406 251.29415170182574L107.01246643066406 251.29415170182574L107.01246643066406 309.3750027656555" stroke="#323232" stroke-width="2" fill="none" marker-end="url(#SvgjsMarker1066)"></path><rect id="SvgjsRect1068" width="126" height="48" x="185.41249084472656" y="226.97500276565552" fill="#ffffff"></rect><text id="SvgjsText1069" font-family="微软雅黑" text-anchor="middle" font-size="13px" width="126px" fill="#ff6666" font-weight="700" align="top" lineHeight="16px" anchor="middle" family="微软雅黑" size="13px" weight="700" font-style="" opacity="1" y="225.35000276565552" transform="rotate(0)"><tspan id="SvgjsTspan1070" dy="16" x="248.41249084472656"><tspan id="SvgjsTspan1071" style="text-decoration:;">Object.wait()</tspan></tspan><tspan id="SvgjsTspan1072" dy="16" x="248.41249084472656"><tspan id="SvgjsTspan1073" style="text-decoration:;">Thread.join()</tspan></tspan><tspan id="SvgjsTspan1074" dy="16" x="248.41249084472656"><tspan id="SvgjsTspan1075" style="text-decoration:;">LockSupport.park()</tspan></tspan></text></g><g id="SvgjsG1076"><path id="SvgjsPath1077" d="M107.01246643066406 355.9750027656555L107.01246643066406 419.1239389358682L360.91246643066404 419.1239389358682" stroke="#323232" stroke-width="2" fill="none" marker-end="url(#SvgjsMarker1078)"></path><rect id="SvgjsRect1080" width="189" height="48" x="140.91249084472656" y="394.9750027656555" fill="#ffffff"></rect><text id="SvgjsText1081" font-family="微软雅黑" text-anchor="middle" font-size="13px" width="189px" fill="#ff6666" font-weight="700" align="top" lineHeight="16px" anchor="middle" family="微软雅黑" size="13px" weight="700" font-style="" opacity="1" y="393.3500027656555" transform="rotate(0)"><tspan id="SvgjsTspan1082" dy="16" x="235.41249084472656"><tspan id="SvgjsTspan1083" style="text-decoration:;">Object.notify()</tspan></tspan><tspan id="SvgjsTspan1084" dy="16" x="235.41249084472656"><tspan id="SvgjsTspan1085" style="text-decoration:;">Object.notifyAll（）</tspan></tspan><tspan id="SvgjsTspan1086" dy="16" x="235.41249084472656"><tspan id="SvgjsTspan1087" style="text-decoration:;">LockSupport.unpark(Thread)</tspan></tspan></text></g><g id="SvgjsG1088"><path id="SvgjsPath1089" d="M466.431846468133 322.1486606215382C 467.01246643066406 348.92412885804106 467.0124664306642 362.0701962737712 466.4856719173978 384.76307499728375" stroke="#323232" stroke-width="2" fill="none" marker-end="url(#SvgjsMarker1090)"></path></g><g id="SvgjsG1092" transform="translate(384.41249084472656,218.00278054343426)"><path id="SvgjsPath1093" d="M 0 0L 164 0L 164 42L 0 42Z" stroke="none" fill="none"></path><g id="SvgjsG1094"><text id="SvgjsText1095" font-family="微软雅黑" text-anchor="middle" font-size="13px" width="164px" fill="#323232" font-weight="700" align="middle" lineHeight="125%" anchor="middle" family="微软雅黑" size="13px" weight="700" font-style="" opacity="1" y="11.375" transform="rotate(0)"><tspan id="SvgjsTspan1096" dy="16" x="82"><tspan id="SvgjsTspan1097" style="text-decoration:;">运行(RUNNABLE)</tspan></tspan></text></g></g><g id="SvgjsG1098" transform="translate(380.51246643066406,265.00278054343426)"><path id="SvgjsPath1099" d="M 0 4Q 0 0 4 0L 169 0Q 173 0 173 4L 173 167Q 173 171 169 171L 4 171Q 0 171 0 167Z" stroke-dasharray="10,6" stroke="rgba(0,153,0,1)" stroke-width="2" fill-opacity="1" fill="#ffffff"></path><g id="SvgjsG1100"><text id="SvgjsText1101" font-family="微软雅黑" text-anchor="middle" font-size="13px" width="153px" fill="#323232" font-weight="400" align="middle" lineHeight="125%" anchor="middle" family="微软雅黑" size="13px" weight="400" font-style="" opacity="1" y="75.875" transform="rotate(0)"></text></g></g><g id="SvgjsG1102" transform="translate(393.91249084472656,279.14884795916464)"><path id="SvgjsPath1103" d="M 0 4Q 0 0 4 0L 141 0Q 145 0 145 4L 145 38Q 145 42 141 42L 4 42Q 0 42 0 38Z" stroke="rgba(255,204,204,1)" stroke-width="2" fill-opacity="1" fill="#ffcccc"></path><g id="SvgjsG1104"><text id="SvgjsText1105" font-family="微软雅黑" text-anchor="middle" font-size="13px" width="125px" fill="#000000" font-weight="700" align="middle" lineHeight="125%" anchor="middle" family="微软雅黑" size="13px" weight="700" font-style="" opacity="1" y="11.375" transform="rotate(0)"><tspan id="SvgjsTspan1106" dy="16" x="72.5"><tspan id="SvgjsTspan1107" style="text-decoration:;">就绪(READY)</tspan></tspan></text></g></g><g id="SvgjsG1108" transform="translate(393.91249084472656,388.362331105232)"><path id="SvgjsPath1109" d="M 0 4Q 0 0 4 0L 141 0Q 145 0 145 4L 145 38Q 145 42 141 42L 4 42Q 0 42 0 38Z" stroke="rgba(129,199,132,1)" stroke-width="2" fill-opacity="1" fill="#81c784"></path><g id="SvgjsG1110"><text id="SvgjsText1111" font-family="微软雅黑" text-anchor="middle" font-size="13px" width="125px" fill="#000000" font-weight="700" align="middle" lineHeight="125%" anchor="middle" family="微软雅黑" size="13px" weight="700" font-style="" opacity="1" y="11.375" transform="rotate(0)"><tspan id="SvgjsTspan1112" dy="16" x="72.5"><tspan id="SvgjsTspan1113" style="text-decoration:;">运行中(RUNNING)</tspan></tspan></text></g></g><g id="SvgjsG1114" transform="translate(487.03389002168126,332.7780614423107)"><path id="SvgjsPath1115" d="M 0 0L 66.7572016460905 0L 66.7572016460905 42L 0 42Z" stroke="none" fill="none"></path><g id="SvgjsG1116"><text id="SvgjsText1117" font-family="微软雅黑" text-anchor="middle" font-size="13px" width="67px" fill="#323232" font-weight="700" align="middle" lineHeight="125%" anchor="middle" family="微软雅黑" size="13px" weight="700" font-style="" opacity="1" y="2.875" transform="rotate(0)"><tspan id="SvgjsTspan1118" dy="16" x="33.5"><tspan id="SvgjsTspan1119" style="text-decoration:;">yield()</tspan></tspan><tspan id="SvgjsTspan1120" dy="16" x="33.5"><tspan id="SvgjsTspan1121" style="text-decoration:;">系统调度</tspan></tspan></text></g></g><g id="SvgjsG1122"><path id="SvgjsPath1123" d="M453.96553702424694 321.9028863357315C 432.01246643066406 338.00278054343426 439.01246643066406 376.00278054343426 453.22438777084676 385.6772438150265" stroke="#323232" stroke-width="2" fill="none" marker-end="url(#SvgjsMarker1124)"></path></g><g id="SvgjsG1126"><path id="SvgjsPath1127" d="M570.5124664306641 248.97500276565552L886.0124664306641 248.97500276565552L886.0124664306641 309.3750027656555" stroke="#323232" stroke-width="2" fill="none" marker-end="url(#SvgjsMarker1128)"></path><rect id="SvgjsRect1130" width="198" height="80" x="612.4124908447266" y="208.97500276565552" fill="#ffffff"></rect><text id="SvgjsText1131" font-family="微软雅黑" text-anchor="middle" font-size="13px" width="198px" fill="#6666ff" font-weight="700" align="top" lineHeight="16px" anchor="middle" family="微软雅黑" size="13px" weight="700" font-style="" opacity="1" y="207.35000276565552" transform="rotate(0)"><tspan id="SvgjsTspan1132" dy="16" x="711.4124908447266"><tspan id="SvgjsTspan1133" style="text-decoration:;">Thread.sleep(long)</tspan></tspan><tspan id="SvgjsTspan1134" dy="16" x="711.4124908447266"><tspan id="SvgjsTspan1135" style="text-decoration:;">Object.wait(long)</tspan></tspan><tspan id="SvgjsTspan1136" dy="16" x="711.4124908447266"><tspan id="SvgjsTspan1137" style="text-decoration:;">Thread.join(long)</tspan></tspan><tspan id="SvgjsTspan1138" dy="16" x="711.4124908447266"><tspan id="SvgjsTspan1139" style="text-decoration:;">LockSupport.parkNanos(long)</tspan></tspan><tspan id="SvgjsTspan1140" dy="16" x="711.4124908447266"><tspan id="SvgjsTspan1141" style="text-decoration:;">LockSupport.parkUntil(long)</tspan></tspan></text></g><g id="SvgjsG1142"><path id="SvgjsPath1143" d="M886.0124664306641 355.9750027656555L886.0124664306641 418.9750027656555L573.1124664306641 418.9750027656555" stroke="#323232" stroke-width="2" fill="none" marker-end="url(#SvgjsMarker1144)"></path><rect id="SvgjsRect1146" width="189" height="48" x="632.9124908447266" y="394.9750027656555" fill="#ffffff"></rect><text id="SvgjsText1147" font-family="微软雅黑" text-anchor="middle" font-size="13px" width="189px" fill="#6666ff" font-weight="700" align="top" lineHeight="16px" anchor="middle" family="微软雅黑" size="13px" weight="700" font-style="" opacity="1" y="393.3500027656555" transform="rotate(0)"><tspan id="SvgjsTspan1148" dy="16" x="727.4124908447266"><tspan id="SvgjsTspan1149" style="text-decoration:;">Object.notify()</tspan></tspan><tspan id="SvgjsTspan1150" dy="16" x="727.4124908447266"><tspan id="SvgjsTspan1151" style="text-decoration:;">Object.notifyAll()</tspan></tspan><tspan id="SvgjsTspan1152" dy="16" x="727.4124908447266"><tspan id="SvgjsTspan1153" style="text-decoration:;">LockSupport.unpark(Thread)</tspan></tspan></text></g><g id="SvgjsG1154"><path id="SvgjsPath1155" d="M569.2807563709991 449.31669988948556C 639.8246826900298 508.5821854583364 766.0124664306641 478.84162677623806 765.7506461115462 568.3845362053744" stroke="#323232" stroke-width="2" fill="none" marker-end="url(#SvgjsMarker1156)"></path><rect id="SvgjsRect1158" width="97" height="16" x="645.5678562305784" y="489.49658409982294" fill="#ffffff"></rect><text id="SvgjsText1159" font-family="微软雅黑" text-anchor="middle" font-size="13px" width="97px" fill="#323232" font-weight="700" align="top" lineHeight="16px" anchor="middle" family="微软雅黑" size="13px" weight="700" font-style="" opacity="1" y="487.87158409982294" transform="rotate(0)"><tspan id="SvgjsTspan1160" dy="16" x="694.0678562305784"><tspan id="SvgjsTspan1161" style="text-decoration:;">synchronized()</tspan></tspan></text></g><g id="SvgjsG1162"><path id="SvgjsPath1163" d="M701.0133253778969 592.9335641764507C 618.8259290583223 592.9750027656555 551.0124664306641 533.1615401379972 551.1819303273359 453.5710119408002" stroke="#323232" stroke-width="2" fill="none" marker-end="url(#SvgjsMarker1164)"></path><rect id="SvgjsRect1166" width="52" height="16" x="569.2138052715239" y="545.1142756035262" fill="#ffffff"></rect><text id="SvgjsText1167" font-family="微软雅黑" text-anchor="middle" font-size="13px" width="52px" fill="#323232" font-weight="700" align="top" lineHeight="16px" anchor="middle" family="微软雅黑" size="13px" weight="700" font-style="" opacity="1" y="543.4892756035262" transform="rotate(0)"><tspan id="SvgjsTspan1168" dy="16" x="595.2138052715239"><tspan id="SvgjsTspan1169" style="text-decoration:;">获取到锁</tspan></tspan></text></g><g id="SvgjsG1170" transform="translate(469.91249084472656,169.00278054343426)"><path id="SvgjsPath1171" d="M 0 0L 101 0L 101 27L 0 27Z" stroke="none" fill="none"></path><g id="SvgjsG1172"><text id="SvgjsText1173" font-family="微软雅黑" text-anchor="middle" font-size="13px" width="101px" fill="#000000" font-weight="700" align="middle" lineHeight="125%" anchor="middle" family="微软雅黑" size="13px" weight="700" font-style="" opacity="1" y="3.875" transform="rotate(0)"><tspan id="SvgjsTspan1174" dy="16" x="50.5"><tspan id="SvgjsTspan1175" style="text-decoration:;">Thread.start()</tspan></tspan></text></g></g><g id="SvgjsG1176" transform="translate(446.76966807675444,60.002780543434255)"><path id="SvgjsPath1177" d="M 0 0L 101 0L 101 27L 0 27Z" stroke="none" fill="none"></path><g id="SvgjsG1178"><text id="SvgjsText1179" font-family="微软雅黑" text-anchor="middle" font-size="13px" width="101px" fill="#000000" font-weight="700" align="middle" lineHeight="125%" anchor="middle" family="微软雅黑" size="13px" weight="700" font-style="" opacity="1" y="3.875" transform="rotate(0)"><tspan id="SvgjsTspan1180" dy="16" x="50.5"><tspan id="SvgjsTspan1181" style="text-decoration:;">实例化</tspan></tspan></text></g></g><g id="SvgjsG1182"><path id="SvgjsPath1183" d="M476.1216643134285 387.6572970696783C 496.01246643066406 375.00278054343426 498.01246643066406 338.00278054343426 477.8416095878364 323.8057977388692" stroke="#323232" stroke-width="2" fill="none" marker-end="url(#SvgjsMarker1184)"></path></g></svg>