<svg id="SvgjsSvg1414" width="569.3624877929688" height="348.00001525878906" xmlns="http://www.w3.org/2000/svg" version="1.1" xmlns:xlink="http://www.w3.org/1999/xlink" xmlns:svgjs="http://svgjs.com/svgjs"><defs id="SvgjsDefs1415"><marker id="SvgjsMarker1453" markerWidth="14" markerHeight="10" refX="10" refY="5" viewBox="0 0 14 10" orient="auto" markerUnits="userSpaceOnUse" stroke-dasharray="0,0"><path id="SvgjsPath1454" d="M0,0 L14,5 L0,10 L0,0" fill="#323232" stroke="#323232" stroke-width="1"></path></marker><marker id="SvgjsMarker1490" markerWidth="14" markerHeight="10" refX="10" refY="5" viewBox="0 0 14 10" orient="auto" markerUnits="userSpaceOnUse" stroke-dasharray="0,0"><path id="SvgjsPath1491" d="M0,0 L14,5 L0,10 L0,0" fill="#323232" stroke="#323232" stroke-width="1"></path></marker><marker id="SvgjsMarker1500" markerWidth="14" markerHeight="10" refX="10" refY="5" viewBox="0 0 14 10" orient="auto" markerUnits="userSpaceOnUse" stroke-dasharray="0,0"><path id="SvgjsPath1501" d="M0,0 L14,5 L0,10 L0,0" fill="#323232" stroke="#323232" stroke-width="1"></path></marker><marker id="SvgjsMarker1504" markerWidth="14" markerHeight="10" refX="10" refY="5" viewBox="0 0 14 10" orient="auto" markerUnits="userSpaceOnUse" stroke-dasharray="0,0"><path id="SvgjsPath1505" d="M0,0 L14,5 L0,10 L0,0" fill="#323232" stroke="#323232" stroke-width="1"></path></marker></defs><g id="SvgjsG1416" transform="translate(25.005663785067497,120.65533011300224)"><path id="SvgjsPath1417" d="M 93 0Q 84 0 84 9L 84 82.35714394705636Q 84 91.35714394705636 71 91.35714394705636Q 84 91.35714394705636 84 100.35714394705636L 84 173.71428789411272Q 84 182.71428789411272 93 182.71428789411272" stroke="rgba(50,50,50,1)" stroke-width="2" fill="none"></path><path id="SvgjsPath1418" d="M 0 0L 93 0L 93 182.71428789411272L 0 182.71428789411272Z" stroke="none" fill="none"></path><g id="SvgjsG1419"><text id="SvgjsText1420" font-family="微软雅黑" text-anchor="end" font-size="13px" width="66px" fill="#323232" font-weight="400" align="middle" lineHeight="125%" anchor="end" family="微软雅黑" size="13px" weight="400" font-style="" opacity="1" y="73.23214394705636" transform="rotate(0)"><tspan id="SvgjsTspan1421" dy="16" x="66"><tspan id="SvgjsTspan1422" style="text-decoration:;">进程阻塞于</tspan></tspan><tspan id="SvgjsTspan1423" dy="16" x="66"><tspan id="SvgjsTspan1424" style="text-decoration:;">recvform</tspan></tspan></text></g></g><g id="SvgjsG1425" transform="translate(118.36930569735443,106.0124740600586)"><path id="SvgjsPath1426" d="M 0 0L 84 0L 84 36L 0 36Z" stroke="none" fill="none"></path><g id="SvgjsG1427"><text id="SvgjsText1428" font-family="微软雅黑" text-anchor="middle" font-size="13px" width="84px" fill="#323232" font-weight="400" align="middle" lineHeight="125%" anchor="middle" family="微软雅黑" size="13px" weight="400" font-style="" opacity="1" y="8.375" transform="rotate(0)"><tspan id="SvgjsTspan1429" dy="16" x="42"><tspan id="SvgjsTspan1430" style="text-decoration:;">recvform</tspan></tspan></text></g></g><g id="SvgjsG1431" transform="translate(436.36930569735443,122.0124740600586)"><path id="SvgjsPath1432" d="M 0 93Q 8.4 93 8.4 84L 8.4 55.5Q 8.4 46.5 22 46.5Q 8.4 46.5 8.4 37.5L 8.4 9Q 8.4 0 0 0" stroke="rgba(50,50,50,1)" stroke-width="2" fill="none"></path><path id="SvgjsPath1433" d="M 0 0L 84 0L 84 93L 0 93Z" stroke="none" fill="none"></path><g id="SvgjsG1434"><text id="SvgjsText1435" font-family="微软雅黑" text-anchor="start" font-size="13px" width="57px" fill="#323232" font-weight="400" align="middle" lineHeight="125%" anchor="start" family="微软雅黑" size="13px" weight="400" font-style="" opacity="1" y="36.875" transform="rotate(0)"><tspan id="SvgjsTspan1436" dy="16" x="27"><tspan id="SvgjsTspan1437" style="text-decoration:;">等待数据</tspan></tspan></text></g></g><g id="SvgjsG1438" transform="translate(214.36930569735443,98.3458073933927)"><path id="SvgjsPath1439" d="M 0 0L 100 0L 100 27L 0 27Z" stroke="none" fill="none"></path><g id="SvgjsG1440"><text id="SvgjsText1441" font-family="微软雅黑" text-anchor="middle" font-size="13px" width="100px" fill="#323232" font-weight="400" align="middle" lineHeight="125%" anchor="middle" family="微软雅黑" size="13px" weight="400" font-style="" opacity="1" y="3.875" transform="rotate(0)"><tspan id="SvgjsTspan1442" dy="16" x="50"><tspan id="SvgjsTspan1443" style="text-decoration:;">系统调用</tspan></tspan></text></g></g><g id="SvgjsG1444" transform="translate(337.86930569735443,103.5124740600586)"><path id="SvgjsPath1445" d="M 0 0L 93 0L 93 41L 0 41Z" stroke="none" fill="none"></path><g id="SvgjsG1446"><text id="SvgjsText1447" font-family="微软雅黑" text-anchor="middle" font-size="13px" width="93px" fill="#323232" font-weight="400" align="middle" lineHeight="125%" anchor="middle" family="微软雅黑" size="13px" weight="400" font-style="" opacity="1" y="10.875" transform="rotate(0)"><tspan id="SvgjsTspan1448" dy="16" x="46.5"><tspan id="SvgjsTspan1449" style="text-decoration:;">无数据报</tspan><tspan id="SvgjsTspan1450" style="text-decoration:;font-size: inherit;">准备好</tspan></tspan></text></g></g><g id="SvgjsG1451"><path id="SvgjsPath1452" d="M203.36930569735443 124.0124740600586L268.17486125291 124.0124740600586L268.17486125291 124.0124740600586L334.2693056973544 124.0124740600586" stroke="#323232" stroke-width="2" fill="none" marker-end="url(#SvgjsMarker1453)"></path></g><g id="SvgjsG1455" transform="translate(304.36930569735443,75.5124740600586)"><path id="SvgjsPath1456" d="M 0 0L 160 0L 160 41L 0 41Z" stroke="none" fill="none"></path><g id="SvgjsG1457"><text id="SvgjsText1458" font-family="微软雅黑" text-anchor="middle" font-size="15px" width="160px" fill="#323232" font-weight="700" align="middle" lineHeight="125%" anchor="middle" family="微软雅黑" size="15px" weight="700" font-style="" opacity="1" y="9.625" transform="rotate(0)"><tspan id="SvgjsTspan1459" dy="18" x="80"><tspan id="SvgjsTspan1460" style="text-decoration:;">内核</tspan></tspan></text></g></g><g id="SvgjsG1461" transform="translate(334.36930569735443,194.0124740600586)"><path id="SvgjsPath1462" d="M 0 0L 100 0L 100 36L 0 36Z" stroke="none" fill="none"></path><g id="SvgjsG1463"><text id="SvgjsText1464" font-family="微软雅黑" text-anchor="middle" font-size="13px" width="100px" fill="#323232" font-weight="400" align="middle" lineHeight="125%" anchor="middle" family="微软雅黑" size="13px" weight="400" font-style="" opacity="1" y="-0.125" transform="rotate(0)"><tspan id="SvgjsTspan1465" dy="16" x="50"><tspan id="SvgjsTspan1466" style="text-decoration:;">数据报准备好</tspan></tspan><tspan id="SvgjsTspan1467" dy="16" x="50"><tspan id="SvgjsTspan1468" style="text-decoration:;">复制数据报</tspan></tspan></text></g></g><g id="SvgjsG1469" transform="translate(345.86930569735443,291.5124740600586)"><path id="SvgjsPath1470" d="M 0 0L 77 0L 77 27L 0 27Z" stroke="none" fill="none"></path><g id="SvgjsG1471"><text id="SvgjsText1472" font-family="微软雅黑" text-anchor="middle" font-size="13px" width="77px" fill="#323232" font-weight="400" align="middle" lineHeight="125%" anchor="middle" family="微软雅黑" size="13px" weight="400" font-style="" opacity="1" y="3.875" transform="rotate(0)"><tspan id="SvgjsTspan1473" dy="16" x="38.5"><tspan id="SvgjsTspan1474" style="text-decoration:;">复制完成</tspan></tspan></text></g></g><g id="SvgjsG1475" transform="translate(434.36930569735443,225.12358517116968)"><path id="SvgjsPath1476" d="M 0 81Q 9 81 9 72.9L 9 48.6Q 9 40.5 22 40.5Q 9 40.5 9 32.4L 9 8.1Q 9 0 0 0" stroke="rgba(50,50,50,1)" stroke-width="2" fill="none"></path><path id="SvgjsPath1477" d="M 0 0L 110 0L 110 81L 0 81Z" stroke="none" fill="none"></path><g id="SvgjsG1478"><text id="SvgjsText1479" font-family="微软雅黑" text-anchor="start" font-size="13px" width="83px" fill="#323232" font-weight="400" align="middle" lineHeight="125%" anchor="start" family="微软雅黑" size="13px" weight="400" font-style="" opacity="1" y="30.875" transform="rotate(0)"><tspan id="SvgjsTspan1480" dy="16" x="27"><tspan id="SvgjsTspan1481" style="text-decoration:;">拷贝数据</tspan></tspan></text></g></g><g id="SvgjsG1482" transform="translate(121.86930569735443,287.0124740600586)"><path id="SvgjsPath1483" d="M 0 0L 77 0L 77 36L 0 36Z" stroke="none" fill="none"></path><g id="SvgjsG1484"><text id="SvgjsText1485" font-family="微软雅黑" text-anchor="middle" font-size="13px" width="77px" fill="#323232" font-weight="400" align="middle" lineHeight="125%" anchor="middle" family="微软雅黑" size="13px" weight="400" font-style="" opacity="1" y="8.375" transform="rotate(0)"><tspan id="SvgjsTspan1486" dy="16" x="38.5"><tspan id="SvgjsTspan1487" style="text-decoration:;">处理数据报</tspan></tspan></text></g></g><g id="SvgjsG1488"><path id="SvgjsPath1489" d="M344.86930569735443 305.0124740600586L271.42486125291 305.0124740600586L271.42486125291 305.0124740600586L202.46930569735446 305.0124740600586" stroke="#323232" stroke-width="2" fill="none" marker-end="url(#SvgjsMarker1490)"></path></g><g id="SvgjsG1492" transform="translate(184.36930569735443,267.9013629489475)"><path id="SvgjsPath1493" d="M 0 0L 160 0L 160 41L 0 41Z" stroke="none" fill="none"></path><g id="SvgjsG1494"><text id="SvgjsText1495" font-family="微软雅黑" text-anchor="middle" font-size="13px" width="160px" fill="#323232" font-weight="400" align="middle" lineHeight="125%" anchor="middle" family="微软雅黑" size="13px" weight="400" font-style="" opacity="1" y="10.875" transform="rotate(0)"><tspan id="SvgjsTspan1496" dy="16" x="80"><tspan id="SvgjsTspan1497" style="text-decoration:;">返回成功指示</tspan></tspan></text></g></g><g id="SvgjsG1498"><path id="SvgjsPath1499" d="M384.36930569735443 145.5124740600586L384.36930569735443 167.56802961561414L384.36930569735443 167.56802961561414L384.36930569735443 190.41247406005857" stroke="#323232" stroke-width="2" fill="none" marker-end="url(#SvgjsMarker1500)"></path></g><g id="SvgjsG1502"><path id="SvgjsPath1503" d="M383.5915279195766 231.0124740600586L383.5915279195766 255.62358517116968L383.5915279195766 255.62358517116968L383.5915279195766 281.1235851711697" stroke="#323232" stroke-width="2" fill="none" marker-end="url(#SvgjsMarker1504)"></path></g><g id="SvgjsG1506" transform="translate(184.36930569735443,25.012474060058594)"><path id="SvgjsPath1507" d="M 0 0L 160 0L 160 41L 0 41Z" stroke="none" fill="none"></path><g id="SvgjsG1508"><text id="SvgjsText1509" font-family="微软雅黑" text-anchor="middle" font-size="17px" width="160px" fill="#323232" font-weight="700" align="middle" lineHeight="125%" anchor="middle" family="微软雅黑" size="17px" weight="700" font-style="" opacity="1" y="7.375" transform="rotate(0)"><tspan id="SvgjsTspan1510" dy="21" x="80"><tspan id="SvgjsTspan1511" style="text-decoration:;">阻塞IO</tspan></tspan></text></g></g><g id="SvgjsG1512" transform="translate(94.86930569735443,82.5124740600586)"><path id="SvgjsPath1513" d="M 0 0L 131 0L 131 27L 0 27Z" stroke="none" fill="none"></path><g id="SvgjsG1514"><text id="SvgjsText1515" font-family="微软雅黑" text-anchor="middle" font-size="15px" width="131px" fill="#323232" font-weight="700" align="middle" lineHeight="125%" anchor="middle" family="微软雅黑" size="15px" weight="700" font-style="" opacity="1" y="2.625" transform="rotate(0)"><tspan id="SvgjsTspan1516" dy="18" x="65.5"><tspan id="SvgjsTspan1517" style="text-decoration:;">用户进程</tspan></tspan></text></g></g></svg>