<svg id="SvgjsSvg1110" width="583.0125122070312" height="404.0124969482422" xmlns="http://www.w3.org/2000/svg" version="1.1" xmlns:xlink="http://www.w3.org/1999/xlink" xmlns:svgjs="http://svgjs.com/svgjs"><defs id="SvgjsDefs1111"><marker id="SvgjsMarker1146" markerWidth="14" markerHeight="10" refX="10" refY="5" viewBox="0 0 14 10" orient="auto" markerUnits="userSpaceOnUse" stroke-dasharray="0,0"><path id="SvgjsPath1147" d="M0,0 L14,5 L0,10 L0,0" fill="#323232" stroke="#323232" stroke-width="1"></path></marker><marker id="SvgjsMarker1170" markerWidth="14" markerHeight="10" refX="10" refY="5" viewBox="0 0 14 10" orient="auto" markerUnits="userSpaceOnUse" stroke-dasharray="0,0"><path id="SvgjsPath1171" d="M0,0 L14,5 L0,10 L0,0" fill="#323232" stroke="#323232" stroke-width="1"></path></marker><marker id="SvgjsMarker1213" markerWidth="14" markerHeight="10" refX="10" refY="5" viewBox="0 0 14 10" orient="auto" markerUnits="userSpaceOnUse" stroke-dasharray="0,0"><path id="SvgjsPath1214" d="M0,0 L14,5 L0,10 L0,0" fill="#323232" stroke="#323232" stroke-width="1"></path></marker><marker id="SvgjsMarker1217" markerWidth="14" markerHeight="10" refX="10" refY="5" viewBox="0 0 14 10" orient="auto" markerUnits="userSpaceOnUse" stroke-dasharray="0,0"><path id="SvgjsPath1218" d="M0,0 L14,5 L0,10 L0,0" fill="#323232" stroke="#323232" stroke-width="1"></path></marker><marker id="SvgjsMarker1227" markerWidth="14" markerHeight="10" refX="10" refY="5" viewBox="0 0 14 10" orient="auto" markerUnits="userSpaceOnUse" stroke-dasharray="0,0"><path id="SvgjsPath1228" d="M0,0 L14,5 L0,10 L0,0" fill="#323232" stroke="#323232" stroke-width="1"></path></marker><marker id="SvgjsMarker1243" markerWidth="14" markerHeight="10" refX="10" refY="5" viewBox="0 0 14 10" orient="auto" markerUnits="userSpaceOnUse" stroke-dasharray="0,0"><path id="SvgjsPath1244" d="M0,0 L14,5 L0,10 L0,0" fill="#323232" stroke="#323232" stroke-width="1"></path></marker><marker id="SvgjsMarker1253" markerWidth="14" markerHeight="10" refX="10" refY="5" viewBox="0 0 14 10" orient="auto" markerUnits="userSpaceOnUse" stroke-dasharray="0,0"><path id="SvgjsPath1254" d="M0,0 L14,5 L0,10 L0,0" fill="#323232" stroke="#323232" stroke-width="1"></path></marker></defs><g id="SvgjsG1112" transform="translate(25.012496948242188,109.01247406005862)"><path id="SvgjsPath1113" d="M 110 0Q 101 0 101 9L 101 117.05555555555554Q 101 126.05555555555554 88 126.05555555555554Q 101 126.05555555555554 101 135.05555555555554L 101 243.1111111111111Q 101 252.1111111111111 110 252.1111111111111" stroke="rgba(50,50,50,1)" stroke-width="2" fill="none"></path><path id="SvgjsPath1114" d="M 0 0L 110 0L 110 252.1111111111111L 0 252.1111111111111Z" stroke="none" fill="none"></path><g id="SvgjsG1115"><text id="SvgjsText1116" font-family="微软雅黑" text-anchor="middle" font-size="13px" width="83px" fill="#323232" font-weight="400" align="middle" lineHeight="125%" anchor="middle" family="微软雅黑" size="13px" weight="400" font-style="" opacity="1" y="91.93055555555554" transform="rotate(0)"><tspan id="SvgjsTspan1117" dy="16" x="41.5"><tspan id="SvgjsTspan1118" style="text-decoration:;">进程反复调用</tspan></tspan><tspan id="SvgjsTspan1119" dy="16" x="41.5"><tspan id="SvgjsTspan1120" style="text-decoration:;">recvform直至</tspan></tspan><tspan id="SvgjsTspan1121" dy="16" x="41.5"><tspan id="SvgjsTspan1122" style="text-decoration:;">返回成功指示</tspan></tspan><tspan id="SvgjsTspan1123" dy="16" x="41.5"><tspan id="SvgjsTspan1124" style="text-decoration:;">(轮询)</tspan></tspan></text></g></g><g id="SvgjsG1125" transform="translate(136.5124969482422,99.01247406005862)"><path id="SvgjsPath1126" d="M 0 0L 83 0L 83 36L 0 36Z" stroke="none" fill="none"></path><g id="SvgjsG1127"><text id="SvgjsText1128" font-family="微软雅黑" text-anchor="middle" font-size="13px" width="83px" fill="#323232" font-weight="400" align="middle" lineHeight="125%" anchor="middle" family="微软雅黑" size="13px" weight="400" font-style="" opacity="1" y="8.375" transform="rotate(0)"><tspan id="SvgjsTspan1129" dy="16" x="41.5"><tspan id="SvgjsTspan1130" style="text-decoration:;">recvfrom</tspan></tspan></text></g></g><g id="SvgjsG1131" transform="translate(222.0124969482422,87.01247406005862)"><path id="SvgjsPath1132" d="M 0 0L 122 0L 122 27L 0 27Z" stroke="none" fill="none"></path><g id="SvgjsG1133"><text id="SvgjsText1134" font-family="微软雅黑" text-anchor="middle" font-size="13px" width="122px" fill="#323232" font-weight="400" align="middle" lineHeight="125%" anchor="middle" family="微软雅黑" size="13px" weight="400" font-style="" opacity="1" y="3.875" transform="rotate(0)"><tspan id="SvgjsTspan1135" dy="16" x="61"><tspan id="SvgjsTspan1136" style="text-decoration:;">系统调用</tspan></tspan></text></g></g><g id="SvgjsG1137" transform="translate(337.5124969482422,99.01247406005862)"><path id="SvgjsPath1138" d="M 0 0L 131 0L 131 36L 0 36Z" stroke="none" fill="none"></path><g id="SvgjsG1139"><text id="SvgjsText1140" font-family="微软雅黑" text-anchor="middle" font-size="13px" width="131px" fill="#323232" font-weight="400" align="middle" lineHeight="125%" anchor="middle" family="微软雅黑" size="13px" weight="400" font-style="" opacity="1" y="8.375" transform="rotate(0)"><tspan id="SvgjsTspan1141" dy="16" x="65.5"><tspan id="SvgjsTspan1142" style="text-decoration:;">无数据报</tspan><tspan id="SvgjsTspan1143" style="text-decoration:;font-size: inherit;">准备好</tspan></tspan></text></g></g><g id="SvgjsG1144"><path id="SvgjsPath1145" d="M220.5124969482422 115.51247406005862L276.1236080593533 115.51247406005862L276.1236080593533 115.51247406005862L333.91249694824216 115.51247406005862" stroke="#323232" stroke-width="2" fill="none" marker-end="url(#SvgjsMarker1146)"></path></g><g id="SvgjsG1148" transform="translate(353.0124969482422,247.0124740600586)"><path id="SvgjsPath1149" d="M 0 0L 100 0L 100 36L 0 36Z" stroke="none" fill="none"></path><g id="SvgjsG1150"><text id="SvgjsText1151" font-family="微软雅黑" text-anchor="middle" font-size="13px" width="100px" fill="#323232" font-weight="400" align="middle" lineHeight="125%" anchor="middle" family="微软雅黑" size="13px" weight="400" font-style="" opacity="1" y="-0.125" transform="rotate(0)"><tspan id="SvgjsTspan1152" dy="16" x="50"><tspan id="SvgjsTspan1153" style="text-decoration:;">数据报准备好</tspan></tspan><tspan id="SvgjsTspan1154" dy="16" x="50"><tspan id="SvgjsTspan1155" style="text-decoration:;">复制数据报</tspan></tspan></text></g></g><g id="SvgjsG1156" transform="translate(356.5124969482422,347.5124740600586)"><path id="SvgjsPath1157" d="M 0 0L 93 0L 93 27L 0 27Z" stroke="none" fill="none"></path><g id="SvgjsG1158"><text id="SvgjsText1159" font-family="微软雅黑" text-anchor="middle" font-size="13px" width="93px" fill="#323232" font-weight="400" align="middle" lineHeight="125%" anchor="middle" family="微软雅黑" size="13px" weight="400" font-style="" opacity="1" y="3.875" transform="rotate(0)"><tspan id="SvgjsTspan1160" dy="16" x="46.5"><tspan id="SvgjsTspan1161" style="text-decoration:;">  复制完成</tspan></tspan></text></g></g><g id="SvgjsG1162" transform="translate(140.5124969482422,343.0124740600586)"><path id="SvgjsPath1163" d="M 0 0L 77 0L 77 36L 0 36Z" stroke="none" fill="none"></path><g id="SvgjsG1164"><text id="SvgjsText1165" font-family="微软雅黑" text-anchor="middle" font-size="13px" width="77px" fill="#323232" font-weight="400" align="middle" lineHeight="125%" anchor="middle" family="微软雅黑" size="13px" weight="400" font-style="" opacity="1" y="8.375" transform="rotate(0)"><tspan id="SvgjsTspan1166" dy="16" x="38.5"><tspan id="SvgjsTspan1167" style="text-decoration:;">处理数据报</tspan></tspan></text></g></g><g id="SvgjsG1168"><path id="SvgjsPath1169" d="M355.5124969482422 361.0124740600586L284.6236080593533 361.0124740600586L284.6236080593533 361.0124740600586L221.1124969482422 361.0124740600586" stroke="#323232" stroke-width="2" fill="none" marker-end="url(#SvgjsMarker1170)"></path></g><g id="SvgjsG1172" transform="translate(214.0124969482422,324.1235851711697)"><path id="SvgjsPath1173" d="M 0 0L 160 0L 160 41L 0 41Z" stroke="none" fill="none"></path><g id="SvgjsG1174"><text id="SvgjsText1175" font-family="微软雅黑" text-anchor="middle" font-size="13px" width="160px" fill="#323232" font-weight="400" align="middle" lineHeight="125%" anchor="middle" family="微软雅黑" size="13px" weight="400" font-style="" opacity="1" y="10.875" transform="rotate(0)"><tspan id="SvgjsTspan1176" dy="16" x="80"><tspan id="SvgjsTspan1177" style="text-decoration:;">返回成功指示</tspan></tspan></text></g></g><g id="SvgjsG1178" transform="translate(455.0124969482422,107.01247406005862)"><path id="SvgjsPath1179" d="M 0 148Q 8.4 148 8.4 139L 8.4 83Q 8.4 74 22 74Q 8.4 74 8.4 65L 8.4 9Q 8.4 0 0 0" stroke="rgba(50,50,50,1)" stroke-width="2" fill="none"></path><path id="SvgjsPath1180" d="M 0 0L 84 0L 84 148L 0 148Z" stroke="none" fill="none"></path><g id="SvgjsG1181"><text id="SvgjsText1182" font-family="微软雅黑" text-anchor="start" font-size="13px" width="57px" fill="#323232" font-weight="400" align="middle" lineHeight="125%" anchor="start" family="微软雅黑" size="13px" weight="400" font-style="" opacity="1" y="64.375" transform="rotate(0)"><tspan id="SvgjsTspan1183" dy="16" x="27"><tspan id="SvgjsTspan1184" style="text-decoration:;">等待数据</tspan></tspan></text></g></g><g id="SvgjsG1185" transform="translate(458.0124969482422,270.8735851711697)"><path id="SvgjsPath1186" d="M 0 93Q 9 93 9 84L 9 55.5Q 9 46.5 22 46.5Q 9 46.5 9 37.5L 9 9Q 9 0 0 0" stroke="rgba(50,50,50,1)" stroke-width="2" fill="none"></path><path id="SvgjsPath1187" d="M 0 0L 100 0L 100 93L 0 93Z" stroke="none" fill="none"></path><g id="SvgjsG1188"><text id="SvgjsText1189" font-family="微软雅黑" text-anchor="start" font-size="13px" width="73px" fill="#323232" font-weight="400" align="middle" lineHeight="125%" anchor="start" family="微软雅黑" size="13px" weight="400" font-style="" opacity="1" y="36.875" transform="rotate(0)"><tspan id="SvgjsTspan1190" dy="16" x="27"><tspan id="SvgjsTspan1191" style="text-decoration:;">拷贝数据</tspan></tspan></text></g></g><g id="SvgjsG1192" transform="translate(137.0124969482422,176.01247406005862)"><path id="SvgjsPath1193" d="M 0 0L 84 0L 84 36L 0 36Z" stroke="none" fill="none"></path><g id="SvgjsG1194"><text id="SvgjsText1195" font-family="微软雅黑" text-anchor="middle" font-size="13px" width="84px" fill="#323232" font-weight="400" align="middle" lineHeight="125%" anchor="middle" family="微软雅黑" size="13px" weight="400" font-style="" opacity="1" y="8.375" transform="rotate(0)"><tspan id="SvgjsTspan1196" dy="16" x="42"><tspan id="SvgjsTspan1197" style="text-decoration:;">recvfrom</tspan></tspan></text></g></g><g id="SvgjsG1198" transform="translate(342.0124969482422,176.01247406005862)"><path id="SvgjsPath1199" d="M 0 0L 122 0L 122 36L 0 36Z" stroke="none" fill="none"></path><g id="SvgjsG1200"><text id="SvgjsText1201" font-family="微软雅黑" text-anchor="middle" font-size="13px" width="122px" fill="#323232" font-weight="400" align="middle" lineHeight="125%" anchor="middle" family="微软雅黑" size="13px" weight="400" font-style="" opacity="1" y="8.375" transform="rotate(0)"><tspan id="SvgjsTspan1202" dy="16" x="61"><tspan id="SvgjsTspan1203" style="text-decoration:;">无数据报</tspan><tspan id="SvgjsTspan1204" style="text-decoration:;font-size: inherit;">准备好</tspan></tspan></text></g></g><g id="SvgjsG1205" transform="translate(236.5124969482422,210.0124740600586)"><path id="SvgjsPath1206" d="M 0 0L 93 0L 93 21L 0 21Z" stroke="none" fill="none"></path><g id="SvgjsG1207"><text id="SvgjsText1208" font-family="微软雅黑" text-anchor="middle" font-size="13px" width="93px" fill="#323232" font-weight="400" align="middle" lineHeight="125%" anchor="middle" family="微软雅黑" size="13px" weight="400" font-style="" opacity="1" y="0.875" transform="rotate(0)"><tspan id="SvgjsTspan1209" dy="16" x="46.5"><tspan id="SvgjsTspan1210" style="text-decoration:;">ewouldblock</tspan></tspan></text></g></g><g id="SvgjsG1211"><path id="SvgjsPath1212" d="M341.0124969482422 207.20074074434092L280.6870308556129 207.20074074434092L280.6870308556129 207.20074074434092L224.6124969482422 207.20074074434092" stroke="#323232" stroke-width="2" fill="none" marker-end="url(#SvgjsMarker1213)"></path></g><g id="SvgjsG1215"><path id="SvgjsPath1216" d="M222.0124969482422 195.5124740600586L282.6236080593533 195.5124740600586L282.6236080593533 195.5124740600586L345.23471917046436 195.5124740600586" stroke="#323232" stroke-width="2" fill="none" marker-end="url(#SvgjsMarker1217)"></path></g><g id="SvgjsG1219" transform="translate(211.0124969482422,167.51247406005862)"><path id="SvgjsPath1220" d="M 0 0L 122 0L 122 27L 0 27Z" stroke="none" fill="none"></path><g id="SvgjsG1221"><text id="SvgjsText1222" font-family="微软雅黑" text-anchor="middle" font-size="13px" width="122px" fill="#323232" font-weight="400" align="middle" lineHeight="125%" anchor="middle" family="微软雅黑" size="13px" weight="400" font-style="" opacity="1" y="3.875" transform="rotate(0)"><tspan id="SvgjsTspan1223" dy="16" x="61"><tspan id="SvgjsTspan1224" style="text-decoration:;">系统调用</tspan></tspan></text></g></g><g id="SvgjsG1225"><path id="SvgjsPath1226" d="M336.5124969482422 127.22330990251069L281.2311299961351 127.22330990251069L281.2311299961351 127.22330990251069L224.85088078662466 127.22330990251069" stroke="#323232" stroke-width="2" fill="none" marker-end="url(#SvgjsMarker1227)"></path></g><g id="SvgjsG1229" transform="translate(236.5124969482422,127.51247406005862)"><path id="SvgjsPath1230" d="M 0 0L 93 0L 93 21L 0 21Z" stroke="none" fill="none"></path><g id="SvgjsG1231"><text id="SvgjsText1232" font-family="微软雅黑" text-anchor="middle" font-size="13px" width="93px" fill="#323232" font-weight="400" align="middle" lineHeight="125%" anchor="middle" family="微软雅黑" size="13px" weight="400" font-style="" opacity="1" y="0.875" transform="rotate(0)"><tspan id="SvgjsTspan1233" dy="16" x="46.5"><tspan id="SvgjsTspan1234" style="text-decoration:;">ewouldblock</tspan></tspan></text></g></g><g id="SvgjsG1235" transform="translate(137.0124969482422,247.0124740600586)"><path id="SvgjsPath1236" d="M 0 0L 84 0L 84 36L 0 36Z" stroke="none" fill="none"></path><g id="SvgjsG1237"><text id="SvgjsText1238" font-family="微软雅黑" text-anchor="middle" font-size="13px" width="84px" fill="#323232" font-weight="400" align="middle" lineHeight="125%" anchor="middle" family="微软雅黑" size="13px" weight="400" font-style="" opacity="1" y="8.375" transform="rotate(0)"><tspan id="SvgjsTspan1239" dy="16" x="42"><tspan id="SvgjsTspan1240" style="text-decoration:;">recvfrom</tspan></tspan></text></g></g><g id="SvgjsG1241"><path id="SvgjsPath1242" d="M222.0124969482422 265.0124740600586L286.5124969482422 265.0124740600586L286.5124969482422 265.0124740600586L349.41249694824216 265.0124740600586" stroke="#323232" stroke-width="2" fill="none" marker-end="url(#SvgjsMarker1243)"></path></g><g id="SvgjsG1245" transform="translate(222.0124969482422,239.12358517116968)"><path id="SvgjsPath1246" d="M 0 0L 122 0L 122 27L 0 27Z" stroke="none" fill="none"></path><g id="SvgjsG1247"><text id="SvgjsText1248" font-family="微软雅黑" text-anchor="middle" font-size="13px" width="122px" fill="#323232" font-weight="400" align="middle" lineHeight="125%" anchor="middle" family="微软雅黑" size="13px" weight="400" font-style="" opacity="1" y="3.875" transform="rotate(0)"><tspan id="SvgjsTspan1249" dy="16" x="61"><tspan id="SvgjsTspan1250" style="text-decoration:;">系统调用</tspan></tspan></text></g></g><g id="SvgjsG1251"><path id="SvgjsPath1252" d="M401.1236080593533 284.0124740600586L401.1236080593533 310.2485851711697L401.1236080593533 310.2485851711697L401.1236080593533 336.1235851711697" stroke="#323232" stroke-width="2" fill="none" marker-end="url(#SvgjsMarker1253)"></path></g><g id="SvgjsG1255" transform="translate(203.0124969482422,25.012474060058565)"><path id="SvgjsPath1256" d="M 0 0L 160 0L 160 41L 0 41Z" stroke="none" fill="none"></path><g id="SvgjsG1257"><text id="SvgjsText1258" font-family="微软雅黑" text-anchor="middle" font-size="17px" width="160px" fill="#323232" font-weight="700" align="middle" lineHeight="125%" anchor="middle" family="微软雅黑" size="17px" weight="700" font-style="" opacity="1" y="7.375" transform="rotate(0)"><tspan id="SvgjsTspan1259" dy="21" x="80"><tspan id="SvgjsTspan1260" style="text-decoration:;">非阻塞IO</tspan></tspan></text></g></g><g id="SvgjsG1261" transform="translate(113.51249694824219,67.51247406005862)"><path id="SvgjsPath1262" d="M 0 0L 131 0L 131 27L 0 27Z" stroke="none" fill="none"></path><g id="SvgjsG1263"><text id="SvgjsText1264" font-family="微软雅黑" text-anchor="middle" font-size="15px" width="131px" fill="#323232" font-weight="700" align="middle" lineHeight="125%" anchor="middle" family="微软雅黑" size="15px" weight="700" font-style="" opacity="1" y="2.625" transform="rotate(0)"><tspan id="SvgjsTspan1265" dy="18" x="65.5"><tspan id="SvgjsTspan1266" style="text-decoration:;">用户进程</tspan></tspan></text></g></g><g id="SvgjsG1267" transform="translate(323.0124969482422,60.51247406005862)"><path id="SvgjsPath1268" d="M 0 0L 160 0L 160 41L 0 41Z" stroke="none" fill="none"></path><g id="SvgjsG1269"><text id="SvgjsText1270" font-family="微软雅黑" text-anchor="middle" font-size="15px" width="160px" fill="#323232" font-weight="700" align="middle" lineHeight="125%" anchor="middle" family="微软雅黑" size="15px" weight="700" font-style="" opacity="1" y="9.625" transform="rotate(0)"><tspan id="SvgjsTspan1271" dy="18" x="80"><tspan id="SvgjsTspan1272" style="text-decoration:;">内核</tspan></tspan></text></g></g></svg>